<?xml version="1.0" standalone="no"?>
<svg version="1.1" id="Layer_1" xmlns="http://www.w3.org/2000/svg" xmlns:xlink="http://www.w3.org/1999/xlink" x="0px" y="0px" viewBox="0 0 595.276 595.276" enable-background="new 0 0 595.276 595.276" xml:space="preserve">
<path id="color_x5F_6" fill-rule="evenodd" clip-rule="evenodd" fill="#ffcbd5" d="M322.632,515.283h7.035
	c0.4-0.618,0.427-0.639,0.607-0.894c0.45-0.632,0.959-1.22,1.52-1.757c1.984-2.162,4.732-3.467,7.661-3.64c0.14,0,0.28,0,0.42,0
	c1.755,0.104,3.474,0.538,5.067,1.28c5.57,2.459,11.562,3.818,17.648,4l0.114,0.007c2.624,0.31,5.248,0.621,7.871,0.934
	l54.654,6.439c0.126-0.027,0.257-0.01,0.372,0.048l0.743,0.083c0.982,0.122,1.975,0.114,2.955-0.025c4.1-0.5,7.723-3.147,10.333-6.6
	c1.436-1.743,2.273-3.902,2.388-6.158l1.705-17.236h-81.138c-0.152-0.013-0.302-0.047-0.446-0.1
	c-0.328-0.149-0.657-0.296-0.986-0.44c-8.311-3.602-17.266-5.484-26.324-5.533c-4.513-0.006-9.027-0.006-13.541,0
	c-0.767,0-1.531,0.038-2.292,0.115c-0.787,0.086-1.561,0.2-2.319,0.335c-4.004,0.772-7.762,2.503-10.951,5.045l-0.117,0.1
	l-0.095,0.077l-0.079,0.066l-0.134,0.11l0,0l-0.051,0.018c-0.065,0.089-0.136,0.174-0.213,0.253
	c-4.534,4.781-7.165,10.983-8.816,17.594c-0.259,1.198,0.502,2.379,1.7,2.638c0.111,0.024,0.224,0.04,0.338,0.046
	c1.153-0.236,2.048-1.144,2.268-2.3c1.188-5.457,4.014-11.117,9.321-12.308c0.86-0.194,1.667,0.7,0.857,1.806
	c-3.14,4.415-3.956,10.34-4.059,16.006h4.672c0.052-1.443,0.267-2.876,0.642-4.271c0.939-3.912,2.363-7.692,4.238-11.251
	c0.18-0.364,0.569-0.577,0.973-0.533c0.875,0.112,1.072,0.882,0.3,2.442c-2.234,4.236-3.674,8.845-4.249,13.6h7.6
	c-0.044-1.305,0.075-2.609,0.352-3.885c0.793-4.002,2.183-7.863,4.124-11.452c0.152-0.462,0.605-0.757,1.089-0.707
	c1.472,0.216,0.1,2.629-0.684,4.408C323.998,507.31,322.958,511.251,322.632,515.283z M304.651,515.283h-27.984l-6.3-23.52h31.98
	c-4,4.634-6.347,10.6-7.911,16.557c-0.661,2.575,0.583,5.069,2.847,5.634c0.201,0.059,0.409,0.094,0.618,0.105
	c1.8,0.632,3.887-1.139,4.411-3.048c0.915-3.659,2.106-8.019,5.326-10.363C305.641,505.267,304.624,510.251,304.651,515.283z
	 M352.812,379.87h-12.99c-14.791-0.046-27.1-12.968-27.313-26.974c-0.154-16.492,0-32.986,0-49.479l0.081,0.066
	c3.805,3.035,8.229,5.198,12.96,6.337c4.5,1.074,9.2,0.912,13.923,0.9h0.107h0.179h0.125h0.073h0.033h0.06
	c2.025-0.056,4.041-0.301,6.021-0.731l0,0h0.019l0.3-0.065l0.036-0.008c6.303-1.405,12.059-4.621,16.559-9.253l0,0l0,0l0.07,0.2
	l0.069,0.188l0.014,0.04c4.135,11.014,13.035,21.68,23.968,28.352c1.526,0.941,3.102,1.798,4.721,2.567
	c0.295,0.199,0.62,0.348,0.962,0.443l0.055,0.025l0.406,0.087h7.125c0.222,0,0.444,0.008,0.665,0.025
	c0.417,0.03,0.833,0.081,1.245,0.154c2.367,0.42,4.54,1.578,6.208,3.309c5,5.25,3.026,14.58-3,17.772
	c-3.666,1.832-8,1.246-12.24,1.246l-0.382,0.076c-0.645,0.431-0.633,0.814-0.62,0.9v0.02v33.082c0.036,0.392,0.268,0.74,0.617,0.923
	l2.151,0.075l-0.065,0.747l-0.016,0.184c-0.786,7.829-5.782,14.605-13.028,17.672c-3.307,1.174-6.808,1.705-10.314,1.565h-0.763
	c-0.253,0-0.508,0-0.763,0h-0.231h-0.07h-0.165h-0.076l-0.182-0.009h-0.048l-0.236-0.014h-0.028l-0.212-0.016h-0.037
	c-9.064-0.923-16.371-7.832-17.8-16.83c-0.123-1-0.176-1.948-0.195-2.719c0-0.193,0-0.388,0.013-0.583h2.006c1.356-0.269,1-1,1-1
	v-7.261h17.022c0.556-0.011,0.998-0.47,0.987-1.026c-0.004-0.203-0.069-0.4-0.187-0.566c-0.134-0.181-0.168-0.331-0.718-0.4
	c-6.029-0.257-12.07,0-18.106,0L352.812,379.87z M338.02,363.57c1.1,0.113,2.177,1.514,3.684,2.013
	c2.808,0.88,5.873,0.211,8.059-1.759c0.305-0.208,0.685-0.274,1.043-0.183c0.768,0.31,0.3,1.666,0.3,1.666
	c-0.081,0.074-0.162,0.145-0.243,0.217c-3.723,3.2-9.256,2.912-13.491-0.147c-0.457-0.3-0.583-0.913-0.284-1.37
	c0.203-0.31,0.563-0.48,0.932-0.44L338.02,363.57z M283.577,217.723h-6.447v-11.261c-0.15-0.81-0.547-0.891-0.547-0.891
	c-8.1-4.106-3.638-16.026,3.66-16.166h0.221c8.423,0.161,10.456,11.2,5.034,15.315c-0.657,0.5-1.745,0.794-1.921,1.742
	L283.577,217.723z M280.125,123.678c-19.02,0.176-36.6,16.444-36.663,36.892v10.088c3.95-0.073,7.901-0.127,11.852-0.163
	c-0.059-5.9-0.47-11.767,1.421-17.134c0.04-0.115,0.082-0.229,0.124-0.342l0.033-0.091c0.057-0.152,0.116-0.3,0.176-0.454l0,0l0,0
	l0.048-0.122l0.036-0.086v-0.011l0.021-0.05l0.057-0.141l0.009-0.02c3.959-9.122,12.844-15.125,22.784-15.393
	c0.163,0,0.325,0,0.488,0c1.495,0.015,2.984,0.175,4.448,0.478c1.664,0.275,3.292,0.735,4.853,1.372
	c9.117,3.862,15.181,12.646,15.56,22.54v0.168v0.116v0.067c0,0.1,0,0.193,0,0.289v8.9c3.953,0.029,7.906,0.056,11.857,0.081
	c0-7.192,0.372-14.378-1.661-21.035l-0.024-0.08l-0.075-0.24l-0.106-0.326c-5.098-14.733-18.755-24.796-34.337-25.3l-0.459-0.005
	L280.125,123.678z M141.409,166.5H59.81V70.824h81.6L141.409,166.5z M133.55,78.1H67.67c0,0-0.916,0.581-1,1v65.88
	c0.177,0.891,0.583,1.029,0.819,1.028h0.031c0.051-0.002,0.101-0.012,0.149-0.028h65.88c0.058,0.02,0.119,0.029,0.18,0.029h0.033
	c0.239-0.012,0.616-0.177,0.786-1.027V79.1l-0.617-0.923L133.55,78.1z"></path>
<path id="color_x5F_5" fill-rule="evenodd" clip-rule="evenodd" fill="#0d466f" d="M338.957,523.71l15.387-0.092
	c3.316-0.136,6.161-2.405,7.032-5.607v-0.009l0.033-0.137l0.006-0.025l0.027-0.123l0.008-0.036l0.023-0.119l0.007-0.039l0.026-0.156
	l-55.861-0.056c-0.18,0.118-0.413,0.118-0.593,0l-29.153-0.03l-0.965-0.74l-6.834-25.518c-0.007-0.092-0.011-0.179-0.009-0.263
	c-5.045-19.093-10.081-38.189-15.392-57.209c-0.12-0.472-0.329-0.918-0.614-1.313c-0.865-1.251-2.272-2.018-3.792-2.068
	c-35.861-0.378-71.725,0-107.589,0c-1.825,0.083-3.237,1.628-3.154,3.453c0.008,0.172,0.029,0.343,0.063,0.511
	c7.486,28.753,15.079,57.481,23.071,86.1c0.611,1.946,2.376,3.301,4.414,3.387c3.14,0.033,6.28,0.064,9.421,0.093L338.957,523.71z
	 M201.392,463.763c11.872,0.224,23.153,15.507,15.192,24.492c-2.009,2.166-4.846,3.372-7.8,3.316h-0.233
	c-6.872,0.011-14.9-4.946-17.5-12.486c-2.186-6.353,1.2-15.157,9.976-15.324h0.361L201.392,463.763z M313.543,479.61l-0.47,5.37
	h-0.007c-2.324,0.759-4.536,1.827-6.576,3.174l-0.106,0.07l-0.068,0.046l0,0h-0.006c-0.508,0.341-1.004,0.699-1.487,1.073
	c-0.153,0.121-0.306,0.241-0.457,0.365l-0.061,0.049h-6.568l0.889-10.155L313.543,479.61z M444.8,479.61l-0.888,10.155h-31.848
	l0.889-10.153L444.8,479.61z M214,333.9L214,333.9c-3.495-0.204-6.283-2.992-6.487-6.487c-0.057-2.983-1.68-5.979-4.6-6.034
	c-8.819-0.056-17.637,0-26.454,0c-2.516,0.086-4.545,2.086-4.667,4.6c-0.141,22.337-0.414,44.68,0,67.015
	c0.145,2.469,2.129,4.431,4.6,4.547c26.473,0.165,52.952,0.5,79.421,0c2.469-0.144,4.43-2.13,4.543-4.6
	c0.115-18.166,0.344-36.335,0-54.5c-0.144-2.469-2.13-4.429-4.6-4.542c-13.893-0.088-27.789,0.261-41.68,0L214,333.9L214,333.9z
	 M470.874,365.269c0,6.542,0.041,13.084,0.124,19.626c0.102,1.744,1.494,3.136,3.238,3.238c22.271,0.274,44.544,0.274,66.818,0
	c1.745-0.101,3.137-1.493,3.238-3.238c0.133-10.454,0.164-20.91,0.093-31.367l-37,17.716c-0.27,0.162-0.608,0.16-0.876-0.006
	l-35.6-17.684c-0.024,3.744-0.036,7.488-0.035,11.232c0.034,0.157,0.035,0.32,0.004,0.478L470.874,365.269z M544.368,351.337
	c-0.02-2.431-0.045-4.862-0.076-7.293c-0.1-1.745-1.493-3.138-3.238-3.239c-22.241-0.278-44.486,0-66.729,0
	c-1.779,0.059-3.221,1.463-3.327,3.24c-0.03,2.429-0.054,4.859-0.073,7.288l36.033,17.9L544.368,351.337z M400.35,357.045h0.107
	c1.637-0.019,3.256-0.335,4.78-0.932c0.052-0.02,0.02,0.028,0.02,0.028c-0.77,5.668-5.319,10.073-11.009,10.659v-9.751
	L400.35,357.045z M315.98,252.961c-1.508-0.008-3.006,0.246-4.427,0.752c-1.717,0.622-3.294,1.579-4.638,2.816
	c-2.622,2.387-4.268,5.659-4.621,9.187l-0.054,0.188l0,0c0,8.075-0.51,16.351,2.321,23.583c4.038,9.808,12.804,16.876,23.246,18.741
	c1.488,0.258,2.991,0.418,4.5,0.479c0.2,0.006,0.406,0.011,0.608,0.013c2.117,0.012,4.233,0,6.349,0h0.093
	c1.752-0.032,3.499-0.187,5.229-0.464c4.282-0.764,8.358-2.414,11.966-4.843l0.149-0.1l0.1-0.066c2.17-1.49,4.145-3.247,5.878-5.228
	l1.179-0.247c0.01-0.003,0.02-0.003,0.03,0c0.042,0.01,0.079,0.032,0.108,0.064c0.191,0.226,0.333,0.488,0.418,0.771
	c0.068,0.179,0.142,0.4,0.221,0.658c2.058,6.541,6.069,12.4,10.88,17.551c2.029,2.161,4.172,4.211,6.42,6.142l0.013,0.011
	l0.088,0.075c0.45,0.389,0.907,0.772,1.37,1.147c2.96,2.448,6.21,4.524,9.676,6.179l0.081,0.038l0.3,0.138
	c2.347,0,4.694-0.04,7.041,0h0.064h0.051h0.071h0.1c1.56,0.056,3.098,0.382,4.547,0.963l-0.046-37.709l-0.022-0.336l-0.013-0.154
	l-0.014-0.182l-0.019-0.2l-0.012-0.135l-0.024-0.224l-0.012-0.11l-0.027-0.237l-0.011-0.1l-0.032-0.243l-0.012-0.09l-0.035-0.24
	l-0.013-0.092l-0.036-0.23l-0.016-0.1l-0.037-0.217l-0.02-0.115l-0.035-0.195l-0.025-0.136l-0.033-0.17l-0.032-0.163l-0.029-0.138
	l-0.041-0.193l-0.022-0.1l-0.052-0.23l-0.014-0.061l-0.064-0.273v-0.015c-3.008-12.4-14.642-22.465-28.087-22.506h-45.21
	l-0.053-0.012c-1.091-0.265-1.053-2.244-1.451-3.606c-1.7-5.813-7.565-9.944-13.623-10.042L315.98,252.961z M256.319,172.661
	c0.155,0.097,0.351,0.097,0.506,0h47.145c0.134,0.056,0.285,0.056,0.419,0H317.6c0.259,0.005,0.517,0.033,0.771,0.085
	c1.863,0.498,3.307,1.971,3.768,3.844v0.029l0.009,0.06l0.01,0.061v0.038l0.009,0.078v0.027l0.008,0.084v0.024l0.006,0.087v0.023
	v0.108c0.323,17.547,0.11,35.1,0,52.651c-0.113,2.472-2.076,4.459-4.547,4.6c-9.317,0.174-18.635,0.24-27.954,0.246h-2.329
	c-14.755-0.006-29.511-0.153-44.265-0.245c-2.472-0.113-4.459-2.077-4.6-4.548c-0.323-17.547-0.111-35.1,0-52.652v-0.114l0,0
	c0.178-2.469,2.189-4.405,4.663-4.491L256.319,172.661z M284.576,219.721l0.383-0.076l0.616-0.923V207.06
	c1.227-0.705,2.301-1.648,3.158-2.773c4.961-6.526-0.511-16.576-8.065-16.874l-0.179-0.006h-0.27l-0.271,0.006
	c-10.094,0.449-12.561,13.522-6.229,18.675c0.436,0.373,0.91,0.698,1.414,0.971v11.662l0.077,0.382
	c0.368,0.552,0.7,0.623,0.847,0.624h0.032c0.014-0.001,0.028-0.003,0.042-0.006H284.576z M482.044,89.881v11.977c0,0-0.48,0.7,1,1
	h9.873v44.585H460.13c-0.155-0.097-0.353-0.097-0.508,0h-12.533V89.881H482.044z M101.968,93.381
	c-4.694,0.088-7.871,8.075-2.138,10.584c0.576,0.249,1.197,0.377,1.824,0.375h0.1c3.54-0.062,7.172-3.874,5.265-7.828
	c-0.938-1.884-2.846-3.09-4.95-3.13L101.968,93.381z"></path>
<path id="color_x5F_4" fill-rule="evenodd" clip-rule="evenodd" fill="#00cec9" d="M201.057,465.76
	c-3.817,0.072-7.58,2.335-8.556,6.323c-1.975,8.077,6.6,17.7,15.339,17.748h0.234c1.188-0.016,2.367-0.218,3.492-0.6
	c2.601-0.885,4.587-3.011,5.292-5.666c2.14-8.233-6.515-17.718-15.587-17.808L201.057,465.76z M189.346,273.186l33.66-39.273
	l33.661,39.273h-19.162c0,0-0.706-0.479-1,1v39.844h-27v-39.845l-0.076-0.382l-0.923-0.617H189.346z M367.3,173.43
	c0.215-0.01,0.43-0.018,0.645-0.025s0.436-0.01,0.663-0.011c0.166,0,0.332,0,0.5,0c15.912,0.222,30.318,14.469,29.888,31.17
	c3.822,1.276,7.518,2.904,11.04,4.861c5.113,3.005,9.657,6.886,13.425,11.465l0.1,0.121c0.522-1.655,1.174-3.985,1.174-3.985
	c0.22-0.278,0.556-0.438,0.911-0.434l13.827,1.174c1.347-6.781,1.719-13.72,1.106-20.607l-13.891-0.46c0,0-0.659,0.846-1.243-2.65
	c-0.712-4.157-1.871-8.225-3.457-12.133c0,0-0.506-0.427,0.41-1.231l11.876-7.178c-2.899-6.276-6.676-12.108-11.217-17.321
	l-11.509,7.793c0,0-0.036,1.07-2.563-1.414c-3.02-2.944-6.349-5.554-9.929-7.784c0,0-0.66-0.047-0.393-1.236l5.39-12.787
	c-6.033-3.377-12.517-5.876-19.256-7.42l-4.73,13.069c0,0,0.6,0.888-2.9,0.364c-4.174-0.608-8.401-0.763-12.608-0.463
	c0,0-0.562,0.351-1.044-0.769l-3.157-13.513c-4.708,0.559-9.351,1.575-13.862,3.034c0,0,2.785,3.028,4.834,5.628
	c6.18,7.858,10.951,16.728,14.1,26.216c0.52,1.556,0.994,3.135,1.423,4.737C367.007,172.236,367.156,172.833,367.3,173.43z
	 M506.952,106.017v57.561h-45.824v-14.139h32.786c0.026,0.018,0.711,0.452,1-1v-42.422L506.952,106.017z M102.615,121.017
	l-1.194-0.031l-12.76-10.034l-19.992,11.013v22.016h63.882v-14.813L113.543,113.3L102.615,121.017z M484.039,100.858h7.733
	l-7.733-9.23V100.858z"></path>
<path id="color_x5F_3" fill-rule="evenodd" clip-rule="evenodd" fill="#e84393" d="M85.745,523.71c0.951,0.052,1.412,1.919,0,2
	c-1.856,0.034-3.978,0.422-4.352-0.676c-0.157-0.553,0.164-1.128,0.716-1.284c0.063-0.018,0.127-0.03,0.193-0.036
	C83.45,523.691,84.598,523.689,85.745,523.71z M142.408,168.5h-83.6c-1.478-0.293-1-1-1-1V69.825c0.292-1.466,0.989-1.007,1-1h83.6
	l0.383,0.076l0.616,0.923v47.837h40.509l0.142,0.011c0.705,0.153,0.808,0.315,0.857,0.988v50.79c4.62,0.034,9.198,0.88,13.525,2.5
	c0.717,0.268,1.692,0.676,1.692,0.676c0.089-0.348,0.18-0.696,0.274-1.045c9.161-33.777,39.737-59.961,74.749-63.38
	c18.859-1.843,37.994,3.195,54.065,13.322v-16.5c0.083-0.84,0.26-0.925,1-1h114.872V88.882c0.293-1.467,0.989-1.007,1-1h36.952
	l0.381,0.076l0.012,0.017l0.055,0.013l0.317,0.251l10.872,12.976c0.041,0.073,0.077,0.149,0.107,0.227l0.05,0.033l0.076,0.382v2.162
	h13.039l0.383,0.076l0.616,0.922v59.559c-0.293,1.479-1,1-1,1H460.13c-1.478-0.294-1-1-1-1v-15.137h-13.04c-1.478-0.293-1-1-1-1
	v-42.422H331.217L331.2,122.8c4.767,3.177,9.22,6.8,13.3,10.822c5.267-1.815,10.719-3.041,16.256-3.653
	c0.207-0.017,0.416-0.017,0.623,0c0.343,0.119,0.61,0.393,0.72,0.739l3.165,13.553c0.339-0.02,0.676-0.037,1.015-0.052
	c4.048-0.161,8.101,0.084,12.1,0.73l4.644-13.134c0,0-0.737-1.08,2.219-0.414c7.099,1.639,13.923,4.298,20.26,7.892
	c0.542,0.256,0.844,0.844,0.737,1.434l-5.4,12.824c0.285,0.183,0.569,0.368,0.851,0.555c3.369,2.248,6.504,4.828,9.36,7.7
	l11.477-7.9c0,0,0.071-1.27,2.038,0.969c4.78,5.499,8.738,11.66,11.753,18.293c0.287,0.526,0.186,1.18-0.247,1.595l-11.911,7.2
	c0.124,0.314,0.244,0.631,0.363,0.949c1.404,3.799,2.425,7.73,3.045,11.733l13.926,0.358c0,0,0.8-0.986,1.08,1.982
	c0.636,7.258,0.217,14.57-1.246,21.708c-0.075,0.595-0.541,1.065-1.135,1.145l-13.867-1.178c-0.051,0.195-0.1,0.391-0.156,0.585
	c-0.284,1.353-0.689,2.678-1.21,3.959c4.133,5.42,7.058,11.662,8.581,18.306c0.36,1.604,0.634,3.226,0.819,4.86h53.013
	c0.04-12.332,0.115-24.664,0.115-37c0.081-2.871,2.352-5.198,5.22-5.348c13.594-0.174,27.19-0.174,40.788,0
	c2.815,0.155,5.063,2.403,5.218,5.218c0.319,25.37,0,50.744,0,76.117c-0.087,2.868-2.355,5.192-5.22,5.348
	c-13.551,0.171-27.1,0-40.657,0c-2.871-0.079-5.199-2.351-5.349-5.219c-0.155-12.374-0.159-24.75-0.124-37.125h-52.82
	c0.855,13.891-3.919,27.541-13.244,37.872V364l47.651,0.015c0.021-6.632,0.06-13.264,0.06-19.9c0.087-2.849,2.341-5.157,5.187-5.311
	c22.303-0.279,44.609-0.279,66.916,0c2.801,0.148,5.038,2.385,5.186,5.186c0.174,13.607,0,27.216,0,40.825
	c-0.086,2.85-2.341,5.158-5.188,5.311c-22.262,0.273-44.527,0-66.79,0c-2.849-0.085-5.158-2.34-5.311-5.186
	c-0.078-6.316-0.084-12.632-0.068-18.947h-48.649c-0.809-0.071-0.934-0.258-1-1v-76.672c-3.356,3.318-7.186,6.118-11.366,8.308
	c-0.222,0.116-0.419,0.211-0.595,0.29v35.911c4.886,3.408,7.7,10.053,5.283,15.973c-1.071,2.564-2.92,4.727-5.286,6.185
	c0,0.282-0.017,0.565-0.038,0.845c-0.697,6.88-6.161,12.307-13.045,12.957v19.339l1.631,0.061c0.075-0.026,0.152-0.047,0.23-0.061
	h40.683h0.008h0.226c9.312,0.345,16.581,8.174,16.235,17.485c-0.006,0.174-0.016,0.347-0.027,0.521l-6.347,72.565l-1.064,12.153
	v0.008l0,0l-1.8,18.193c-0.027,5.191-4.164,9.8-8,12.311c-1.925,1.251-4.107,2.052-6.384,2.343h58.772
	c0.045,0,0.09,0.006,0.133,0.019l0,0c0.54,0.163,0.846,0.733,0.683,1.273c-0.099,0.328-0.355,0.585-0.683,0.683l0,0
	c-0.043,0.013-0.088,0.02-0.133,0.02H336c-35.035,0.137-70.069,0.071-105.1,0H102.038c-0.503,0.033-0.938-0.349-0.97-0.852
	c-0.001-0.022-0.002-0.045-0.002-0.067c-0.068-0.524,0.302-1.003,0.826-1.07c0.048-0.006,0.097-0.009,0.146-0.008h58.531
	c-0.844-0.802-1.466-1.809-1.806-2.923c-8-28.663-16.035-57.331-23.107-86.239c-0.553-2.924,1.368-5.743,4.292-6.296
	c0.198-0.038,0.398-0.064,0.599-0.079c35.92-0.807,71.86-0.378,107.786,0c2.953,0.119,5.498,2.114,6.32,4.952l15.176,56.641h25.9
	l0.983-11.242c-0.031-0.118-0.02-0.244,0.031-0.355l6.318-72.2c0.05-0.69,0.15-1.376,0.3-2.051
	c1.987-9.023,9.864-15.533,19.1-15.783h29.356v-6.262c-7.519,0-15.024,0.739-21.876-1.715
	c-11.536-4.325-19.246-15.275-19.427-27.594v-50.31H238.5v12.778c0,0,0.12,0.43-0.616,0.923l-0.382,0.076h-29
	c-0.015,0-0.44,0.106-0.922-0.617l-0.077-0.382v-12.778c-21.63,0-43.259,0.067-64.889,0c-18.4-0.175-35.949-13.241-41.217-30.93
	c-0.232-0.779-0.44-1.563-0.624-2.354H84.054l-0.015,81.916c9.052,0.032,18.1,0.116,27.156,0.172
	c3.593,0.166,6.456,3.063,6.578,6.658v5.678l17.91-8.8l1.128,0.172l0.312,0.725V393.5l-0.653,0.937l-0.787-0.04l-17.91-8.8
	c0,3.782,0.494,7.819-1.835,10.267c-1.225,1.269-2.897,2.011-4.66,2.067c-18.812,0.347-37.627,0.347-56.445,0
	c-3.499-0.201-6.292-2.994-6.493-6.493c-0.211-11.296-0.211-22.596,0-33.9c0.201-3.499,2.994-6.292,6.493-6.493
	c9.074-0.171,18.149-0.2,27.224-0.18v-82.898c0.071-0.809,0.257-0.934,1-1h17.309c-4.418-23.5,11.051-46.131,34.55-50.549
	c2.359-0.443,4.75-0.69,7.15-0.737c0,0-0.568-9.435,1.647-16.709c5.083-16.694,21.58-28.773,39.208-29.49V119.66l-39.51-0.01v47.85
	l-0.293,0.707C142.916,168.373,142.668,168.475,142.408,168.5z M97.3,523.711c0.954,0.074,1.389,1.888,0,1.994
	c-2.263,0.059-4.527,0-6.792,0c-1.029-0.026-1.22-1.9-0.052-2C92.734,523.65,95.015,523.652,97.3,523.711z M519.738,523.711
	c1,0.076,1.209,1.9,0,1.994c-2.212,0.056-4.427,0-6.64,0c-1-0.026-1.4-1.893-0.051-2c2.227-0.053,4.455-0.051,6.686,0.006H519.738z
	 M507.099,525.711h-13.18c-1.068-0.038-1.289-1.951,0-2c4.417,0,8.837-0.156,13.251,0c1.045,0.114,1.089,1.955-0.076,1.996
	L507.099,525.711z M338.962,523.711l15.387-0.092c3.316-0.136,6.161-2.405,7.032-5.607v-0.009l0.033-0.137l0.006-0.025l0.027-0.123
	l0.008-0.036l0.023-0.119l0.007-0.039l0.026-0.156l-55.861-0.056c-0.18,0.118-0.413,0.118-0.593,0l-29.153-0.03l-0.965-0.74
	l-6.839-25.519c-0.007-0.092-0.011-0.179-0.009-0.263c-5.045-19.093-10.081-38.189-15.392-57.209
	c-0.12-0.472-0.329-0.918-0.614-1.313c-0.865-1.251-2.272-2.018-3.792-2.068c-35.861-0.378-71.725,0-107.589,0
	c-1.825,0.083-3.237,1.628-3.154,3.453c0.008,0.172,0.029,0.343,0.063,0.511c7.486,28.753,15.079,57.481,23.071,86.1
	c0.611,1.946,2.376,3.301,4.414,3.387c3.14,0.033,6.28,0.064,9.421,0.093L338.962,523.711z M363.59,516.401v0.012
	c0.09,1.955-0.558,3.873-1.815,5.373c-0.482,0.669-1.051,1.271-1.692,1.79l63.955-0.055l-60.448-7.128V516.401z M322.637,515.284
	h7.035c0.4-0.618,0.427-0.639,0.607-0.894c0.45-0.632,0.959-1.22,1.52-1.757c1.984-2.162,4.732-3.467,7.661-3.64
	c0.14,0,0.28,0,0.42,0c1.755,0.104,3.474,0.538,5.067,1.28c5.57,2.459,11.562,3.818,17.648,4l0.114,0.007
	c2.624,0.31,5.248,0.621,7.871,0.934l54.654,6.439c0.126-0.027,0.257-0.01,0.372,0.048l0.743,0.083
	c0.982,0.122,1.975,0.114,2.955-0.025c4.1-0.5,7.723-3.147,10.333-6.6c1.434-1.744,2.27-3.904,2.383-6.159l1.705-17.236h-81.138
	c-0.152-0.013-0.302-0.047-0.446-0.1c-0.328-0.149-0.657-0.296-0.986-0.44c-8.311-3.602-17.266-5.484-26.324-5.533
	c-4.513-0.006-9.027-0.006-13.541,0c-0.767,0-1.531,0.038-2.292,0.115c-0.787,0.086-1.561,0.2-2.319,0.335
	c-4.004,0.772-7.762,2.503-10.951,5.045l-0.117,0.1l-0.095,0.077l-0.079,0.066l-0.134,0.11l0,0l-0.051,0.018
	c-0.065,0.089-0.136,0.174-0.213,0.253c-4.534,4.781-7.165,10.983-8.816,17.594c-0.259,1.198,0.502,2.379,1.7,2.638
	c0.111,0.024,0.224,0.04,0.338,0.046c1.153-0.236,2.048-1.144,2.268-2.3c1.188-5.457,4.014-11.117,9.321-12.308
	c0.86-0.194,1.667,0.7,0.857,1.806c-3.14,4.415-3.956,10.34-4.059,16.006h4.672c0.052-1.443,0.267-2.876,0.642-4.271
	c0.939-3.912,2.363-7.692,4.238-11.251c0.18-0.364,0.569-0.577,0.973-0.533c0.875,0.112,1.072,0.882,0.3,2.442
	c-2.234,4.236-3.674,8.845-4.249,13.6h7.6c-0.044-1.305,0.075-2.609,0.352-3.885c0.793-4.002,2.183-7.863,4.124-11.452
	c0.152-0.462,0.605-0.757,1.089-0.707c1.472,0.216,0.1,2.629-0.684,4.408c-1.707,3.667-2.747,7.608-3.073,11.64L322.637,515.284z
	 M351.975,514.724c-3.055-0.855-6.056-1.894-8.986-3.11c-3.8-1.5-7.909,0.065-10.778,3.586l21.9,0.084
	c-0.193-0.042-0.386-0.086-0.579-0.13c-0.525-0.124-1.045-0.269-1.562-0.431L351.975,514.724z M302.35,491.764h-31.98l6.3,23.52
	h27.984c-0.028-5.032,0.988-10.016,2.985-14.635c-3.22,2.344-4.411,6.7-5.326,10.363c-0.524,1.909-2.607,3.68-4.411,3.048
	c-0.209-0.011-0.417-0.046-0.618-0.105c-2.264-0.565-3.508-3.059-2.847-5.634c1.563-5.959,3.912-11.921,7.908-16.558L302.35,491.764
	z M201.397,463.764c11.872,0.224,23.153,15.507,15.192,24.492c-2.009,2.166-4.846,3.372-7.8,3.316h-0.233
	c-6.872,0.011-14.9-4.946-17.5-12.486c-2.186-6.353,1.2-15.157,9.976-15.324h0.361L201.397,463.764z M201.062,465.764
	c-3.817,0.072-7.58,2.335-8.556,6.323c-1.975,8.077,6.6,17.7,15.339,17.748h0.234c1.188-0.016,2.367-0.218,3.492-0.6
	c2.601-0.885,4.587-3.011,5.292-5.666c2.14-8.233-6.515-17.718-15.587-17.808L201.062,465.764z M313.548,479.614h-14.927
	l-0.889,10.155h6.568l0.061-0.049c0.151-0.124,0.3-0.244,0.457-0.365c0.484-0.375,0.98-0.732,1.487-1.073h0.006l0,0l0.068-0.046
	l0.106-0.07c2.04-1.347,4.252-2.415,6.576-3.174h0.007L313.548,479.614z M444.805,479.614h-31.852l-0.889,10.153h31.848
	L444.805,479.614z M428.405,390.13h-31.382c-0.994,11.367-9.923,21.245-21.476,22.125h-0.026l0,0h-0.03l-0.2,0.013h-0.053H375.2
	l-0.189,0.01h-0.074h-0.022l-0.182,0.008h-0.088h-0.014h-0.194h-0.085l0,0h-0.291H373.5c-5.692-0.034-11.423-0.872-15.871-4.076
	c-0.073-0.053-0.146-0.105-0.217-0.159c-0.088-0.066-0.176-0.132-0.264-0.2h-0.007l-0.1-0.077l-0.142-0.112l-0.011-0.009
	l-0.016-0.012l-0.12-0.1l-0.1-0.084l-0.014-0.012l-0.026-0.021l-0.13-0.108l-0.077-0.065l-0.016-0.014l-0.037-0.031l-0.134-0.116
	l-0.057-0.049l-0.017-0.015l-0.048-0.042l-0.137-0.122l-0.039-0.035l-0.015-0.014l-0.061-0.056l-0.136-0.126l-0.024-0.022
	l-0.012-0.011l-0.077-0.071l-0.134-0.128l-0.011-0.01l-0.006-0.007c-1.694-1.634-3.109-3.535-4.188-5.627l-0.011-0.019l-0.012-0.024
	l-0.064-0.125l-0.05-0.1l-0.02-0.04l-0.028-0.057l-0.053-0.107l-0.033-0.069l-0.028-0.056l-0.047-0.1l-0.038-0.079l-0.018-0.04
	l-0.033-0.069l-0.076-0.166l-0.014-0.032l-0.006-0.013c-1.355-2.986-2.012-6.241-1.92-9.519l-25.429-0.036l-7.741,88.481l0,0
	l-0.507,5.8c0.45-0.1,0.45-0.1,0.911-0.2c5.921-1.155,12.547-0.551,19.029-0.517c9.442,0.084,18.767,2.1,27.4,5.926l0.32,0.143
	h47.268l0.982-11.24c-0.043-0.13-0.03-0.272,0.035-0.393l6.314-72.167c0.049-0.69,0.15-1.376,0.3-2.051
	c0.633-3.042,1.992-5.886,3.96-8.29c1.826-2.293,4.131-4.159,6.753-5.47L428.405,390.13z M419.388,406.161l-6.251,71.455h31.847
	l6.268-71.643c0.563-8.177-5.609-15.263-13.786-15.826c-0.089-0.006-0.177-0.011-0.266-0.016c-0.2,0-0.412,0-0.619,0
	c-8.874,0.41-16.15,7.178-17.2,16L419.388,406.161z M321.377,390.167l-0.139,0.01c-8.464,0.886-15.184,7.518-16.181,15.97
	l-6.257,71.374h14.922L321.377,390.167z M350.815,390.13c-0.008,0.2-0.012,0.389-0.013,0.583c0.019,0.771,0.072,1.716,0.195,2.719
	c1.429,8.998,8.736,15.907,17.8,16.83h0.037l0.212,0.016h0.028l0.236,0.014h0.048l0.182,0.009h0.076h0.165h0.07h0.231
	c0.255,0,0.51,0,0.763,0h0.763c3.506,0.14,7.007-0.391,10.314-1.565c7.252-3.07,12.248-9.856,13.027-17.693l0.016-0.184l0.065-0.747
	l-2.151-0.075c-0.349-0.183-0.581-0.531-0.617-0.923v-33.068v-0.02c-0.013-0.089-0.025-0.472,0.62-0.9l0.382-0.076
	c4.244,0,8.574,0.586,12.24-1.246c6.029-3.192,8.008-12.522,3-17.772c-1.668-1.731-3.841-2.889-6.208-3.309
	c-0.412-0.073-0.828-0.124-1.245-0.154c-0.221-0.015-0.443-0.023-0.665-0.025h-7.125l-0.406-0.087l-0.055-0.025
	c-0.342-0.095-0.667-0.244-0.962-0.443c-1.619-0.769-3.195-1.626-4.721-2.567c-10.933-6.672-19.833-17.338-23.968-28.352
	l-0.014-0.04l-0.069-0.188l-0.07-0.2l0,0l0,0c-4.5,4.632-10.256,7.848-16.559,9.253l-0.036,0.008l-0.3,0.065h-0.019l0,0
	c-1.98,0.43-3.996,0.675-6.021,0.731h-0.06h-0.033h-0.073h-0.125h-0.179h-0.107c-4.72,0.014-9.421,0.176-13.923-0.9
	c-4.731-1.139-9.155-3.302-12.96-6.337l-0.081-0.066c0,16.493-0.152,32.987,0,49.479c0.218,14.007,12.523,26.929,27.313,26.974
	h12.99c6.036,0,12.077-0.253,18.106,0c0.55,0.07,0.584,0.22,0.718,0.4c0.323,0.453,0.218,1.082-0.234,1.405
	c-0.165,0.118-0.363,0.183-0.566,0.187h-17.036v7.261c0,0,0.357,0.729-1,1L350.815,390.13z M238.457,331.815
	c5.8-0.028,11.606-0.024,17.407,0.086c3.496,0.203,6.285,2.992,6.488,6.488c0.347,18.216,0.347,36.436,0,54.659
	c-0.204,3.495-2.993,6.284-6.488,6.487c-26.522,0.505-53.049,0.505-79.58,0c-3.5-0.201-6.293-2.993-6.494-6.493
	c-0.416-22.389-0.416-44.781,0-67.176c0.204-3.495,2.993-6.284,6.488-6.487c8.883-0.167,17.769-0.058,26.654,0
	c2.395,0.107,4.564,1.449,5.727,3.546c7.755,0,15.511-0.048,23.266,0c3.593,0.166,6.456,3.063,6.578,6.658L238.457,331.815z
	 M214,333.9L214,333.9c-3.495-0.204-6.283-2.992-6.487-6.487c-0.057-2.983-1.68-5.979-4.6-6.034c-8.819-0.056-17.637,0-26.454,0
	c-2.516,0.086-4.545,2.086-4.667,4.6c-0.141,22.337-0.414,44.68,0,67.015c0.145,2.469,2.129,4.431,4.6,4.547
	c26.473,0.165,52.952,0.5,79.421,0c2.469-0.144,4.43-2.13,4.543-4.6c0.115-18.166,0.344-36.335,0-54.5
	c-0.144-2.469-2.13-4.429-4.6-4.542c-13.893-0.088-27.789,0.261-41.68,0L214,333.9L214,333.9z M82.581,352.875
	c-9.234-0.027-18.466,0-27.7,0.178c-2.471,0.141-4.435,2.128-4.548,4.6c-0.07,11.245-0.208,22.494,0,33.738
	c0.144,2.471,2.132,4.434,4.605,4.547c18.762,0.117,37.528,0.345,56.287,0c2.471-0.141,4.435-2.128,4.548-4.6V384l0.652-0.937
	l0.787,0.041l17.91,8.8v-34.81l-17.91,8.8l-1.129-0.172l-0.31-0.724c0-5.227,1.009-11.838-4.606-11.942
	c-9.233-0.058-18.466-0.144-27.7-0.174C83.184,353.007,82.862,353.005,82.581,352.875z M470.881,365.264
	c0,6.542,0.041,13.084,0.124,19.626c0.102,1.744,1.494,3.136,3.238,3.238c22.271,0.274,44.544,0.274,66.818,0
	c1.745-0.101,3.137-1.493,3.238-3.238c0.133-10.454,0.164-20.91,0.093-31.367l-37,17.716c-0.27,0.162-0.608,0.16-0.876-0.006
	l-35.6-17.684c-0.024,3.744-0.036,7.488-0.035,11.232c0.033,0.159,0.032,0.324-0.003,0.483H470.881z M77.062,364.035
	c0.149,0.006,0.296,0.027,0.44,0.065l19.006,9.5c0,0,1.015,1.018,0,1.786l-19.006,9.5l-1.132-0.168L76.057,384v-19.006l0.656-0.939
	c0.095-0.016,0.192-0.023,0.288-0.021L77.062,364.035z M78.055,366.61v15.774l15.773-7.884L78.055,366.61z M544.372,351.332
	c-0.02-2.431-0.045-4.862-0.076-7.293c-0.1-1.745-1.493-3.138-3.238-3.239c-22.241-0.278-44.486,0-66.729,0
	c-1.779,0.059-3.221,1.463-3.327,3.24c-0.03,2.429-0.054,4.859-0.073,7.288l36.033,17.9L544.372,351.332z M338.02,363.567
	c1.1,0.113,2.177,1.514,3.684,2.013c2.808,0.88,5.873,0.211,8.059-1.759c0.305-0.208,0.685-0.274,1.043-0.183
	c0.768,0.31,0.3,1.666,0.3,1.666c-0.081,0.074-0.162,0.145-0.243,0.217c-3.723,3.2-9.256,2.912-13.491-0.147
	c-0.455-0.303-0.577-0.917-0.275-1.371C337.301,363.698,337.656,363.53,338.02,363.567z M394.248,357.045v9.755
	c5.689-0.586,10.238-4.989,11.009-10.656c0,0,0.032-0.048-0.02-0.028c-1.524,0.597-3.143,0.913-4.78,0.932h-6.209V357.045z
	 M236.506,331.825c-0.018-3.312-1.27-6.842-4.606-6.9c-7.464-0.046-14.929,0-22.393,0c-0.09,1.913,0.424,3.807,1.469,5.412
	c0.729,0.928,1.822,1.497,3,1.561h0.14h10.454C228.546,331.88,232.526,331.847,236.506,331.825L236.506,331.825z M315.98,252.961
	c-1.508-0.008-3.006,0.246-4.427,0.752c-1.717,0.622-3.294,1.579-4.638,2.816c-2.622,2.387-4.268,5.659-4.621,9.187l-0.054,0.188
	l0,0c0,8.075-0.51,16.351,2.321,23.583c4.038,9.808,12.804,16.876,23.246,18.741c1.488,0.258,2.991,0.418,4.5,0.479
	c0.2,0.006,0.406,0.011,0.608,0.013c2.117,0.012,4.233,0,6.349,0h0.093c1.752-0.032,3.499-0.187,5.229-0.464
	c4.282-0.764,8.358-2.414,11.966-4.843l0.149-0.1l0.1-0.066c2.17-1.49,4.145-3.247,5.878-5.228l1.179-0.247
	c0.01-0.003,0.02-0.003,0.03,0c0.042,0.01,0.079,0.032,0.108,0.064c0.191,0.226,0.333,0.488,0.418,0.771
	c0.068,0.179,0.142,0.4,0.221,0.658c2.058,6.541,6.069,12.4,10.88,17.551c2.029,2.161,4.172,4.211,6.42,6.142l0.013,0.011
	l0.088,0.075c0.45,0.389,0.907,0.772,1.37,1.147c2.96,2.448,6.21,4.524,9.676,6.179l0.081,0.038l0.3,0.138
	c2.347,0,4.694-0.04,7.041,0h0.064h0.051h0.071h0.1c1.56,0.056,3.098,0.382,4.547,0.963l-0.046-37.709l-0.022-0.336l-0.013-0.154
	l-0.014-0.182l-0.019-0.2l-0.012-0.135l-0.024-0.224l-0.012-0.11l-0.027-0.237l-0.011-0.1l-0.032-0.243l-0.012-0.09l-0.035-0.24
	l-0.013-0.092l-0.036-0.23l-0.016-0.1l-0.037-0.217l-0.02-0.115l-0.035-0.195l-0.025-0.136l-0.033-0.17l-0.032-0.163l-0.029-0.138
	l-0.041-0.193l-0.022-0.1l-0.052-0.23l-0.014-0.061l-0.064-0.273v-0.015c-3.008-12.4-14.642-22.465-28.087-22.506h-45.21
	l-0.053-0.012c-1.091-0.265-1.053-2.244-1.451-3.606c-1.7-5.813-7.565-9.944-13.623-10.042L315.98,252.961z M189.346,273.186h19.162
	l0.923,0.617l0.076,0.382v39.845h27v-39.845c0.293-1.478,1-1,1-1h19.162l-33.661-39.273L189.346,273.186z M238.503,275.186v25.071
	h70.6c-0.173-0.187-0.345-0.376-0.515-0.565c-0.467-0.526-0.913-1.067-1.34-1.623l0,0l-0.009-0.011l-0.067-0.087l-0.018-0.023
	c-3.51-4.554-5.783-9.938-6.6-15.63c-0.026-0.187-0.051-0.371-0.074-0.552c-0.026-0.175-0.051-0.352-0.074-0.529
	c-0.143-0.874-0.199-1.76-0.167-2.645v-12.969l0.018-0.14c0.265-1.947,0.815-3.845,1.633-5.632c0.058-0.116,0.117-0.232,0.177-0.346
	c0.047-0.09,0.1-0.182,0.145-0.272c3.82-6.978,13.33-9.978,20.684-6.864l0.1,0.043l0.088,0.038l0.024,0.011l0.021,0.009l0.064,0.028
	l0.079,0.036l0.038,0.018l0.029,0.013l0.05,0.023l0.071,0.034l0.051,0.024l0.033,0.016l0.04,0.019l0.065,0.032l0.061,0.03
	l0.036,0.018l0.032,0.016l0.059,0.03l0.071,0.036l0.035,0.018l0.027,0.014l0.055,0.029l0.08,0.042l0.034,0.019l0.022,0.011
	l0.053,0.03l0.086,0.047l0.033,0.018l0.018,0.01l0.052,0.03l0.092,0.052l0.029,0.017l0.016,0.009l0.052,0.031l0.095,0.056
	l0.026,0.016l0.013,0.008l0.055,0.034l0.1,0.059l0.022,0.014l0.011,0.007l0.058,0.037l0.1,0.062l0.018,0.012l0.01,0.006l0.064,0.042
	l0.1,0.063l0.014,0.009l0.008,0.006l0.072,0.048l0.092,0.063l0.016,0.011l0.085,0.059l0.085,0.059l0.011,0.008l0.105,0.076
	l0.068,0.049l0,0l0.177,0.133c3.335,2.557,5.548,6.308,6.174,10.463c14.833,0,29.666-0.136,44.5,0h0.21
	c14.724,0.229,28.494,12.1,30.264,27.471c0.04,0.341,0.073,0.686,0.1,1.031l0.016,0.206l0.074,0.411v0.94
	c16.923-8.975,27.372-28.917,25.06-48.026c-2.749-22.746-23.5-41.945-47.462-42.021h-16.719l-0.951-0.695
	c0,0,0.314-3.565,0.436-6.681c1.232-31.572-16.735-62.933-44.885-77.795c-29.286-15.461-67.8-11.647-93.658,10.338
	c-13.558,11.581-23.132,27.13-27.369,44.45l-0.959,0.763c-1.753-0.369-4.207-1.681-6.606-2.332
	c-21.265-5.762-43.175,6.806-48.937,28.071c-1.393,5.141-1.742,10.509-1.027,15.787l-0.578,1.038
	c-1.238,0.268-4.337,0.165-6.81,0.528c-22.555,3.321-38.147,24.298-34.826,46.853c1.244,8.449,5.078,16.303,10.972,22.482
	c7.823,8.131,18.601,12.753,29.884,12.815h64.607v-25.071h-20.332l-0.072-0.015c-0.556-0.059-0.958-0.558-0.899-1.114
	c0.02-0.19,0.094-0.369,0.212-0.519l35.832-41.808c0.349-0.222,0.766-0.313,1.176-0.257l0.341,0.257l35.835,41.808
	c0.406,0.711,0.276,1.419-0.693,1.634h-0.006l-0.059,0.012L238.503,275.186z M489.239,247.929c0,12.505,0.08,25.009,0.239,37.513
	c0.102,1.763,1.508,3.169,3.271,3.271c13.561,0.171,27.123,0.171,40.688,0c1.763-0.102,3.169-1.508,3.27-3.271
	c0.32-25.381,0.32-50.764,0-76.148c-0.103-1.762-1.508-3.168-3.27-3.272c-13.53-0.172-27.063,0-40.594,0
	c-1.801,0.054-3.262,1.475-3.365,3.273c-0.157,12.518-0.236,25.037-0.239,37.558c0.184,0.334,0.184,0.739,0,1.073L489.239,247.929z
	 M513.163,278.929h0.035c0.998,0.064,1.926,0.534,2.569,1.3c1.509,1.659,1.929,4.5-0.211,6.036l0,0l-0.016,0.012l-0.035,0.025l0,0
	c-0.243,0.169-0.502,0.314-0.774,0.431h-0.006l0,0l-0.038,0.017c-0.71,0.29-1.494,0.34-2.235,0.144
	c-2.108-0.5-3.961-2.631-3.267-5.026l0,0v-0.015l0.009-0.032v-0.01c0.071-0.229,0.161-0.451,0.271-0.664
	c0.622-1.295,1.906-2.143,3.342-2.207h0.034h0.033h0.022c0.075,0,0.151-0.007,0.227-0.007L513.163,278.929z M513.41,285.04
	c1.8-0.414,2.119-4.146-0.371-4.114c-1.324,0.05-2.22,1.873-1.758,3.087c0.268,0.654,0.913,1.075,1.62,1.058l0.138,0.006
	c0.097,0.003,0.194-0.004,0.29-0.021L513.41,285.04z M534.04,214.974l0.616,0.922v59.56c-0.165,0.831-0.461,1.043-0.687,1.07h-0.037
	c-0.097,0.003-0.192-0.023-0.275-0.073h-41.128l-0.134-0.029c-1.315-0.309-0.865-0.97-0.865-0.97v-59.56l0.292-0.706
	c0.202-0.164,0.448-0.266,0.707-0.292h41.128L534.04,214.974z M532.658,216.895h-39.13v57.562h39.13V216.895z M280.833,121.683
	c20.138,0.322,38.344,17.667,38.41,38.884v10.347c2.399,0.724,4.231,2.669,4.811,5.106l0.012,0.05l0.005,0.026v0.023v0.028
	l0.011,0.05l0.011,0.061v0.019v0.011c0.027,0.15,0.049,0.3,0.064,0.458v0.027l0.007,0.071v0.052v0.021v0.019v0.04v0.074v0.041
	c0,0.05,0,0.1,0,0.152c0.109,17.574,0.322,35.153,0,52.724c-0.201,3.5-2.994,6.293-6.494,6.494
	c-11.667,0.219-23.339,0.335-35.017,0.349h-2.335c-12.451,0-24.901-0.117-37.352-0.35c-3.5-0.201-6.293-2.994-6.494-6.494
	c-0.324-17.6-0.324-35.202,0-52.807l0.006-0.132v-0.038c0.06-1.04,0.378-2.049,0.926-2.935c0.901-1.513,2.335-2.635,4.021-3.144
	c-0.023-7.247-0.34-14.478,1.558-21.212l0,0l0,0l0.087-0.3l0.007-0.024l0,0l0.021-0.071l0.074-0.245v-0.014v-0.006l0.046-0.152
	l0.054-0.174v-0.006c0.036-0.113,0.073-0.225,0.11-0.338c5.375-15.532,19.773-26.139,36.2-26.668
	c0.323-0.005,0.644-0.007,0.967-0.006L280.833,121.683z M256.319,172.661H243.17c-2.474,0.085-4.485,2.022-4.663,4.491l0,0v0.114
	c-0.11,17.551-0.322,35.105,0,52.652c0.141,2.471,2.128,4.435,4.6,4.548c14.754,0.092,29.51,0.239,44.265,0.245h2.328
	c9.319-0.006,18.637-0.072,27.954-0.246c2.471-0.141,4.434-2.128,4.547-4.6c0.109-17.55,0.322-35.1,0-52.651v-0.108v-0.023
	l-0.006-0.087v-0.024l-0.008-0.084v-0.027l-0.009-0.078v-0.038l-0.01-0.061l-0.009-0.06v-0.029
	c-0.461-1.873-1.905-3.346-3.768-3.844c-0.254-0.052-0.512-0.08-0.771-0.085h-13.21c-0.134,0.057-0.285,0.057-0.419,0h-47.166
	C256.669,172.761,256.473,172.759,256.319,172.661z M367.302,173.43c0.215-0.01,0.43-0.018,0.645-0.025s0.436-0.01,0.663-0.011
	c0.166,0,0.332,0,0.5,0c15.912,0.222,30.318,14.469,29.888,31.17c3.822,1.276,7.518,2.904,11.04,4.861
	c5.113,3.005,9.657,6.886,13.425,11.465l0.1,0.121c0.522-1.655,1.174-3.985,1.174-3.985c0.22-0.278,0.556-0.438,0.911-0.434
	l13.827,1.174c1.347-6.781,1.719-13.72,1.106-20.607l-13.891-0.46c0,0-0.659,0.846-1.243-2.65
	c-0.712-4.157-1.871-8.225-3.457-12.133c0,0-0.506-0.427,0.41-1.231l11.876-7.178c-2.899-6.276-6.676-12.108-11.217-17.321
	l-11.509,7.793c0,0-0.036,1.07-2.563-1.414c-3.02-2.944-6.349-5.554-9.929-7.784c0,0-0.66-0.047-0.393-1.236l5.39-12.787
	c-6.033-3.377-12.517-5.876-19.256-7.42l-4.73,13.069c0,0,0.6,0.888-2.9,0.364c-4.174-0.608-8.401-0.763-12.608-0.463
	c0,0-0.562,0.351-1.044-0.769l-3.157-13.513c-4.708,0.559-9.351,1.575-13.862,3.034c0,0,2.785,3.028,4.834,5.628
	c6.18,7.858,10.951,16.728,14.1,26.216c0.52,1.556,0.994,3.135,1.423,4.737c0.153,0.595,0.301,1.192,0.445,1.789H367.302z
	 M276.131,219.721c-0.014,0.003-0.028,0.005-0.042,0.006h-0.032c-0.144,0-0.479-0.072-0.847-0.624l-0.077-0.382V207.06
	c-0.504-0.273-0.978-0.598-1.414-0.971c-6.332-5.153-3.865-18.226,6.229-18.675l0.271-0.006h0.27l0.179,0.006
	c7.554,0.3,13.026,10.348,8.065,16.874c-0.857,1.125-1.931,2.068-3.158,2.773v11.662l-0.616,0.923l-0.383,0.076L276.131,219.721z
	 M283.577,206.462c0.176-0.948,1.264-1.244,1.921-1.742c5.422-4.114,3.389-15.155-5.034-15.315h-0.221
	c-7.3,0.139-11.761,12.06-3.66,16.166c0,0,0.4,0.081,0.547,0.891v11.261h6.447L283.577,206.462z M519.683,212.422H506.5
	c-1.069-0.038-1.289-1.952,0-2c4.417,0,8.837-0.156,13.251,0C520.786,210.537,520.925,212.377,519.683,212.422L519.683,212.422z
	 M397,204.264v-0.037c0.242-15.217-13.118-29.328-29.243-28.813c1.914,8.805,2.453,17.853,1.6,26.823l-0.039,0.4
	c5.417,0,10.834-0.048,16.251,0C389.432,202.706,393.271,203.253,397,204.264z M280.125,123.678
	c-19.02,0.176-36.6,16.444-36.663,36.892v10.088c3.95-0.073,7.901-0.127,11.852-0.163c-0.059-5.9-0.47-11.767,1.421-17.134
	c0.04-0.115,0.082-0.229,0.124-0.342l0.033-0.091c0.057-0.152,0.116-0.3,0.176-0.454l0,0l0,0l0.048-0.122l0.036-0.086v-0.011
	l0.021-0.05l0.057-0.141l0.009-0.02c3.959-9.122,12.844-15.125,22.784-15.393c0.163,0,0.325,0,0.488,0
	c1.495,0.015,2.984,0.175,4.448,0.478c1.664,0.275,3.292,0.735,4.853,1.372c9.117,3.862,15.181,12.646,15.56,22.54v0.168v0.116
	v0.067c0,0.1,0,0.193,0,0.289v8.9c3.953,0.029,7.906,0.056,11.857,0.081c0-7.192,0.372-14.378-1.661-21.035l-0.024-0.08l-0.075-0.24
	l-0.106-0.326c-5.098-14.733-18.755-24.796-34.337-25.3l-0.459-0.005L280.125,123.678z M301.734,153.086
	c-3.955-9.728-15.275-15.753-25.688-13.99c-9.956,2.149-17.442,10.394-18.624,20.51l-0.006,0.058l-0.019,0.213v0.063l-0.019,0.248
	l-0.007,0.09l-0.01,0.171l-0.006,0.1l-0.01,0.187v0.073l-0.009,0.25v0.083v0.191v0.081v0.263v8.8
	c15.357-0.125,30.716-0.021,46.074,0.09c0-5.01,0.391-10.03-0.749-14.674l-0.013-0.051l-0.033-0.131
	c-0.177-0.695-0.391-1.38-0.64-2.053l-0.04-0.1l-0.045-0.12l-0.049-0.124l-0.064-0.162L301.734,153.086z M141.409,70.824H59.81
	V166.5h81.6L141.409,70.824z M506.954,106.017h-12.041v42.424c-0.29,1.459-0.98,1.011-1,1h-32.785v14.139h45.826L506.954,106.017z
	 M482.044,89.881h-34.955v57.561h12.533c0.155-0.097,0.353-0.097,0.508,0h32.786v-44.585h-9.873c-1.479-0.3-1-1-1-1L482.044,89.881z
	 M67.67,145.979c-0.048,0.016-0.098,0.026-0.149,0.028H67.49c-0.236,0-0.642-0.137-0.819-1.028V79.1c0.083-0.418,1-1,1-1h65.88
	l0.382,0.076l0.617,0.923v65.88c-0.17,0.85-0.547,1.015-0.786,1.027h-0.033c-0.061,0.001-0.122-0.009-0.18-0.029L67.67,145.979z
	 M102.617,121.018l-1.194-0.031l-12.762-10.035l-19.992,11.013v22.016h63.882v-14.813L113.543,113.3L102.617,121.018z M132.551,80.1
	H68.669v39.586l19.607-10.8c0.136-0.054,0.278-0.088,0.424-0.1h0.066c0.214,0.018,0.422,0.082,0.61,0.187l12.7,9.983l10.946-7.732
	c0.38-0.124,0.791-0.115,1.165,0.024l0.052,0.025l18.316,15.293L132.551,80.1z M102.271,91.389c5.656,0.232,9.749,8.28,5.022,12.9
	c-1.228,1.155-2.85,1.798-4.536,1.8h-0.139c-4.272,0.029-8.848-3.29-8-8.416c0.68-3.622,3.831-6.255,7.516-6.283L102.271,91.389z
	 M101.971,93.383c-4.694,0.088-7.871,8.075-2.138,10.584c0.576,0.249,1.197,0.377,1.824,0.375h0.1
	c3.54-0.062,7.172-3.874,5.265-7.828c-0.938-1.884-2.846-3.09-4.95-3.13L101.971,93.383z M484.044,100.86h7.733l-7.733-9.23V100.86z
	"></path>
<path id="color_x5F_2" fill-rule="evenodd" clip-rule="evenodd" fill="#a4abff" d="M419.379,406.157l-6.251,71.455h31.847
	l6.268-71.643c0.561-8.177-5.612-15.261-13.79-15.823c-0.084-0.006-0.169-0.011-0.253-0.015c-0.2,0-0.412,0-0.619,0
	c-8.874,0.41-16.15,7.178-17.2,16L419.379,406.157z M321.368,390.163l-0.139,0.01c-8.464,0.886-15.184,7.518-16.181,15.97
	l-6.248,71.378h14.922L321.368,390.163z M82.581,352.875c-9.234-0.027-18.466,0-27.7,0.178c-2.471,0.141-4.435,2.128-4.548,4.6
	c-0.07,11.245-0.208,22.494,0,33.738c0.144,2.471,2.132,4.434,4.605,4.547c18.762,0.117,37.528,0.345,56.287,0
	c2.471-0.141,4.435-2.128,4.548-4.6V384l0.652-0.937l0.787,0.041l17.91,8.8v-34.81l-17.91,8.8l-1.129-0.172l-0.31-0.724
	c0-5.227,1.009-11.838-4.606-11.942c-9.233-0.058-18.466-0.144-27.7-0.174C83.184,353.007,82.862,353.005,82.581,352.875z
	 M77.062,364.035c0.149,0.006,0.296,0.027,0.44,0.065l19.006,9.5c0,0,1.015,1.018,0,1.786l-19.006,9.5l-1.132-0.168L76.057,384
	v-19.006l0.656-0.939c0.095-0.016,0.192-0.023,0.288-0.021L77.062,364.035z M489.239,247.926c0,12.505,0.08,25.009,0.239,37.513
	c0.102,1.763,1.508,3.169,3.271,3.271c13.561,0.171,27.123,0.171,40.688,0c1.763-0.102,3.169-1.508,3.27-3.271
	c0.32-25.381,0.32-50.764,0-76.148c-0.103-1.762-1.508-3.168-3.27-3.272c-13.53-0.172-27.063,0-40.594,0
	c-1.801,0.054-3.262,1.475-3.365,3.273c-0.157,12.518-0.236,25.037-0.239,37.558C489.424,247.185,489.424,247.591,489.239,247.926z
	 M513.163,278.926h0.035c0.998,0.064,1.926,0.534,2.569,1.3c1.509,1.659,1.929,4.5-0.211,6.036l0,0l-0.016,0.012l-0.035,0.025l0,0
	c-0.243,0.169-0.502,0.314-0.774,0.431h-0.006l0,0l-0.038,0.017c-0.71,0.29-1.494,0.34-2.235,0.144
	c-2.108-0.5-3.961-2.631-3.267-5.026l0,0v-0.015l0.009-0.032v-0.01c0.071-0.229,0.161-0.451,0.271-0.664
	c0.622-1.295,1.906-2.143,3.342-2.207h0.034h0.033h0.022c0.075,0,0.151-0.007,0.227-0.007L513.163,278.926z M534.04,214.971
	l0.616,0.922v59.56c-0.165,0.831-0.461,1.043-0.687,1.07h-0.037c-0.097,0.003-0.192-0.023-0.275-0.073h-41.128l-0.134-0.029
	c-1.315-0.309-0.865-0.97-0.865-0.97v-59.56l0.292-0.706c0.202-0.164,0.448-0.266,0.707-0.292h41.128L534.04,214.971z
	 M519.683,212.422c1.242-0.046,1.1-1.885,0.071-2c-4.414-0.158-8.834,0-13.251,0c-1.289,0.046-1.069,1.96,0,2H519.683z"></path>
<path id="color_x5F_1" fill-rule="evenodd" clip-rule="evenodd" fill="#9709e3" d="M363.585,516.4v0.012
	c0.09,1.955-0.558,3.873-1.815,5.373c-0.482,0.669-1.051,1.271-1.692,1.79l63.955-0.055l-60.448-7.128L363.585,516.4z
	 M351.97,514.723c-3.055-0.855-6.056-1.894-8.986-3.11c-3.8-1.5-7.909,0.065-10.778,3.586l21.9,0.084
	c-0.193-0.042-0.386-0.086-0.579-0.13C353.007,515.03,352.487,514.885,351.97,514.723z M428.396,390.123
	c-2.623,1.32-4.927,3.197-6.749,5.5c-1.968,2.404-3.327,5.248-3.96,8.29c-0.15,0.675-0.251,1.361-0.3,2.051l-6.314,72.167
	c-0.065,0.121-0.078,0.263-0.035,0.393l-0.982,11.24h-47.268l-0.32-0.143c-8.633-3.826-17.958-5.842-27.4-5.926
	c-6.482-0.034-13.108-0.638-19.029,0.517c-0.461,0.094-0.461,0.094-0.911,0.2l0.507-5.8l0,0l7.741-88.481l25.429,0.036
	c-0.092,3.278,0.565,6.533,1.92,9.519l0.006,0.013l0.014,0.032l0.076,0.166l0.033,0.069l0.018,0.04l0.038,0.079l0.047,0.1
	l0.028,0.056l0.033,0.069l0.053,0.107l0.028,0.057l0.02,0.04l0.05,0.1l0.064,0.125l0.012,0.024l0.011,0.019
	c1.079,2.092,2.494,3.993,4.188,5.627l0.006,0.007l0.011,0.01l0.134,0.128l0.077,0.071l0.012,0.011l0.024,0.022l0.136,0.126
	l0.061,0.056l0.015,0.014l0.039,0.035l0.137,0.122l0.048,0.042l0.017,0.015l0.057,0.049l0.134,0.116l0.037,0.031l0.016,0.014
	l0.077,0.065l0.13,0.108l0.026,0.021l0.014,0.012l0.1,0.084l0.12,0.1l0.016,0.012l0.011,0.009l0.142,0.112l0.1,0.077h0.007
	c0.088,0.068,0.176,0.134,0.264,0.2c0.071,0.054,0.144,0.106,0.217,0.159c4.448,3.2,10.179,4.042,15.871,4.076h0.559h0.291l0,0
	h0.085h0.194h0.014h0.088l0.182-0.008h0.022h0.074l0.189-0.01h0.028h0.053l0.2-0.013h0.03l0,0h0.026
	c11.553-0.88,20.481-10.758,21.476-22.125L428.396,390.123z M78.055,366.61v15.774l15.773-7.884L78.055,366.61z M236.506,331.825
	c-0.018-3.312-1.27-6.842-4.606-6.9c-7.464-0.046-14.929,0-22.393,0c-0.09,1.913,0.424,3.807,1.469,5.412
	c0.729,0.928,1.822,1.497,3,1.561h0.14h10.454C228.546,331.88,232.526,331.847,236.506,331.825L236.506,331.825z M258.839,275.183
	l0.059-0.012h0.006c0.969-0.215,1.1-0.923,0.693-1.634l-35.832-41.808l-0.341-0.257c-0.41-0.056-0.827,0.035-1.176,0.257
	l-35.832,41.808c-0.346,0.439-0.271,1.075,0.168,1.421c0.15,0.118,0.33,0.191,0.519,0.212l0.072,0.015h20.334v25.071H142.9
	c-22.817-0.011-41.305-18.516-41.295-41.333c0.002-3.807,0.53-7.595,1.569-11.257c4.644-15.493,17.73-26.971,33.696-29.556
	c2.473-0.363,5.572-0.26,6.81-0.528l0.578-1.038c-2.957-21.832,12.344-41.928,34.177-44.885c5.278-0.715,10.646-0.366,15.787,1.027
	c2.4,0.651,4.853,1.963,6.606,2.332l0.959-0.763c4.237-17.32,13.811-32.869,27.369-44.45c25.856-21.985,64.372-25.8,93.658-10.338
	c28.15,14.862,46.117,46.223,44.885,77.8c-0.122,3.116-0.436,6.681-0.436,6.681l0.951,0.695h16.718
	c23.96,0.076,44.713,19.275,47.462,42.021c2.312,19.109-8.137,39.051-25.06,48.026v-0.94l-0.074-0.411l-0.016-0.206
	c-0.027-0.345-0.06-0.69-0.1-1.031c-1.77-15.37-15.54-27.242-30.264-27.471h-0.21c-14.831-0.136-29.664,0-44.5,0
	c-0.623-4.157-2.835-7.911-6.17-10.47l-0.177-0.133l0,0l-0.068-0.049l-0.105-0.076l-0.011-0.008l-0.085-0.059l-0.085-0.059
	l-0.016-0.011l-0.092-0.063l-0.072-0.048l-0.008-0.006l-0.014-0.009l-0.1-0.063l-0.064-0.042l-0.01-0.006l-0.018-0.012l-0.1-0.062
	l-0.058-0.037l-0.011-0.007l-0.022-0.014l-0.1-0.059l-0.055-0.034l-0.013-0.008l-0.026-0.016l-0.095-0.056l-0.052-0.031
	l-0.016-0.009l-0.029-0.017l-0.092-0.052l-0.052-0.03l-0.018-0.01l-0.033-0.018l-0.086-0.047l-0.053-0.03l-0.022-0.011l-0.034-0.019
	l-0.08-0.042l-0.055-0.029l-0.027-0.014l-0.035-0.018l-0.071-0.036l-0.059-0.03l-0.032-0.016l-0.036-0.018l-0.061-0.03l-0.065-0.032
	l-0.04-0.019l-0.033-0.016l-0.051-0.024l-0.071-0.034l-0.05-0.023l-0.029-0.013l-0.038-0.018l-0.079-0.036l-0.064-0.028
	l-0.021-0.009l-0.024-0.011l-0.088-0.038l-0.1-0.043c-7.354-3.114-16.864-0.114-20.684,6.864c-0.049,0.09-0.1,0.182-0.145,0.272
	c-0.06,0.114-0.119,0.23-0.177,0.346c-0.818,1.787-1.368,3.685-1.633,5.632l-0.018,0.14v12.963
	c-0.032,0.885,0.024,1.771,0.167,2.645c0.023,0.177,0.048,0.354,0.074,0.529s0.048,0.365,0.074,0.552
	c0.817,5.692,3.09,11.076,6.6,15.63l0.018,0.023l0.067,0.087l0.011,0.014c0.428,0.557,0.875,1.098,1.34,1.623
	c0.17,0.189,0.342,0.378,0.515,0.565H238.5v-25.075L258.839,275.183z M513.41,285.037c1.8-0.414,2.119-4.146-0.371-4.114
	c-1.324,0.05-2.22,1.873-1.758,3.087c0.268,0.654,0.913,1.075,1.62,1.058l0.138,0.006c0.097,0.003,0.194-0.004,0.29-0.021
	L513.41,285.037z M532.658,216.892v57.562h-39.13v-57.562H532.658z M280.833,121.683c20.138,0.322,38.344,17.667,38.41,38.884
	v10.347c2.399,0.724,4.231,2.669,4.811,5.106l0.012,0.05l0.005,0.026v0.023v0.028l0.011,0.05l0.011,0.061v0.019v0.011
	c0.027,0.15,0.049,0.3,0.064,0.458v0.027l0.007,0.071v0.052v0.021v0.019v0.04v0.074v0.041c0,0.05,0,0.1,0,0.152
	c0.109,17.574,0.322,35.153,0,52.724c-0.201,3.5-2.994,6.293-6.494,6.494c-11.667,0.219-23.339,0.335-35.017,0.349h-2.335
	c-12.451,0-24.901-0.117-37.352-0.35c-3.5-0.201-6.293-2.994-6.494-6.494c-0.324-17.6-0.324-35.202,0-52.807l0.006-0.132v-0.038
	c0.06-1.04,0.378-2.049,0.926-2.935c0.901-1.513,2.335-2.635,4.021-3.144c-0.023-7.247-0.34-14.478,1.558-21.212l0,0l0,0l0.087-0.3
	l0.007-0.024l0,0l0.021-0.071l0.074-0.245v-0.014v-0.006l0.046-0.152l0.054-0.174v-0.006c0.036-0.113,0.073-0.225,0.11-0.338
	c5.375-15.532,19.773-26.139,36.2-26.668c0.323-0.005,0.644-0.007,0.967-0.006L280.833,121.683z M301.733,153.083
	c-3.955-9.728-15.275-15.753-25.688-13.99c-9.956,2.149-17.442,10.394-18.624,20.51l-0.006,0.058l-0.019,0.213v0.063l-0.019,0.248
	l-0.007,0.09l-0.01,0.171l-0.006,0.1l-0.01,0.187v0.073l-0.009,0.25v0.083v0.191v0.081v0.263v8.8
	c15.357-0.125,30.716-0.021,46.074,0.09c0-5.01,0.391-10.03-0.749-14.674l-0.013-0.051l-0.033-0.131
	c-0.177-0.695-0.391-1.38-0.64-2.053l-0.04-0.1l-0.045-0.12l-0.049-0.124l-0.064-0.162L301.733,153.083z M132.551,80.1v46.467
	l-18.316-15.293l-0.052-0.025c-0.374-0.139-0.785-0.148-1.165-0.024l-10.946,7.732l-12.7-9.983c-0.188-0.105-0.396-0.169-0.61-0.187
	H88.7c-0.146,0.012-0.288,0.046-0.424,0.1l-19.607,10.8V80.1H132.551z M102.271,91.389c5.656,0.232,9.749,8.28,5.022,12.9
	c-1.228,1.155-2.85,1.798-4.536,1.8h-0.139c-4.272,0.029-8.848-3.29-8-8.416c0.68-3.622,3.831-6.255,7.516-6.283L102.271,91.389z"></path>
</svg>