<?xml version="1.0" standalone="no"?>
<svg version="1.1" id="Layer_1" xmlns="http://www.w3.org/2000/svg" xmlns:xlink="http://www.w3.org/1999/xlink" x="0px" y="0px" viewBox="0 0 595.28 595.28" enable-background="new 0 0 595.28 595.28" xml:space="preserve">
<path id="color_x5F_13" fill="#ffcdd4" d="M168.345,281.231c1.318,0,2.387,1.795,2.387,4.01c0,2.214-1.069,4.01-2.387,4.01
	s-2.387-1.795-2.387-4.01C165.959,283.027,167.027,281.231,168.345,281.231z M157.898,286.579c0,2.214,1.069,4.01,2.387,4.01
	c1.318,0,2.387-1.795,2.387-4.01s-1.069-4.01-2.387-4.01C158.967,282.57,157.898,284.365,157.898,286.579z"></path>
<path id="color_x5F_12" fill="#0ec901" d="M167.228,281.231c0.193,0,0.379,0.043,0.559,0.115c-1.048,0.423-1.828,2.004-1.828,3.894
	c0,1.891,0.78,3.471,1.828,3.894c-0.18,0.073-0.366,0.115-0.559,0.115c-1.144,0-2.098-1.352-2.331-3.156l-2.139,0.435l-0.172-0.848
	l2.256-0.459C164.847,283.017,165.913,281.231,167.228,281.231z M150.816,283.154l5.976,3.785c0.108,2.046,1.13,3.65,2.376,3.65
	c0.193,0,0.379-0.043,0.559-0.115c-1.048-0.423-1.828-2.004-1.828-3.894c0-1.89,0.78-3.471,1.828-3.894
	c-0.18-0.072-0.366-0.115-0.559-0.115c-1.186,0-2.167,1.455-2.353,3.36l-5.536-3.506L150.816,283.154z"></path>
<path id="color_x5F_11" fill="#27b572" d="M227.955,256.762c-4.484,0-8.119,3.635-8.119,8.119c0,4.484,3.635,8.119,8.119,8.119
	c4.484,0,8.119-3.635,8.119-8.119C236.074,260.397,232.439,256.762,227.955,256.762z M227.955,271.866
	c-3.858,0-6.986-3.128-6.986-6.986c0-3.858,3.128-6.986,6.986-6.986c3.858,0,6.986,3.128,6.986,6.986
	C234.94,268.738,231.813,271.866,227.955,271.866z M239.415,257.166l3.373-4.519l-3.562-3.377l-4.263,3.682
	c-1.211-0.717-2.54-1.252-3.953-1.572l-0.661-5.601h-4.909l-0.561,5.605c-1.412,0.322-2.742,0.859-3.952,1.578l-4.288-3.726
	l-3.572,3.367l3.407,4.592c-0.893,1.343-1.554,2.852-1.932,4.47l-5.608,0.53l-0.026,4.908l5.597,0.691
	c0.372,1.686,1.051,3.256,1.979,4.648l-3.449,4.453l3.562,3.377l4.333-3.609c1.21,0.719,2.539,1.256,3.951,1.578l0.561,5.605h4.909
	l0.661-5.601c1.385-0.314,2.69-0.835,3.882-1.531l4.286,3.592l3.572-3.367l-3.388-4.4c0.934-1.376,1.621-2.93,2.009-4.6l5.605-0.631
	l0.027-4.909l-5.602-0.591C241.025,260.126,240.345,258.557,239.415,257.166z M227.955,274.773c-5.501,0-9.96-4.459-9.96-9.96
	s4.459-9.96,9.96-9.96c5.501,0,9.96,4.459,9.96,9.96S233.455,274.773,227.955,274.773z M294.772,351.34
	c-2.377-6.568-8.743-11.189-16.11-11.007c-9.218,0.228-16.506,7.885-16.279,17.103c0.228,9.218,7.885,16.506,17.103,16.279
	c6.345-0.157,11.776-3.834,14.47-9.117c-0.005,5.349,0.417,9.865,1.088,12.962c0.192,0.885,0.394,1.778,0.606,2.676l-4.459-3.553
	c-1.968,1.216-4.134,2.144-6.441,2.727l-0.876,9.414l-8.226,0.203l-1.171-9.371c-2.379-0.481-4.629-1.326-6.686-2.48l-7.112,6.228
	l-6.109-5.512l5.596-7.605c-1.612-2.294-2.815-4.897-3.509-7.707l-9.408-0.927l-0.159-8.227l9.377-1.121
	c0.567-2.728,1.613-5.283,3.054-7.571l-5.9-7.555l5.847-5.79l7.34,6.066c1.998-1.255,4.204-2.21,6.557-2.809l0.707-9.417
	l8.226-0.203l1.339,9.359c2.38,0.478,4.631,1.32,6.689,2.471l6.992-6.347l1.568,1.415
	C296.837,338.438,295.522,345.092,294.772,351.34z M278.74,343.53c-7.514,0.185-13.456,6.428-13.27,13.942
	c0.186,7.514,6.428,13.455,13.942,13.27c7.514-0.186,13.456-6.427,13.27-13.942C292.497,349.286,286.255,343.345,278.74,343.53z
	 M279.365,368.843c-6.465,0.16-11.836-4.952-11.996-11.418c-0.16-6.465,4.952-11.836,11.418-11.996
	c6.466-0.16,11.836,4.952,11.996,11.418C290.943,363.313,285.831,368.683,279.365,368.843z M329.398,416.476v37.558h-2.957v-38.492
	C327.435,415.876,328.423,416.191,329.398,416.476z"></path>
<rect id="color_x5F_10" x="242.75" y="454.034" fill="#788f9c" width="145.318" height="8.736"></rect>
<path id="color_x5F_9" fill="#673280" d="M153.753,328.515h41.54v28.847h-28.725h-12.815h-1.609l-0.908-2.213
	c1.525,0.954,4.798,2.568,5.746,2.144c1.131-0.506,4.564-0.78,5.471-0.959c0.907-0.179,2.601-1.164,2.063-1.886
	c-0.538-0.722-2.951-1.716-3.551-1.798c-0.6-0.082-4.85-2.456-4.85-2.456s0.334-0.257,1.09-0.195
	c0.756,0.062,1.882,0.486,2.548-0.022c0.666-0.508,1.79-1.922,1.489-2.366c-0.3-0.444-1.135,0.198-2.461,0.139
	c-1.326-0.059-3.101-1.045-4.897-1.386c-1.796-0.341-3.525,0.915-3.525,0.915l-2.965-1.501l-1.164-2.84h7.523V328.515z
	 M423.41,303.234c0.05,0.389,0.046,0.949,0.297,1.614c0.417,1.105,1.742,2.333,2.527,3.758c0.397,0.721,0.617,1.548,0.737,2.191
	l16.283,13.441l2.27-2.75L423.41,303.234z M430.752,266.047l-3.676,0.068l-8.661,37.486c0.113,0.137,0.211,0.262,0.295,0.377
	l3.569,2.946c-0.015-0.043-0.019-0.076-0.039-0.121c-0.262-0.622-0.932-1.457-0.686-2.161c0.204-0.583,0.844-1.594,1.319-1.851
	l-0.512-0.423L430.752,266.047z"></path>
<path id="color_x5F_8" fill="#ffd2d2" d="M267.482,393.92c0,1.114-0.903,2.017-2.016,2.017c-1.114,0-2.016-0.903-2.016-2.017
	c0-1.114,0.903-2.016,2.016-2.016C266.579,391.904,267.482,392.807,267.482,393.92z M247.681,316.963l7.601,0.802l-0.036,6.66
	l-7.604,0.856c-0.526,2.265-1.459,4.374-2.726,6.241l4.596,5.97l-4.847,4.568l-5.815-4.874c-1.617,0.945-3.388,1.652-5.266,2.078
	l-0.897,7.599h-6.66l-0.761-7.606c-1.915-0.437-3.719-1.165-5.36-2.141l-5.879,4.897l-4.833-4.582l4.68-6.042
	c-1.259-1.888-2.18-4.019-2.685-6.306l-7.594-0.938l0.036-6.66l7.609-0.72c0.513-2.196,1.411-4.243,2.622-6.065l-4.623-6.231
	l4.847-4.568l5.818,5.055c1.642-0.976,3.446-1.704,5.362-2.141l0.761-7.606h6.66l0.897,7.599c1.916,0.434,3.72,1.16,5.363,2.133
	l5.784-4.996l4.833,4.582l-4.577,6.131C246.249,312.547,247.173,314.676,247.681,316.963z M242.952,321.036
	c0-7.463-6.05-13.513-13.513-13.513s-13.513,6.05-13.513,13.513c0,7.463,6.05,13.513,13.513,13.513S242.952,328.499,242.952,321.036
	z M229.439,314.491c-3.665,0-6.636,2.971-6.636,6.636c0,3.665,2.971,6.636,6.636,6.636c3.665,0,6.636-2.971,6.636-6.636
	C236.075,317.462,233.103,314.491,229.439,314.491z M409.985,351.838c-0.577-5.192-18.076-21.922-21.833-28.652
	c-3.757-6.73-0.089-11.922-0.089-11.922c3.077-86.918-74.995-83.072-74.995-83.072s8.076,64.035-5.769,85.379
	c-1.752,2.701-3.284,5.565-4.64,8.52h21.987v-11.98h14.972v-14.124h13.427c0.378-1.001,1.338-1.717,2.472-1.717
	c1.464,0,2.65,1.187,2.65,2.65c0,1.464-1.186,2.65-2.65,2.65c-1.184,0-2.174-0.781-2.514-1.853h-11.654v12.393h26.706
	c0.345-1.063,1.332-1.837,2.51-1.837c1.464,0,2.65,1.186,2.65,2.65c0,1.464-1.186,2.65-2.65,2.65c-1.139,0-2.103-0.723-2.477-1.732
	h-41.711v11.98h-24.495c-1.467,3.419-2.698,6.949-3.714,10.502h51.316c0.36-1.036,1.335-1.785,2.494-1.785
	c1.464,0,2.65,1.186,2.65,2.65c0,1.464-1.186,2.65-2.65,2.65c-1.159,0-2.133-0.749-2.494-1.785h-51.781
	c-0.969,3.63-1.739,7.268-2.306,10.821h30.706v34.121h14.752v-17.061h19.686c0.36-1.036,1.335-1.785,2.493-1.785
	c1.464,0,2.65,1.186,2.65,2.65c0,1.464-1.186,2.65-2.65,2.65c-1.159,0-2.134-0.749-2.494-1.785h-17.955v15.33h34.156
	c0.375-1.009,1.338-1.731,2.477-1.731c1.464,0,2.65,1.187,2.65,2.65c0,1.464-1.186,2.65-2.65,2.65c-1.179,0-2.166-0.775-2.51-1.838
	h-52.336v-34.121h-29.235c-1.749,12.141-1.365,23.082-0.093,28.953c2.456,11.335,6.353,24.009,18.887,32.109v44.365h2.957v-42.61
	c12.439,6.803,25.617,7.308,32.139,10.025c6.923,2.884,8.653,4.615,16.153,6.73c7.499,2.115,16.73,0.385,19.614-6.153
	c2.884-6.538,1.538-17.307,2.5-20.191c0.961-2.884,8.076-5.961,8.269-8.269c0.192-2.308-3.461-5.769-3.461-5.769
	s4.807-3.654,5.192-6.923c0.385-3.269-3.654-5.384-3.654-5.384s0.385-6.346,0.577-6.923
	C394.409,367.991,410.562,357.03,409.985,351.838z M302.121,323.272c0.174-0.396,0.357-0.788,0.538-1.181h-0.015
	C302.464,322.482,302.293,322.877,302.121,323.272z M301.878,323.822h0.003c0.013-0.031,0.025-0.062,0.038-0.093
	C301.906,323.76,301.891,323.79,301.878,323.822z M271.009,392.655l2.31,0.244l-0.011,2.024l-2.311,0.26
	c-0.16,0.688-0.443,1.329-0.828,1.896l1.397,1.814l-1.473,1.388l-1.767-1.481c-0.491,0.287-1.029,0.502-1.6,0.631l-0.272,2.309
	h-2.024l-0.231-2.311c-0.582-0.133-1.13-0.354-1.629-0.65l-1.786,1.488l-1.469-1.392l1.422-1.836
	c-0.382-0.574-0.662-1.221-0.816-1.916l-2.307-0.285l0.011-2.024l2.312-0.219c0.156-0.667,0.429-1.289,0.797-1.843l-1.405-1.893
	l1.473-1.388l1.768,1.536c0.499-0.296,1.047-0.518,1.629-0.651l0.231-2.311h2.024l0.272,2.309c0.582,0.132,1.131,0.353,1.63,0.648
	l1.758-1.518l1.469,1.392l-1.391,1.863C270.574,391.313,270.855,391.96,271.009,392.655z M269.572,393.893
	c0-2.268-1.838-4.106-4.106-4.106s-4.106,1.838-4.106,4.106s1.838,4.106,4.106,4.106S269.572,396.161,269.572,393.893z
	 M297.686,336.055h0.016c0.154-0.577,0.3-1.154,0.465-1.73C298.001,334.901,297.84,335.477,297.686,336.055z M96.362,428.803
	c5.692,3.971,10.288,1.648,11.376,0.985c-2.847-4.592-9.621-10.479-9.621-10.479c4.222,2.278,8.094,6.874,10.058,9.457
	c1.948-9.86-7.031-11.381-10.297-13.247c-2.793-1.596-3.83-4.934-3.83-4.934S89.5,424.016,96.362,428.803z M109.853,419.078
	l0.471-16.684l0.546,16.787c1.995-0.496,8.226-2.72,9.029-11.282c0.957-10.213-10.133-18.112-10.133-18.112s1.993,3.921-2.314,9.096
	C102.21,405.18,103.131,415.156,109.853,419.078z M118.995,424.84c-3.722,1.789-5.355,5.903-5.985,8.11
	c5.055-3.632,10.241-2.791,10.241-2.791c-5.325,0.41-8.519,2.584-10.282,4.377c1.068,0.407,4.979,1.664,10.402,0.649
	c9.139-1.71,8.923-13.271,8.923-13.271C129.314,425.691,124.527,422.18,118.995,424.84z M99.167,479.548h21.064l8.936-32.553H90.869
	L99.167,479.548z"></path>
<path id="color_x5F_7" fill="#5a6670" d="M302.643,322.091h22.002v-11.98h14.972v-14.124h13.427
	c0.378-1.001,1.338-1.717,2.472-1.717c1.464,0,2.65,1.187,2.65,2.65s-1.186,2.65-2.65,2.65c-1.184,0-2.174-0.781-2.514-1.852
	h-11.654v12.393h26.706c0.345-1.063,1.332-1.837,2.51-1.837c1.464,0,2.65,1.186,2.65,2.65c0,1.464-1.186,2.65-2.65,2.65
	c-1.139,0-2.103-0.723-2.477-1.732h-41.711v11.98h-24.498C302.127,323.242,302.38,322.664,302.643,322.091z M302.488,454.034h2.957
	v-51.902c-1.094-1.331-2.073-2.714-2.955-4.133h-0.003V454.034z M351.976,337.839c1.464,0,2.65-1.186,2.65-2.65
	c0-1.464-1.186-2.65-2.65-2.65c-1.159,0-2.133,0.749-2.494,1.785h-51.316c-0.165,0.577-0.327,1.153-0.481,1.731h51.796
	C349.842,337.091,350.817,337.839,351.976,337.839z M342.584,365.667h17.955c0.36,1.036,1.335,1.785,2.494,1.785
	c1.464,0,2.65-1.186,2.65-2.65c0-1.464-1.186-2.65-2.65-2.65c-1.159,0-2.133,0.748-2.493,1.785h-19.686v17.061h-14.752v-34.121
	h-30.706c-0.093,0.58-0.177,1.156-0.259,1.731h29.235v34.121h52.336c0.344,1.064,1.331,1.838,2.51,1.838
	c1.464,0,2.65-1.186,2.65-2.65s-1.186-2.65-2.65-2.65c-1.139,0-2.102,0.723-2.477,1.731h-34.156V365.667z M264.159,297.443
	l-8.34,10.767l8.613,8.166l10.476-8.728c2.925,1.738,6.139,3.036,9.553,3.815l1.355,13.554h11.869l1.598-13.543
	c3.348-0.759,6.504-2.019,9.385-3.703l1.13,0.947c2.409-5.807,3.871-13.303,4.694-21.385c-3.393,9.189-12.229,15.742-22.597,15.742
	c-13.3,0-24.083-10.782-24.083-24.083c0-13.301,10.782-24.083,24.083-24.083c11.397,0,20.938,7.919,23.437,18.553
	c0.253-10.081-0.161-20.105-0.702-28.151l-5.79,5c-2.927-1.733-6.143-3.028-9.558-3.801l-1.598-13.543h-11.869l-1.355,13.554
	c-3.414,0.779-6.629,2.078-9.555,3.816l-10.369-9.009l-8.637,8.14l8.239,11.105c-2.159,3.247-3.758,6.895-4.673,10.808
	l-13.561,1.282l-0.064,11.869l13.533,1.671C260.274,290.281,261.916,294.078,264.159,297.443z M381.045,462.77H249.068
	l-7.775,16.778h148.232L381.045,462.77z M280.069,279.154c0,6.532,5.295,11.826,11.826,11.826c6.532,0,11.826-5.295,11.826-11.826
	c0-6.531-5.295-11.826-11.826-11.826C285.364,267.328,280.069,272.623,280.069,279.154z M238.068,373.956l2.334,3.032l-2.461,2.32
	l-2.953-2.475c-0.821,0.48-1.72,0.839-2.675,1.055l-0.455,3.859h-3.382l-0.386-3.863c-0.973-0.222-1.889-0.592-2.722-1.087
	l-2.986,2.487l-2.454-2.327l2.377-3.068c-0.639-0.959-1.107-2.041-1.364-3.203l-3.857-0.476l0.018-3.382l3.865-0.365
	c0.261-1.115,0.716-2.155,1.332-3.08l-2.348-3.164l2.461-2.32l2.955,2.567c0.834-0.495,1.75-0.866,2.723-1.088l0.386-3.863h3.382
	l0.455,3.86c0.973,0.22,1.889,0.589,2.724,1.083l2.938-2.537l2.454,2.327l-2.324,3.113c0.641,0.958,1.11,2.04,1.368,3.201
	l3.86,0.407l-0.018,3.382l-3.862,0.435C239.186,371.937,238.712,373.008,238.068,373.956z M237.071,368.631
	c0-3.79-3.073-6.863-6.863-6.863c-3.79,0-6.863,3.073-6.863,6.863c0,3.79,3.073,6.863,6.863,6.863
	C233.998,375.494,237.071,372.421,237.071,368.631z M235.802,368.677c0,3.09-2.505,5.594-5.594,5.594
	c-3.09,0-5.595-2.505-5.595-5.594c0-3.09,2.505-5.594,5.595-5.594C233.298,363.083,235.802,365.588,235.802,368.677z
	 M235.022,368.677c0-2.658-2.155-4.814-4.813-4.814c-2.659,0-4.814,2.155-4.814,4.814c0,2.659,2.155,4.814,4.814,4.814
	C232.866,373.491,235.022,371.336,235.022,368.677z M111.362,434.308l-1.037-31.915l-0.798,28.245c0,0-5.346-8.059-11.41-11.33
	c0,0,9.734,8.457,10.771,13.005l-0.07,14.681h2.304v-9.973c0,0,2.793-6.144,12.128-6.862
	C123.25,430.159,116.867,429.122,111.362,434.308z"></path>
<path id="color_x5F_6" fill="#acff9b" d="M460.625,466.622l1.282,4.368h-0.697h-0.615v2.377c0,0-10.683,4.055-11.466,4.419
	c-0.513,0.238-0.569,0.915-0.547,1.357h-58.419h-0.842l-8.276-16.374h7.023v-8.736h-13.221c-0.373-1.143-0.437-2.368,0.723-2.838
	c2.402-0.973,4.89,2.399,4.89,2.399s-0.429-5.382,1.973-6.16c2.402-0.778,4.289,2.788,4.289,2.788s1.544-8.689,3.946-9.402
	c2.402-0.713,4.546,3.112,4.546,3.112s10.465-15.562,18.872-13.877s0.172,18.416,0.172,18.416s2.23-2.594,5.147-2.205
	s1.011,4.409,1.011,4.409s4.136-3.696,7.052-3.502c2.916,0.195,0.515,4.539,0.515,4.539s1.287-1.102,4.632,0
	c3.345,1.102,0.686,7.781,0.686,7.781s3.946-5.317,7.549-4.474c3.603,0.843,0.601,6.29,0.601,6.29s6.005-3.955,8.578-3.242
	c2.573,0.713,1.287,6.16,1.287,6.16s1.71-3.755,5.471-3.966l1.954,6.359H460.625z M506.728,477.717
	c-5.061-0.648-6.262-0.584-8.578-1.556c-1.715-0.72-3.29-2.147-5.28-2.894v5.877h26.982
	C519.852,479.143,511.789,478.365,506.728,477.717z M483.052,468.768c-3.689-0.519-5.49,1.686-5.49,1.686s1.458-5.641-1.029-6.42
	c-2.488-0.778-5.061,2.594-5.061,2.594s0.772-6.614-3.345-7.263c-0.829-0.131-1.6,0.096-2.306,0.526l0.926,6.731h-1.496l0.446,4.368
	h1.611v8.153h6.839c-0.022-0.442,0.034-1.119,0.547-1.357c0.783-0.364,11.466-4.419,11.466-4.419v-2.07
	C485.664,470.143,484.753,469.007,483.052,468.768z M288.683,454.034c-0.296-3.074-1.575-7.161-6.249-7.577
	c-7.578-0.674-10.996,6.852-10.996,6.852s2.229-9.435-2.229-10.671s-14.859,5.616-14.859,5.616s5.201-9.435-1.04-10.895
	c-6.241-1.46-13.076,7.75-13.076,7.75s4.606-11.569-1.189-13.479c-5.795-1.909-8.024,0-8.024,0s4.161-7.526-0.892-7.863
	c-5.052-0.337-12.216,6.065-12.216,6.065s3.301-6.964-1.751-7.638c-5.052-0.674-8.915,3.819-8.915,3.819s14.265-28.98-0.297-31.9
	c-14.562-2.92-32.69,24.037-32.69,24.037s-0.241-0.428-0.665-1.044l-5.493,53.042h-1.625l-0.469,4.624h0.183h0.343v1.326
	c0,0,5.959,2.262,6.396,2.465c0.222,0.103,0.29,0.355,0.304,0.578h68.246l7.587-16.374h-6.318v-8.736H288.683z M147.776,470.15
	l-3.543-39.102c-1.244-0.602-2.629-0.871-4.001-0.316c-4.161,1.685,0.743,8.986,0.743,8.986s-6.835-3.482-10.55-1.91
	c-3.715,1.573,3.715,12.131,3.715,12.131s-3.324-2.438-5.452-1.2l-1.488,5.419c0.551,2.904,2.333,5.441,2.333,5.441
	s-1.47-0.876-3.363-1.689l-5.829,21.233h29.395v-4.369h0.261l-0.469-4.624H147.776z M305.445,454.034h0.971
	c-0.084-1.503-0.341-3.272-0.971-4.869V454.034z M160.601,470.15l-0.93-41.745c-0.08,0.408-0.122,0.642-0.122,0.642
	s-1.231-2.316-3.139-3.802l-1.133,44.905h-1.854l-0.469,4.624h0.183h0.343v1.326c0,0,5.959,2.262,6.396,2.465
	c0.223,0.103,0.29,0.355,0.304,0.578h2.609v-4.369h0.261l-0.469-4.624H160.601z M313.93,454.034v-1.244
	c-1.357-0.041-2.682,0.502-3.839,1.244H313.93z M290.137,454.034h12.351v-8.475c-0.566-0.311-1.191-0.559-1.926-0.675
	C295.771,444.13,292.062,450.056,290.137,454.034z M95.507,471.168c0,0-2.675-3.707-7.578-2.583
	c-4.904,1.123-5.944,10.558-5.944,10.558h17.079l-3.39-13.3C94.286,468.028,95.507,471.168,95.507,471.168z"></path>
<path id="color_x5F_5" fill="#ffd2bb" d="M162.583,470.15h3.894l-0.469,4.625h-2.957L162.583,470.15z M164.517,354.447
	c-0.538-0.722-2.951-1.716-3.551-1.798c-0.6-0.082-4.851-2.456-4.851-2.456s0.334-0.257,1.09-0.195s1.882,0.486,2.548-0.022
	c0.666-0.509,1.79-1.922,1.489-2.366c-0.3-0.444-1.135,0.198-2.461,0.139c-1.326-0.059-3.101-1.045-4.897-1.386
	c-1.796-0.341-3.525,0.915-3.525,0.915l-7.589-3.842l-2.362,4.665l7.589,3.842c0,0,1.742,2.031,2.576,2.745
	c0.834,0.714,5.278,3.109,6.409,2.603c1.131-0.506,4.564-0.78,5.471-0.959C163.361,356.154,165.055,355.169,164.517,354.447z
	 M159.167,282.57c0.193,0,0.379,0.043,0.559,0.115c0,0,0,0,0,0c0.18-0.073,0.366-0.115,0.559-0.115c1.133,0,2.08,1.328,2.324,3.108
	l2.233-0.454c0.006-2.148,1.017-3.892,2.283-3.983c0.05-0.602,0.119-1.192,0.182-1.775c-1.177-0.074-2.648-1.634-2.648-1.634
	s-0.108,2.434-2.488,3.57c-2.282,1.089-7.09,1.335-8.866,2.306l3.509,2.222C157,284.025,157.981,282.57,159.167,282.57z
	 M164.896,286.095l-2.139,0.435l-0.119-0.584c0.019,0.207,0.033,0.417,0.033,0.633c0,2.214-1.069,4.01-2.387,4.01
	c-0.193,0-0.379-0.043-0.559-0.115c-0.18,0.073-0.366,0.115-0.559,0.115c-1.246,0-2.267-1.604-2.376-3.65l-4.21-2.666
	c-0.921,1.022-0.47,2.212-0.47,2.212s-0.975-0.514-1.058-3.18l-0.237-0.15l0.232-0.366c0.001-0.005,0.574-2.452-1.875-3.1
	c-2.452-0.649-3.39,4.111-1.803,6.202c1.587,2.091,2.668,2.596,3.245,3.317c0.577,0.721,1.111,8.456,1.111,8.456
	s0.369,2.804-0.221,4.648c-0.218,0.68-0.937,1.49-1.758,2.242c0.001,0.002,1.389,2.826,5.859,3.043
	c4.471,0.216,7.066-2.307,7.066-2.307c-0.733-0.571-1.367-1.214-1.649-1.872c-0.885-2.066-1.16-4.76,0.02-5.498
	c1.181-0.738,2.851-1.612,4.327-2.867c0.984-0.836,1.912-3.187,2.161-5.84c-0.099,0.022-0.2,0.036-0.303,0.036
	C166.084,289.25,165.129,287.899,164.896,286.095z M149.998,474.774h2.957l0.469-4.625h-3.894L149.998,474.774z M446.494,350.494
	l0.041,0.081l-1.208,1.154c0,0-2.042-0.71-3.682,0.146c-1.639,0.856-3.069,2.33-4.336,2.775c-1.267,0.445-2.263,0.068-2.424,0.586
	c-0.161,0.517,1.341,1.557,2.135,1.855c0.793,0.298,1.76-0.443,2.474-0.724c0.714-0.281,1.112-0.13,1.112-0.13
	s-3.421,3.543-3.978,3.798c-0.557,0.255-2.602,1.924-2.912,2.78c-0.31,0.857,1.619,1.314,2.549,1.222
	c0.931-0.092,4.336-0.832,5.579-0.673c1.243,0.159,4.845-3.461,5.444-4.397c0.599-0.935,1.691-3.412,1.691-3.412l0.066-0.063
	l0.033,0.064l17.369-14.002c0.11-1.188,0.167-2.263,0.151-3.163c-0.046-2.538-0.569-5.088-1.255-7.452L446.494,350.494z
	 M486.925,466.622l0.545,4.368h3.789v-4.368H486.925z M462.852,328.265l-7.384-7.999l-7.65,8.496l-15.158-12.359l-5.549-4.527
	c0,0-0.094-1.846-0.879-3.27c-0.785-1.424-2.11-2.653-2.527-3.758c-0.417-1.105-0.105-1.989-0.564-2.12
	c-0.458-0.131-1.343,1.21-1.589,1.914c-0.246,0.704,0.425,1.539,0.686,2.161c0.262,0.622,0.137,0.976,0.137,0.976
	s-3.183-2.938-3.419-3.423c-0.235-0.485-1.743-2.25-2.503-2.506c-0.759-0.256-1.124,1.45-1.024,2.266
	c0.099,0.817,0.818,3.796,0.702,4.893c-0.115,1.097,3.14,4.192,3.975,4.7c0.834,0.508,2.859,1.454,2.86,1.454l26.226,25.37
	L462.852,328.265z M474.875,284.333c0.298-1.115,1.041-0.892,1.934-3.096c0.893-2.203-0.223-3.375-1.711-2.929
	c-1.488,0.446-1.15,1.859-1.15,1.859s-6.957-0.149-8.742-2.008c-1.525-1.588-1.717-2.773-1.741-3.087
	c-0.011,0.095-0.026,0.185-0.036,0.282l-0.053,0.647c-0.062,0.953-0.066,1.969,0.018,3.077c0,0-1.216,3.588-1.255,4.258
	c-0.028,0.476,1.21,1.031,1.255,1.434c0.045,0.403,0.426,5.02,2.196,5.917c2.463,1.247,3.407,1.165,4.124,1.659
	c0.474,0.326,0.458,2.857,0.393,4.54l8.794-2.656c0.061-1.125,0.203-3.032,0.508-4.716c0,0-0.001,0.002-0.001,0.002
	S474.577,285.449,474.875,284.333z M460.625,466.622l1.282,4.368h3.789l-0.446-4.368H460.625z"></path>
<path id="color_x5F_4" fill="#fabbfc" d="M230.208,361.768c-3.79,0-6.863,3.072-6.863,6.863c0,3.79,3.073,6.863,6.863,6.863
	c3.79,0,6.863-3.073,6.863-6.863C237.071,364.841,233.998,361.768,230.208,361.768z M230.208,374.272
	c-3.09,0-5.595-2.505-5.595-5.594c0-3.09,2.505-5.594,5.595-5.594c3.09,0,5.594,2.505,5.594,5.594
	C235.802,371.767,233.298,374.272,230.208,374.272z M311.625,303.394c-0.043,0.152-0.09,0.298-0.134,0.448
	C311.535,303.692,311.582,303.546,311.625,303.394z M173.427,418.724l0.167-1.617l0,0L173.427,418.724z M311.625,303.394
	c0.171-0.602,0.336-1.213,0.493-1.837C311.96,302.181,311.796,302.792,311.625,303.394z M309.798,308.718l-0.004-0.003
	c0.024-0.059,0.049-0.116,0.073-0.174C309.844,308.598,309.822,308.66,309.798,308.718z M311.087,305.174
	c0.139-0.436,0.273-0.882,0.404-1.331C311.36,304.291,311.227,304.738,311.087,305.174z M311.087,305.174
	c-0.053,0.165-0.109,0.326-0.163,0.489C310.978,305.499,311.034,305.339,311.087,305.174z M309.867,308.54
	c0.159-0.388,0.312-0.785,0.462-1.187C310.179,307.756,310.026,308.153,309.867,308.54z M310.924,305.663
	c-0.137,0.415-0.277,0.827-0.422,1.229C310.647,306.49,310.787,306.078,310.924,305.663z M310.502,306.892
	c-0.056,0.156-0.115,0.308-0.173,0.462C310.387,307.199,310.446,307.048,310.502,306.892z M314.823,248.364
	c-0.055-0.923-0.112-1.817-0.17-2.697C314.711,246.547,314.768,247.441,314.823,248.364z M314.652,245.667
	c-0.008-0.119-0.016-0.235-0.024-0.353l0.002-0.001C314.638,245.427,314.645,245.551,314.652,245.667z M459.979,370.746
	c-5.181-3.038-9.767-6.522-13.904-10.381c-1.343,1.374-3.362,3.109-4.231,2.997c-1.243-0.159-4.648,0.581-5.579,0.673
	c-0.931,0.092-2.86-0.366-2.549-1.222c0.31-0.856,2.355-2.525,2.912-2.78c0.557-0.255,3.978-3.798,3.978-3.798
	s-0.399-0.151-1.112,0.131c-0.714,0.281-1.68,1.022-2.474,0.724c-0.794-0.298-2.296-1.337-2.135-1.855
	c0.161-0.517,1.157-0.141,2.424-0.586c0.658-0.231,1.361-0.741,2.114-1.297c-9.406-11.21-15.918-25.034-21.019-41.115
	c-1.133-1.12-2.341-2.552-2.27-3.227c0.115-1.097-0.603-4.076-0.702-4.893c-0.046-0.381,0.012-0.951,0.16-1.429
	c-8.399-30.791-13.158-68.768-23.379-111.693C368.439,91.142,167.786,58.749,90.869,144.337
	c-77.143,85.839,7.243,165.497,26.451,237.41c4.449,16.657,5.571,30.577,4.552,42.189c4.301-0.73,7.972,1.082,10.42-2.022
	c0,0,0.216,11.561-8.923,13.271c-1.205,0.225-2.321,0.325-3.362,0.361c-1.005,4.185-2.313,7.988-3.835,11.448h12.994l-0.479,1.744
	c2.128-1.238,5.452,1.2,5.452,1.2s-7.43-10.558-3.715-12.131c3.715-1.572,10.55,1.91,10.55,1.91s-4.904-7.301-0.743-8.986
	c1.372-0.555,2.756-0.286,4.001,0.315l-4.926-54.362h-0.578v-28.414c0,0-12.548-4.47-14.568-7.283
	c-2.019-2.813,6.455-28.659,25.584-36.434l0,0c0.821-0.752,1.54-1.562,1.758-2.242c0.59-1.845,0.221-4.648,0.221-4.648
	s-5.943-3.192-8.827-6.87c-2.885-3.678-4.616-10.818-1.587-18.029c3.029-7.212,13.63-8.726,17.525-8.149
	c3.894,0.577,24.754-0.511,24.646-0.111c-0.108,0.4-1.515,2.455-3.84,3.375c-2.326,0.919-3.029,1.244-2.758,1.677
	c0.271,0.433,1.569,0.054,1.731,0.325c0.162,0.271-1.244,3.083-3.408,5.084c-2.164,2.001-6.399,4.273-7.608,4.489
	c-0.12,0.022-0.248,0.009-0.377-0.006c0.028,0.003,0.057,0.015,0.085,0.017c-0.063,0.583-0.132,1.173-0.182,1.776
	c-0.044,0.003-0.085,0.023-0.128,0.03c0.077-0.013,0.152-0.039,0.231-0.039c0.193,0,0.379,0.043,0.559,0.115
	c-0.069,0.028-0.132,0.073-0.199,0.111c0.239-0.135,0.491-0.226,0.758-0.226c1.318,0,2.387,1.795,2.387,4.01
	c0,2.214-1.068,4.01-2.387,4.01c-0.266,0-0.517-0.09-0.755-0.224c0.065,0.037,0.128,0.082,0.196,0.109
	c-0.179,0.072-0.365,0.115-0.558,0.115c0.103,0,0.203-0.014,0.302-0.036c-0.249,2.653-1.177,5.003-2.161,5.84
	c-1.476,1.254-3.147,2.129-4.327,2.867c-1.18,0.738-0.906,3.432-0.02,5.498c0.282,0.658,0.916,1.301,1.649,1.872
	c0,0-0.649,0.631-1.856,1.234c1.208-0.604,1.856-1.234,1.856-1.234s12.694,4.903,15.146,7.355c1.394,1.394,5.214,8.991,8.382,15.869
	h9.093v28.847h-18.073l0.31,19.324h0.251l-4.186,40.422c0.425,0.616,0.665,1.044,0.665,1.044s18.128-26.958,32.69-24.037
	c14.562,2.92,0.297,31.9,0.297,31.9s3.863-4.493,8.915-3.819c5.052,0.674,1.751,7.638,1.751,7.638s7.164-6.402,12.216-6.065
	c5.052,0.337,0.892,7.863,0.892,7.863s2.229-1.909,8.024,0c5.795,1.91,1.189,13.479,1.189,13.479s6.835-9.211,13.076-7.75
	c6.241,1.46,1.04,10.895,1.04,10.895s10.401-6.852,14.859-5.616c4.458,1.236,2.229,10.671,2.229,10.671s3.418-7.526,10.996-6.852
	c4.674,0.416,5.953,4.503,6.249,7.577h1.454c1.925-3.978,5.634-9.904,10.425-9.15c0.735,0.116,1.36,0.363,1.926,0.675v-47.56h0.003
	c0.099,0.159,0.212,0.312,0.313,0.47c-3.712-5.792-5.743-12.236-7.197-18.422c0.015,0.063,0.028,0.126,0.043,0.189l-4.459-3.553
	c-1.968,1.216-4.134,2.144-6.441,2.727l-0.876,9.414l-8.226,0.203l-1.171-9.371c-2.379-0.481-4.629-1.326-6.686-2.48l-7.112,6.228
	l-6.109-5.512l5.596-7.605c-1.612-2.294-2.815-4.897-3.509-7.707l-9.408-0.927l-0.159-8.227l9.377-1.121
	c0.567-2.728,1.613-5.283,3.054-7.571l-5.9-7.555l5.847-5.79l7.341,6.066c1.998-1.255,4.204-2.21,6.557-2.809l0.707-9.417
	l8.226-0.203l1.339,9.359c2.38,0.478,4.631,1.32,6.689,2.471l6.992-6.347l1.568,1.415c-0.025,0.08-0.044,0.161-0.069,0.241
	c0.88-2.822,1.893-5.619,3.063-8.345h-0.003c0.08-0.186,0.164-0.369,0.245-0.555c-0.001,0.002-0.001,0.003-0.002,0.005
	c0.172-0.394,0.343-0.79,0.522-1.181h0.015c1.356-2.955,2.888-5.819,4.64-8.52c0.93-1.433,1.755-3.069,2.495-4.856l-1.126-0.943
	c-2.881,1.683-6.037,2.944-9.385,3.703l-1.598,13.543h-11.869l-1.355-13.554c-3.413-0.779-6.628-2.077-9.553-3.815l-10.476,8.728
	l-8.613-8.166l8.34-10.767c-2.243-3.365-3.885-7.162-4.785-11.238l-13.533-1.671l0.064-11.869l13.561-1.282
	c0.915-3.913,2.514-7.561,4.673-10.808l-8.239-11.105l8.637-8.14l10.369,9.009c2.926-1.739,6.141-3.038,9.555-3.816l1.355-13.554
	h11.869l1.598,13.543c3.415,0.774,6.63,2.068,9.558,3.801l5.788-4.999c-0.681-10.125-1.561-17.122-1.561-17.122
	s78.072-3.846,74.995,83.072c0,0-3.669,5.192,0.089,11.922c3.757,6.73,21.256,23.46,21.833,28.652
	c0.577,5.192-15.576,16.153-15.768,16.73c-0.192,0.577-0.577,6.923-0.577,6.923s4.038,2.115,3.654,5.384
	c-0.385,3.269-5.192,6.923-5.192,6.923s3.653,3.461,3.461,5.769c-0.192,2.308-7.307,5.384-8.269,8.269
	c-0.962,2.884,0.385,13.653-2.5,20.191c-2.884,6.538-12.115,8.269-19.614,6.153c-7.5-2.115-9.23-3.846-16.153-6.73
	c-4.409-1.837-11.864-2.669-20.073-5.113c0.147,0.044,0.298,0.098,0.444,0.14v37.558h-2.957v-38.491
	c-3.151-1.058-6.376-2.381-9.553-4.119v42.61h57.959c-0.373-1.143-0.437-2.369,0.723-2.839c2.402-0.973,4.89,2.399,4.89,2.399
	s-0.429-5.382,1.973-6.16c2.402-0.778,4.289,2.788,4.289,2.788s1.544-8.689,3.946-9.402c2.402-0.713,4.546,3.112,4.546,3.112
	s10.465-15.563,18.872-13.877c8.406,1.686,0.172,18.416,0.172,18.416s2.23-2.594,5.147-2.205c2.917,0.389,1.011,4.409,1.011,4.409
	s4.136-3.696,7.052-3.502c2.917,0.195,0.515,4.539,0.515,4.539s1.287-1.102,4.632,0c3.345,1.102,0.686,7.781,0.686,7.781
	s3.946-5.317,7.549-4.474c3.603,0.843,0.601,6.29,0.601,6.29s6.005-3.955,8.578-3.242c2.573,0.713,1.287,6.16,1.287,6.16
	s1.71-3.755,5.471-3.966l-13.452-43.769L459.979,370.746z M257.624,392.814l2.312-0.219c0.156-0.667,0.429-1.289,0.797-1.843
	l-1.405-1.893l1.473-1.388l1.768,1.536c0.499-0.296,1.047-0.518,1.629-0.651l0.231-2.311h2.024l0.273,2.309
	c0.582,0.132,1.131,0.353,1.63,0.648l1.757-1.518l1.469,1.392l-1.391,1.863c0.383,0.573,0.664,1.22,0.819,1.915l2.31,0.244
	l-0.011,2.024l-2.311,0.26c-0.16,0.688-0.443,1.329-0.828,1.896l1.397,1.814l-1.473,1.388l-1.767-1.481
	c-0.491,0.287-1.029,0.502-1.6,0.631l-0.273,2.309h-2.024l-0.231-2.311c-0.582-0.133-1.13-0.354-1.629-0.65l-1.786,1.488
	l-1.469-1.392l1.422-1.836c-0.382-0.574-0.662-1.221-0.816-1.916l-2.307-0.285L257.624,392.814z M243.315,370.352l-3.862,0.435
	c-0.267,1.151-0.741,2.221-1.385,3.169l2.334,3.032l-2.461,2.32l-2.953-2.475c-0.821,0.48-1.72,0.839-2.675,1.055l-0.455,3.859
	h-3.382l-0.386-3.862c-0.973-0.222-1.889-0.592-2.722-1.087l-2.986,2.487l-2.455-2.327l2.377-3.068
	c-0.639-0.959-1.107-2.041-1.364-3.203l-3.857-0.476l0.018-3.382l3.865-0.365c0.261-1.115,0.716-2.155,1.332-3.08l-2.348-3.164
	l2.462-2.32l2.955,2.567c0.834-0.495,1.75-0.866,2.723-1.088l0.386-3.863h3.382l0.455,3.86c0.973,0.22,1.889,0.589,2.724,1.083
	l2.938-2.537l2.454,2.327l-2.324,3.113c0.641,0.958,1.11,2.04,1.368,3.201l3.86,0.407L243.315,370.352z M249.564,304.53
	l-4.577,6.131c1.261,1.886,2.185,4.016,2.694,6.302l7.601,0.802l-0.036,6.66l-7.604,0.856c-0.526,2.265-1.459,4.374-2.726,6.241
	l4.596,5.97l-4.847,4.568l-5.815-4.874c-1.617,0.945-3.388,1.652-5.266,2.078l-0.897,7.599h-6.66l-0.76-7.606
	c-1.915-0.437-3.719-1.165-5.36-2.141l-5.878,4.897l-4.833-4.582l4.68-6.042c-1.259-1.888-2.18-4.019-2.685-6.306l-7.594-0.938
	l0.036-6.66l7.609-0.72c0.513-2.196,1.411-4.243,2.622-6.065l-4.623-6.231l4.847-4.568l5.818,5.055
	c1.642-0.976,3.446-1.704,5.362-2.141l0.76-7.606h6.66l0.897,7.599c1.916,0.434,3.72,1.161,5.363,2.133l5.784-4.996L249.564,304.53z
	 M246.976,267.311l-5.605,0.631c-0.388,1.67-1.076,3.224-2.009,4.6l3.388,4.4l-3.572,3.367l-4.286-3.592
	c-1.192,0.696-2.497,1.218-3.882,1.531l-0.661,5.601h-4.908l-0.561-5.605c-1.412-0.322-2.741-0.859-3.951-1.578l-4.333,3.61
	l-3.562-3.377l3.449-4.453c-0.928-1.392-1.607-2.962-1.979-4.648l-5.597-0.691l0.027-4.908l5.608-0.53
	c0.378-1.618,1.04-3.127,1.932-4.47l-3.407-4.592l3.572-3.367l4.288,3.726c1.21-0.719,2.54-1.256,3.952-1.578l0.561-5.605h4.908
	l0.661,5.601c1.412,0.32,2.742,0.855,3.953,1.572l4.263-3.682l3.562,3.377l-3.373,4.519c0.93,1.39,1.611,2.96,1.985,4.645
	l5.602,0.591L246.976,267.311z M265.466,397.999c2.268,0,4.106-1.838,4.106-4.106c0-2.268-1.838-4.106-4.106-4.106
	c-2.268,0-4.106,1.838-4.106,4.106C261.36,396.161,263.198,397.999,265.466,397.999z M265.466,391.904
	c1.114,0,2.016,0.903,2.016,2.016c0,1.114-0.903,2.017-2.016,2.017c-1.114,0-2.016-0.903-2.016-2.017
	C263.449,392.807,264.352,391.904,265.466,391.904z M235.022,368.677c0,2.659-2.155,4.814-4.813,4.814
	c-2.659,0-4.814-2.155-4.814-4.814c0-2.658,2.155-4.813,4.814-4.813C232.866,363.864,235.022,366.019,235.022,368.677z
	 M229.439,307.523c-7.463,0-13.513,6.05-13.513,13.513c0,7.463,6.05,13.513,13.513,13.513c7.463,0,13.513-6.05,13.513-13.513
	C242.952,313.573,236.902,307.523,229.439,307.523z M229.439,327.763c-3.665,0-6.636-2.971-6.636-6.636
	c0-3.665,2.971-6.636,6.636-6.636c3.665,0,6.636,2.971,6.636,6.636C236.075,324.792,233.104,327.763,229.439,327.763z
	 M234.94,264.88c0,3.858-3.128,6.986-6.986,6.986c-3.858,0-6.986-3.128-6.986-6.986c0-3.858,3.128-6.986,6.986-6.986
	C231.813,257.895,234.94,261.022,234.94,264.88z M227.955,254.854c-5.501,0-9.96,4.459-9.96,9.96s4.459,9.96,9.96,9.96
	c5.501,0,9.96-4.459,9.96-9.96S233.455,254.854,227.955,254.854z M227.955,272.999c-4.484,0-8.119-3.635-8.119-8.119
	c0-4.484,3.635-8.119,8.119-8.119c4.484,0,8.119,3.635,8.119,8.119C236.074,269.364,232.439,272.999,227.955,272.999z
	 M127.201,454.158c0.551,2.904,2.333,5.441,2.333,5.441s-1.47-0.876-3.363-1.689l2.517-9.168L127.201,454.158z M314.16,290.276
	c0.117-0.941,0.204-1.911,0.303-2.87c0.009-0.025,0.021-0.048,0.03-0.073C314.392,288.324,314.28,289.305,314.16,290.276z
	 M291.895,254.91c-13.3,0-24.083,10.782-24.083,24.083c0,13.301,10.782,24.083,24.083,24.083c10.34,0,19.154-6.518,22.567-15.669
	c0.467-4.549,0.74-9.262,0.859-13.984C312.806,262.809,303.277,254.91,291.895,254.91z M291.895,290.98
	c-6.531,0-11.826-5.295-11.826-11.826c0-6.531,5.295-11.826,11.826-11.826c6.531,0,11.826,5.295,11.826,11.826
	C303.721,285.686,298.427,290.98,291.895,290.98z M315.321,273.422c0.031-1.232,0.064-2.465,0.076-3.692
	c-0.012,1.241-0.033,2.487-0.064,3.733C315.329,273.449,315.324,273.436,315.321,273.422z M278.661,340.333
	c-9.218,0.228-16.506,7.885-16.279,17.103c0.228,9.218,7.885,16.506,17.103,16.279c6.345-0.157,11.776-3.834,14.47-9.117
	c0,0.087,0.002,0.17,0.002,0.257c-0.006-4.165,0.247-8.845,0.851-13.78c-0.011,0.087-0.027,0.178-0.037,0.264
	C292.394,344.772,286.029,340.152,278.661,340.333z M279.412,370.742c-7.514,0.185-13.756-5.756-13.942-13.27
	c-0.186-7.514,5.756-13.756,13.27-13.942c7.514-0.186,13.756,5.756,13.942,13.27C292.868,364.315,286.926,370.557,279.412,370.742z
	 M290.783,356.847c0.16,6.465-4.952,11.836-11.418,11.996c-6.465,0.16-11.836-4.952-11.996-11.418
	c-0.16-6.465,4.952-11.836,11.418-11.996C285.253,345.27,290.623,350.382,290.783,356.847z M313.93,409.669v43.121
	c-1.357-0.041-2.682,0.502-3.839,1.245h-3.675c-0.084-1.503-0.341-3.273-0.971-4.869v-47.032c-0.182-0.222-0.343-0.453-0.518-0.677
	C307.305,404.487,310.234,407.28,313.93,409.669z M536.351,444.788c0.005,29.986-16.499,34.355-16.499,34.355
	s-8.063-0.778-13.124-1.427s-6.262-0.584-8.578-1.556c-1.715-0.72-3.29-2.147-5.28-2.894v-2.276h-6.097h-0.615v0.307
	c-0.494-1.154-1.405-2.289-3.106-2.528c-3.689-0.519-5.49,1.686-5.49,1.686s1.458-5.641-1.029-6.419
	c-2.488-0.778-5.061,2.594-5.061,2.594s0.772-6.614-3.345-7.262c-0.829-0.131-1.6,0.096-2.306,0.526l0.926,6.731l-6.771-49.237
	l12.277-25.801l2.059-0.915l1.805,29.961l8.748,45.991h2.062l0.545,4.368h3.789v-4.368h1.611l-0.109-76.621
	C520.904,407.177,536.347,420.618,536.351,444.788z M136.999,335.434l3.926-8.654v10.096l-0.516,1.587L136.999,335.434z
	 M158.959,396.428l0.712,31.978c-0.08,0.408-0.122,0.642-0.122,0.642s-1.231-2.316-3.139-3.802l0.727-28.817H158.959z"></path>
<path id="color_x5F_3" fill="#e843c5" d="M172.93,478.565c0.437,0.203,0.281,0.983,0.281,0.983H162.79v-4.774h3.401h0.343v1.326
	C166.534,476.1,172.493,478.362,172.93,478.565z M153.481,476.1v-1.326h-0.343h-3.401v4.774h10.421c0,0,0.156-0.78-0.281-0.983
	C159.44,478.362,153.481,476.1,153.481,476.1z M147.776,470.15h7.501l1.861-73.722h1.821l1.642,73.722h7.501l9.679-93.464h-38.473
	L147.776,470.15z M460.594,470.99v2.377c0,0-10.683,4.055-11.466,4.419c-0.783,0.364-0.503,1.762-0.503,1.762h18.681v-8.558h-6.097
	H460.594z M476.116,420.631l8.748,45.991h8.006l-0.143-100.66H461.72l-18.388,50.532l15.406,50.128h8.007l-6.771-49.237
	l12.277-25.801l2.059-0.915L476.116,420.631z M486.158,470.99v2.377c0,0-10.683,4.055-11.466,4.419
	c-0.783,0.364-0.503,1.762-0.503,1.762h18.681v-8.558h-6.097H486.158z"></path>
<path id="color_x5F_2" fill="#6c2dfb" d="M153.753,328.515h32.447c-3.168-6.878-6.987-14.475-8.382-15.869
	c-2.452-2.452-15.146-7.355-15.146-7.355s-2.595,2.523-7.066,2.306c-4.471-0.216-5.859-3.043-5.859-3.043
	c-19.129,7.775-27.603,33.621-25.584,36.434c2.019,2.813,14.568,7.283,14.568,7.283v28.414h38.799l-0.31-19.324h-10.652h-12.815
	h-1.609l-0.908-2.213c-0.293-0.183-0.528-0.344-0.662-0.459c-0.834-0.714-2.576-2.745-2.576-2.745l-7.589-3.842l2.362-4.665
	l4.624,2.341l-1.164-2.84h7.523V328.515z M140.925,336.877l-0.516,1.587l-3.41-3.029l3.926-8.654V336.877z M461.72,365.963
	c0,0,5.017-19.933,4.878-27.572c-0.072-3.96-1.301-7.956-2.507-11.217l-1.239,1.091l-8.889-9.629l13.869-17.331
	c0.628-2.416,1.071-4.055,1.071-4.055l10.935-3.303c0,0,1.885,1.044,3.907,2.852c0,0,6.596,9.143,5.455,24.032
	c-0.542,7.07-0.178,13.398-0.423,17.804c-0.417,7.5,3.869,27.327,3.869,27.327H461.72z"></path>
<path id="color_x5F_1" fill="#070707" d="M183.482,264.504c-0.108,0.4-1.514,2.455-3.84,3.375c-2.326,0.92-3.029,1.244-2.758,1.677
	s1.569,0.054,1.731,0.325c0.162,0.27-1.244,3.083-3.408,5.084c-2.163,2.001-6.399,4.273-7.608,4.489
	c-1.209,0.216-2.94-1.623-2.94-1.623s-0.108,2.434-2.488,3.57c-2.282,1.089-7.09,1.335-8.866,2.306l-2.027-1.284l-0.231,0.365
	c0.001-0.005,0.574-2.452-1.875-3.1c-2.452-0.649-3.39,4.111-1.803,6.202c1.587,2.091,2.668,2.596,3.245,3.317
	c0.577,0.721,1.111,8.456,1.111,8.456s-5.943-3.192-8.827-6.87s-4.616-10.818-1.587-18.029c3.029-7.212,13.63-8.726,17.525-8.149
	C162.73,265.192,183.59,264.104,183.482,264.504z M151.053,283.305c0.083,2.666,1.058,3.18,1.058,3.18s-0.45-1.19,0.47-2.212
	L151.053,283.305z M505.889,284.854c-3.57-5.801-0.595-16.065-6.694-23.651c-6.099-7.586-15.321,3.883-15.321,3.883
	s-4.531-2.098-9.926-2.173c-5.395-0.074-8.984,3.231-10.247,6.503c-0.868,2.25-0.357,6.97-0.357,6.97l0.116-1.402
	c0,0-0.039,1.317,1.746,3.176c1.785,1.859,8.742,2.008,8.742,2.008s-0.337-1.413,1.15-1.859c1.488-0.446,2.603,0.725,1.711,2.929
	c-0.893,2.203-1.636,1.98-1.934,3.096c-0.298,1.116,4.533,5.184,4.533,5.184s1.566-2.729,4.764-4.589
	c3.198-1.859,4.314-7.958,3.793-11.231c-0.521-3.273-1.863-6.099-1.863-6.099s4.763-1.047,6.846,5.873
	c2.082,6.92-0.298,9.895,5.801,14.803c6.099,4.909,18.742,4.314,18.742,4.314S509.459,290.655,505.889,284.854z"></path>
</svg>