<?xml version="1.0" standalone="no"?>
<svg version="1.1" id="Layer_1" xmlns="http://www.w3.org/2000/svg" xmlns:xlink="http://www.w3.org/1999/xlink" x="0px" y="0px" width="595.279px" height="595.279px" viewBox="0 0.001 595.279 595.279" enable-background="new 0 0.001 595.279 595.279" xml:space="preserve">
<path id="color_x5F_5" fill="#FFD2BB" d="M180.777,229.905c0.018-0.187,0.038-0.375,0.061-0.563
	c0.316-2.619,0.075-5.148-0.595-7.449l-0.104-0.013c-0.703-0.085-9.54-0.867-8.683-0.502c1.248,3.905,1.042,7.723-0.67,10.43
	c-0.307-1.169-0.873-2.256-1.73-3.081c-1.635-1.578-4.49-2.077-6.332-0.51c-1.373,1.171-1.375,3.04-0.479,4.523
	c0.389,0.649,0.881,1.201,1.457,1.636c0.545,0.42,1.16,0.744,1.812,0.953c-1.1,0.203-2.269,0.206-3.477,0.015
	c-2.271-0.343-4.658-1.364-6.88-2.982c-0.031-0.016-0.053-0.031-0.076-0.052c-0.196-0.143-0.384-0.314-0.577-0.467l-7.036,16.961
	l19.389,4.658l1.679-9.251c2.309,1.153,4.519,1.918,6.313,2.135c5.72,0.692,5.585-4.34,5.663-10.706
	c0.612-0.042,1.163-0.146,1.564-0.314c1.795-0.755,0.07-2.431-0.824-4.558C181.117,230.456,180.956,230.171,180.777,229.905z
	 M177.795,229.673c-0.081,0.795-0.534,1.401-1.027,1.348c-0.485-0.053-0.823-0.743-0.746-1.542c0.077-0.796,0.533-1.4,1.025-1.347
	C177.534,228.185,177.874,228.875,177.795,229.673z M240.558,294.945c-2.163,1.488-4.553,2.299-6.812,2.573
	c-0.176,0.357-0.372,0.724-0.578,1.096c-0.062,0.113-0.13,0.229-0.194,0.342c-0.153,0.27-0.311,0.539-0.477,0.814
	c-0.077,0.125-0.154,0.252-0.232,0.381c-0.175,0.281-0.357,0.567-0.545,0.856c-0.072,0.112-0.145,0.222-0.219,0.336
	c-0.249,0.374-0.506,0.751-0.773,1.134c-0.016,0.022-0.03,0.044-0.045,0.064l-6.879-7.329c0.379-0.231,0.757-0.458,1.133-0.681
	c-0.156-0.369-0.236-0.762-0.222-1.176c0.035-1.027,2.501-4.828,5.313-8.157c2.942,2.949,6.063,5.719,9.335,8.305L240.558,294.945z
	 M148.816,349.184l1.261-1.104c-0.634,1.487-3.261,3.199-4.625,4.009c-0.497,0.294-0.832,0.475-0.832,0.475
	s-0.029,0.029-0.065,0.064c-0.008,0.008-0.022,0.021-0.032,0.03c-0.041,0.04-0.1,0.094-0.167,0.154
	c-0.021,0.019-0.042,0.038-0.065,0.058c-0.08,0.07-0.176,0.151-0.282,0.236c-0.021,0.017-0.038,0.032-0.06,0.049
	c-0.135,0.107-0.288,0.223-0.457,0.34c-0.111,0.078-0.232,0.156-0.356,0.234c-0.047,0.029-0.097,0.059-0.146,0.088
	c-0.104,0.063-0.213,0.124-0.325,0.184c-0.042,0.022-0.082,0.046-0.124,0.067c-0.149,0.077-0.305,0.149-0.466,0.217
	c-0.046,0.02-0.094,0.038-0.141,0.057c-0.134,0.053-0.272,0.102-0.412,0.146c-0.045,0.014-0.09,0.03-0.135,0.043
	c-0.178,0.052-0.36,0.095-0.546,0.128c-0.043,0.007-0.086,0.012-0.129,0.018c-0.156,0.023-0.315,0.039-0.476,0.047
	c-0.049,0.002-0.098,0.006-0.148,0.007c-0.197,0.002-0.396-0.007-0.598-0.033c-0.035-0.005-0.071-0.014-0.106-0.02
	c-0.172-0.026-0.346-0.066-0.521-0.118c-0.053-0.016-0.106-0.031-0.16-0.049c-0.207-0.07-0.414-0.154-0.621-0.264
	c-0.023-0.012-0.046-0.028-0.069-0.041c-0.186-0.102-0.371-0.225-0.556-0.361c-0.055-0.041-0.109-0.082-0.164-0.126
	c-0.208-0.166-0.414-0.348-0.619-0.563c-0.172-0.182-0.321-0.373-0.482-0.56c-0.616-0.72-1.137-1.477-1.585-2.252
	c-1.16-2.007-1.789-4.148-1.983-6.18c-0.007-0.077-0.021-0.155-0.027-0.232c-0.337-4.192,1.124-7.843,3.344-8.676
	c0.005,0.009,0.011,0.02,0.016,0.029c0-0.012,0-0.023,0-0.035c0.155-0.057,0.315-0.093,0.478-0.123
	c0.225-0.042,0.454-0.063,0.69-0.046c0.198,0.015,0.499,0.129,0.871,0.315l4.595,4.133l-1.263,1.106
	c-0.904,0.79-1.492,1.813-1.763,2.9c-0.113,0.452-0.177,0.915-0.177,1.379c0,1.33,0.46,2.66,1.41,3.74
	C142.866,351.014,146.456,351.255,148.816,349.184z"></path>
<path id="color_x5F_3" fill="#cb84ff" d="M104.582,460.131c1.429-1.313,2.895-2.582,4.498-3.701
	c0.833-0.583,1.619,0.782,0.794,1.357c-1.483,1.035-2.869,2.205-4.218,3.422C105.316,460.832,104.957,460.472,104.582,460.131z
	 M127.289,296.96c-6.365,3.345-3.66,2.819-6.917,4.789c1.554-0.939,4.056-2.355,6.934-3.941
	C127.279,297.499,127.268,297.211,127.289,296.96z M143.14,339.047c-2.005-1.67-3.96-3.056-5.146-3.65l4.595,4.133L143.14,339.047z
	 M331.801,239.496h-71.845c-1.933,0-3.5-1.567-3.5-3.5s1.567-3.5,3.5-3.5h69.815c-1.513-6.101-2.421-12.44-2.662-18.95h-67.153
	c-1.933,0-3.5-1.567-3.5-3.5s1.567-3.5,3.5-3.5h67.153c0.241-6.51,1.15-12.849,2.662-18.95h-69.815c-1.933,0-3.5-1.567-3.5-3.5
	s1.567-3.5,3.5-3.5h71.845c1.771-5.306,4.006-10.398,6.658-15.23c-4.386-6.213-8.173-12.804-11.422-19.69
	c-15.714-33.308-70.801-18.43-82.801,30.487c-0.832,3.39-7.033,30.95-17.423,48.402c-1.604,2.693-5.771,5.656-11.715,9.006
	c2.791,11.003,7.55,21.23,13.908,30.264c2.18,3.11,4.55,6.08,7.1,8.9c16.89,18.67,41.3,30.42,68.41,30.42
	c21.801,0,41.855-7.608,57.661-20.303C348.24,271.762,337.559,256.756,331.801,239.496z M146.434,437.284
	c-7.316,4.733-14.191,9.105-20.398,12.96c-3.117-2.674-6.078-5.737-8.85-9.242c-10.152-12.837-17.824-24.894-23.368-36.229
	c1.674-0.734,3.309-1.697,4.851-2.895l36.159-28.065c3.128,14.297,9.139,34.472,15.083,45.11c-2.703,1.794-4.555,5.413-4.555,9.597
	C145.357,429.857,145.779,433.085,146.434,437.284z M147.852,445.869c0.972,5.652,2.091,11.823,3.091,17.234
	c-6.328-1.618-12.374-4.141-18.015-7.737C137.356,452.596,142.314,449.442,147.852,445.869z M200.281,450.393
	c0,3.757,1.329,7.202,3.541,9.895c-16.367,4.624-32.96,6.631-48.166,3.847c0.943-6.898,2.16-15.839,3.473-25.602
	c18.526-12.141,36.786-24.522,47.252-31.671c1.037,0.799,2.167,1.48,3.387,2.001l1.668,26.58
	C204.988,437.359,200.281,443.323,200.281,450.393z M420.032,218.342l10.45-39.778c4.368-1.474,8.94-2.801,13.614-3.853
	l-6.972,26.538l61.719-18.308c4.057,2.484,8.131,5.311,12.068,8.443L420.032,218.342z M420.032,303.042
	c-17.023,0-32.977-4.578-46.702-12.565c-18.463,15.992-42.528,25.678-68.813,25.678c-24.583,0-47.218-8.478-65.152-22.651
	l1.194,1.441c-2.163,1.488-4.553,2.299-6.812,2.573c-0.176,0.357-0.372,0.724-0.578,1.096c-0.062,0.113-0.13,0.229-0.194,0.342
	c-0.153,0.27-0.311,0.539-0.477,0.814c-0.077,0.125-0.154,0.252-0.232,0.381c-0.175,0.281-0.357,0.567-0.545,0.856
	c-0.072,0.112-0.145,0.222-0.219,0.336c-0.249,0.374-0.506,0.751-0.773,1.134c-0.016,0.022-0.03,0.044-0.045,0.064
	c-6.877,9.784-20.084,22.212-29.144,28.351c-6.8,5.066-16.478,0.089-24.434-6.486l-4.138,3.625
	c-1.349,9.761-2.648,22.654-3.55,27.283h1.805c0,0,0.012,0.002,0.015,0.003H168.4c0.264,1.39,0.41,2.829,0.41,4.309
	c0,5.153-4.282,38.471-8.28,68.451c13.179-8.683,27.207-18.119,40.961-27.543c-0.778-1.854-1.209-3.891-1.209-6.027
	c0-8.617,6.986-15.603,15.603-15.603c8.618,0,15.604,6.985,15.604,15.603c0,7.948-5.948,14.496-13.634,15.466l1.584,25.24
	c0.846,0.197,1.67,0.452,2.457,0.781l84.855-62.135c-1.281-2.265-2.021-4.876-2.021-7.663c0-8.617,6.985-15.603,15.603-15.603
	c8.618,0,15.604,6.985,15.604,15.603c0,5.149-2.505,9.702-6.352,12.544l5.013,9.508c16.862-10.946,32.317-21.1,41.068-27.028
	c26.653-18.059,46.643-19.281,78.453-19.876c23.461-0.438,45.824-7.817,62.3-21.722c0.912-1.058,1.956-1.999,3.118-2.781
	c19.354-18.186,29.285-46.253,20.792-83.445c-3.776-16.538-15.616-30.96-29.132-41.781c1.197,5.958,1.83,12.122,1.83,18.433
	C513.027,261.406,471.391,303.042,420.032,303.042z M192.003,335.081c-0.408-0.03-0.798,0.032-1.168,0.169
	c-0.003-0.557-0.007-1.119-0.009-1.696l2.048,1.843C192.502,335.21,192.2,335.095,192.003,335.081z M190.311,312.84l36.015-31.545
	c1.201,1.333,2.436,2.634,3.703,3.904c-2.812,3.329-5.278,7.13-5.313,8.157c-0.014,0.414,0.066,0.807,0.222,1.176
	c-0.376,0.223-0.754,0.45-1.133,0.681c-5.886,3.596-27.832,15.104-31.402,19.406C191.684,314.337,190.989,313.718,190.311,312.84z
	 M167.098,257.753c13.226-7.008,25.891-12.921,36.183-18.023c3.391,11.896,8.824,22.938,15.896,32.716l-33.805,29.61
	c-3.05-8.789-6.043-19.969-9.64-26.194c-2.343-5.612-5.22-10.072-8.281-13.498C166.323,261.101,166.673,259.378,167.098,257.753z
	 M116.779,348.559l-33.277,25.829c-4.647-25.784,2.684-47.104,16.133-64.877c5.194,6.428,24.146,29.59,32.961,34.42
	c0.006,0.077,0.02,0.155,0.027,0.232C127.566,343.3,121.702,344.738,116.779,348.559z M322.098,381.693l5.759,10.925
	c-23.397,15.146-48.115,30.93-60.687,38.63c-10.458,6.406-22.672,13.134-35.694,18.909c-0.051-3.381-1.181-6.493-3.056-9.025
	l83.996-61.506c2.323,1.372,5.022,2.174,7.916,2.174C320.93,381.8,321.517,381.759,322.098,381.693z M135.955,335.25
	c-0.005,0.002-0.011,0.004-0.016,0.006c-0.619-1.149-1.278-2.317-1.949-3.461c-3.045-5.194-12.103-20.965-16.804-28.178
	c1.129-0.64,2.2-1.272,3.187-1.868c1.554-0.939,4.056-2.355,6.934-3.941c0.519,5.838,9.337,21.541,9.126,37.319
	C136.271,335.157,136.11,335.193,135.955,335.25z M135.955,335.25c-0.005,0.002-0.011,0.004-0.016,0.006
	c0.005,0.009,0.011,0.02,0.016,0.029C135.955,335.273,135.955,335.261,135.955,335.25z M142.989,353.817
	c-0.104,0.063-0.213,0.124-0.325,0.184C142.776,353.941,142.885,353.88,142.989,353.817z M144.008,353.106
	c-0.021,0.018-0.038,0.031-0.06,0.049C143.97,353.138,143.988,353.123,144.008,353.106z M142.54,354.068
	c-0.149,0.077-0.305,0.148-0.466,0.217C142.235,354.218,142.39,354.145,142.54,354.068z M140.235,354.723
	c0.161-0.008,0.319-0.022,0.476-0.047C140.554,354.7,140.395,354.716,140.235,354.723z M141.385,354.531
	c-0.178,0.052-0.36,0.095-0.546,0.128C141.025,354.626,141.208,354.583,141.385,354.531z M136.673,353.155
	c0.205,0.216,0.411,0.397,0.619,0.563C137.084,353.552,136.878,353.371,136.673,353.155z M141.933,354.342
	c-0.134,0.053-0.271,0.102-0.412,0.146C141.661,354.443,141.799,354.394,141.933,354.342z M138.012,354.206
	c-0.186-0.102-0.371-0.225-0.556-0.361C137.641,353.981,137.826,354.104,138.012,354.206z M138.862,354.559
	c0.175,0.052,0.349,0.092,0.521,0.118C139.21,354.651,139.036,354.611,138.862,354.559z M140.087,354.73
	c-0.197,0.002-0.396-0.007-0.598-0.033C139.691,354.723,139.889,354.732,140.087,354.73z M144.523,352.658
	c0.014-0.013,0.021-0.02,0.032-0.03C144.547,352.635,144.533,352.649,144.523,352.658z M143.491,353.495
	c-0.111,0.078-0.232,0.156-0.356,0.234C143.259,353.651,143.379,353.573,143.491,353.495
	C143.49,353.496,143.491,353.495,143.491,353.495z M138.702,354.51c-0.207-0.07-0.413-0.154-0.621-0.264
	C138.288,354.356,138.495,354.44,138.702,354.51z M144.356,352.812c-0.022,0.02-0.041,0.036-0.065,0.058
	C144.313,352.85,144.335,352.831,144.356,352.812z"></path>
<path id="color_x5F_2" fill="#2dd4fb" d="M383.319,393.931l12.781,17.938c-2.61,0.852-4.909,2.376-6.712,4.364l-13.865-19.458
	C378.418,396.545,381.086,395.527,383.319,393.931z M515.429,338.701l-103.959,76.51c1.979,1.815,3.496,4.124,4.331,6.745
	l105.954-77.978C519.203,342.81,517.019,340.982,515.429,338.701z M347.408,398.812c2.842,0.912,5.328,2.613,7.199,4.85l12.85-8.406
	c-2.54-1.238-4.697-3.134-6.235-5.481L347.408,398.812z M332.642,401.693c2.043-1.708,4.532-2.892,7.265-3.375l-5.31-10.07
	l-5.013-9.508c-2.144,1.584-4.7,2.639-7.486,2.953l5.759,10.925L332.642,401.693z M126.035,450.244
	c-7.784,4.833-14.512,8.85-19.735,11.74c1.649,2.08,2.778,4.576,3.196,7.294c5.5-2.976,13.024-7.401,23.432-13.912
	c4.428-2.77,9.386-5.924,14.924-9.497c-0.531-3.088-1.018-6.018-1.418-8.585C139.118,442.017,132.242,446.389,126.035,450.244z
	 M215.885,410.11c-2.171,0-4.238-0.445-6.116-1.247l1.668,26.58c1.411-0.419,2.901-0.652,4.448-0.652
	c1.225,0,2.41,0.155,3.554,0.422l-1.584-25.24C217.207,410.054,216.553,410.11,215.885,410.11z M201.491,400.534
	c-13.755,9.424-27.783,18.86-40.961,27.543c-0.473,3.551-0.942,7.052-1.4,10.456c18.526-12.141,36.786-24.522,47.252-31.671
	C204.249,405.219,202.546,403.051,201.491,400.534z M306.751,373.859l-84.855,62.135c2.617,1.094,4.86,2.888,6.525,5.138
	l83.996-61.506C310.059,378.232,308.099,376.245,306.751,373.859z M407.322,188.385c1.589,7.258,2.434,14.792,2.434,22.52
	c0,31.75-14.128,60.259-36.426,79.572c13.726,7.987,29.679,12.565,46.702,12.565c51.359,0,92.995-41.635,92.995-92.995
	c0-6.311-0.633-12.475-1.83-18.433c-0.02-0.099-0.036-0.199-0.057-0.298l-0.229,0.068l-90.88,26.958l10.45-39.778l15.218-57.922
	c-8.153-2.336-16.764-3.59-25.668-3.59c-17.522,0-33.911,4.85-47.902,13.275C389.618,145.026,402.269,165.299,407.322,188.385z
	 M349.504,213.547h-22.395c0.241,6.51,1.149,12.849,2.662,18.95h19.732c1.933,0,3.5,1.567,3.5,3.5s-1.567,3.5-3.5,3.5h-17.703
	c5.759,17.26,16.439,32.266,30.377,43.355c21.066-16.921,34.578-42.882,34.578-71.947c0-5.959-0.575-11.787-1.66-17.435
	c-4.295-22.359-16.687-41.874-33.997-55.36c-9.179,7.528-16.889,16.778-22.64,27.256c-2.652,4.832-4.888,9.924-6.658,15.23h17.703
	c1.933,0,3.5,1.567,3.5,3.5s-1.567,3.5-3.5,3.5h-19.732c-1.512,6.101-2.421,12.44-2.662,18.95h22.395c1.933,0,3.5,1.567,3.5,3.5
	S351.436,213.547,349.504,213.547z M132.595,343.931c-0.337-4.192,1.124-7.843,3.344-8.676c-0.619-1.149-1.278-2.317-1.949-3.461
	c-3.045-5.194-12.103-20.965-16.804-28.178c1.129-0.64,2.2-1.272,3.187-1.868c3.257-1.97,0.552-1.444,6.917-4.789
	c-0.021,0.251-0.01,0.54,0.017,0.848c0.519,5.838,9.337,21.541,9.126,37.319c0.225-0.042,0.454-0.063,0.69-0.046
	c0.198,0.015,0.499,0.129,0.871,0.315c1.186,0.595,3.141,1.98,5.146,3.65l42.231-36.991c-3.05-8.789-6.043-19.969-9.64-26.194
	c-2.343-5.612-5.22-10.072-8.281-13.498c-1.127-1.262-0.778-2.985-0.353-4.61c0.475-1.815,1.044-3.508-0.243-4.292h-0.001
	l-19.389-4.658c0,2.796-0.766,4.159-1.583,5.251c-7.003,2.554-18.29,11.012-28.163,20.745c-8.288,8.169-15.582,17.235-18.503,24.469
	c-0.226,0.226-2.908,6.279-0.919,8.59c0.075,0.088,0.554,0.686,1.336,1.654C104.828,315.939,123.78,339.101,132.595,343.931z
	 M158.167,340.994l-8.089,7.086c-0.634,1.487-3.261,3.199-4.625,4.009c-0.497,0.294-0.832,0.475-0.832,0.475
	s-0.025,0.025-0.065,0.064c-0.011,0.011-0.018,0.018-0.032,0.03c-0.042,0.04-0.098,0.092-0.167,0.154
	c-0.022,0.02-0.041,0.036-0.065,0.058c-0.081,0.071-0.174,0.149-0.282,0.236c-0.021,0.018-0.038,0.031-0.06,0.049
	c-0.136,0.107-0.287,0.222-0.457,0.34c0,0,0,0.001,0,0.001c0.172,0.595,0.291,1.204,0.383,1.821H168.4h2.837
	c-0.003-0.001-0.015-0.003-0.015-0.003h-1.805c0.902-4.629,2.201-17.522,3.55-27.283L158.167,340.994z M201.539,330.892
	c9.06-6.139,22.267-18.566,29.144-28.351l-6.879-7.329c-5.886,3.596-27.832,15.104-31.402,19.406
	c-0.718-0.282-1.413-0.901-2.091-1.779l-13.206,11.566C185.062,330.981,194.74,335.959,201.539,330.892z M327.01,437.489
	c-0.387-14.68-18.227-14.093-26.369,0c-8.145,14.093,0,57.545,0,57.545l5.771,1.049h1.053c-1.182-8.675-1.02-17.514-0.406-26.243
	c0.746-10.613,1.551-21.462,5.346-31.496c0.773-2.046,4.086-1.16,3.305,0.909c-1.557,4.113-2.602,8.375-3.359,12.7
	c-0.674,4.58-1.203,9.177-1.598,13.788c-0.098,1.369-0.186,2.736-0.268,4.099c-0.521,8.765-0.771,17.566,0.449,26.243h9.068
	c0.033-3.203,0.297-9.55,1.58-19.253C323.519,462.15,327.398,452.169,327.01,437.489z M261.109,460.703
	c6.999,7.213,14.723,14.038,22.659,20.208c3.937,3.058,8.062,5.951,11.524,9.47c-1.305-5.392-2.338-10.837-2.896-16.352
	c-7.561-9.073-16.473-18.025-23.628-20.144c-15.606-4.622-28.953,7.228-19.134,18.147c9.545,10.61,18.966,15.244,30.052,24.05h15.32
	c-3.021-3.101-6.072-6.172-9.146-9.22c-2.014-1.534-4.05-3.055-5.974-4.711c-7.206-6.205-14.568-12.192-21.2-19.026
	C257.148,461.541,259.569,459.115,261.109,460.703z M351.158,454.458c-7.154,2.119-17.389,11.071-24.947,20.145
	c-0.695,6.857-1.051,13.603-2.631,20.275c5.23-6.12,11.291-11.393,17.338-16.745c6.598-5.842,12.572-12.305,19.826-17.368
	c1.816-1.268,3.527,1.704,1.729,2.96c-7.543,5.264-13.955,12.094-20.787,18.225c-5.063,4.541-10.168,9.043-14.654,14.134h13.943
	c10.768-8.434,19.984-13.103,29.318-23.478C380.111,461.686,366.765,449.837,351.158,454.458z"></path>
<path id="color_x5F_1" fill="#0984E3" d="M528.233,174.223l-29.39,8.718l-61.719,18.308l6.972-26.538l18.696-71.162
	C495.794,113.006,521.283,140.238,528.233,174.223z M159.129,438.533c0.458-3.404,0.927-6.905,1.4-10.456
	c3.998-29.98,8.28-63.298,8.28-68.451c0-1.479-0.146-2.919-0.41-4.309h-24.525c-0.092-0.617-0.211-1.227-0.384-1.821
	c-0.111,0.077-0.231,0.155-0.355,0.233c-0.048,0.029-0.096,0.059-0.146,0.088c-0.104,0.063-0.213,0.124-0.325,0.184
	c-0.042,0.022-0.082,0.046-0.124,0.067c-0.149,0.077-0.305,0.148-0.466,0.217c-0.046,0.02-0.094,0.038-0.141,0.057
	c-0.134,0.053-0.271,0.102-0.412,0.146c-0.045,0.015-0.089,0.029-0.135,0.043c-0.178,0.052-0.36,0.095-0.546,0.128
	c-0.043,0.007-0.086,0.012-0.129,0.018c-0.156,0.024-0.315,0.039-0.476,0.047c-0.049,0.002-0.098,0.006-0.148,0.007
	c-0.197,0.002-0.396-0.007-0.598-0.033c-0.035-0.005-0.071-0.014-0.106-0.02c-0.172-0.026-0.346-0.066-0.521-0.118
	c-0.053-0.016-0.106-0.031-0.16-0.049c-0.207-0.07-0.413-0.154-0.621-0.264c-0.023-0.012-0.046-0.028-0.069-0.041
	c-0.186-0.102-0.371-0.225-0.556-0.361c-0.055-0.041-0.109-0.082-0.164-0.126c-0.208-0.166-0.414-0.348-0.619-0.563
	c-0.172-0.182-0.321-0.373-0.482-0.56c-0.616-0.72-1.137-1.477-1.585-2.252c-1.16-2.007-1.789-4.148-1.983-6.18
	c-5.057-0.864-10.921,0.574-15.844,4.396l-33.277,25.829l-3.851,2.988c-8.29,6.435-10.752,17.135-5.5,23.901
	c4.274,5.508,12.343,6.709,19.667,3.495c1.674-0.734,3.309-1.697,4.851-2.895l36.159-28.065c3.128,14.297,9.139,34.472,15.083,45.11
	c-2.703,1.794-4.555,5.413-4.555,9.597c0,1.337,0.422,4.564,1.077,8.764c0.4,2.567,0.887,5.497,1.418,8.585
	c0.972,5.652,2.091,11.823,3.091,17.234c1.545,8.357,2.807,14.899,2.807,14.899s0.747-5.392,1.906-13.868
	C156.599,457.236,157.816,448.296,159.129,438.533z M152.067,229.619c0.769,0.832,1.591,1.559,2.435,2.223
	c0.193,0.153,0.381,0.324,0.577,0.467c0.023,0.021,0.045,0.037,0.076,0.052c2.222,1.618,4.609,2.639,6.88,2.982
	c1.208,0.19,2.377,0.188,3.477-0.015c-0.652-0.209-1.267-0.532-1.812-0.953c-0.575-0.435-1.068-0.987-1.457-1.636
	c-0.895-1.483-0.893-3.352,0.479-4.523c1.842-1.567,4.697-1.067,6.332,0.51c0.857,0.825,1.424,1.912,1.73,3.081
	c1.713-2.707,1.918-6.524,0.67-10.43c-0.856-0.365,7.98,0.417,8.683,0.502l0.104,0.013l0.006,0.001
	c4.854,0.525,9.242-3.004,9.837-7.936c0.6-4.962-2.878-9.472-7.774-10.063c-3.619-0.438-6.759,1.625-11.05,1.125
	c-0.979-0.119-1.732-0.222-2.316-0.318c-2.987-0.491-1.733-0.775-5.153-1.188c-0.171-0.021-0.343-0.042-0.508-0.056l-0.05-0.006
	c-13.223-0.467-15.479,7.914-15.754,13.616c-0.215,4.454,1.994,9.372,3.405,11.165C151.268,228.716,151.66,229.178,152.067,229.619z
	 M190.834,335.25c0.37-0.137,0.761-0.199,1.168-0.169c0.198,0.015,0.499,0.129,0.871,0.315l-2.048-1.843
	C190.827,334.131,190.831,334.693,190.834,335.25z M176.022,229.479c-0.077,0.799,0.261,1.488,0.746,1.542
	c0.493,0.053,0.946-0.553,1.027-1.348c0.079-0.798-0.26-1.488-0.748-1.54C176.554,228.079,176.098,228.683,176.022,229.479z
	 M373.33,290.477c-18.463,15.992-42.528,25.678-68.813,25.678c-24.583,0-47.218-8.478-65.152-22.651
	c-3.272-2.586-6.393-5.356-9.335-8.305c-1.267-1.27-2.501-2.571-3.703-3.904l-36.015,31.545l-13.206,11.566l-4.138,3.625
	l-14.8,12.963l-8.089,7.086l-1.261,1.104c-2.36,2.07-5.95,1.83-8.02-0.529c-0.95-1.08-1.41-2.41-1.41-3.74
	c0-0.464,0.064-0.927,0.177-1.379c0.271-1.088,0.859-2.11,1.763-2.9l1.263-1.106l0.551-0.482l42.231-36.991l33.805-29.61
	c-7.072-9.778-12.504-20.82-15.896-32.716c-2.613-9.164-4.015-18.833-4.015-28.824c0-58.03,47.21-105.24,105.25-105.24
	c25.721,0,49.312,9.28,67.613,24.662c17.488,14.699,30.14,34.972,35.192,58.059c1.589,7.258,2.434,14.792,2.434,22.52
	C409.756,242.655,395.628,271.164,373.33,290.477z M362.177,282.852c21.066-16.921,34.578-42.882,34.578-71.947
	c0-5.959-0.575-11.787-1.66-17.435c-4.295-22.359-16.687-41.874-33.997-55.36c-15.634-12.18-35.275-19.445-56.582-19.445
	c-50.87,0-92.25,41.38-92.25,92.24c0,7.82,0.992,15.41,2.832,22.666c2.791,11.003,7.55,21.23,13.908,30.264
	c2.18,3.11,4.55,6.08,7.1,8.9c16.89,18.67,41.3,30.42,68.41,30.42C326.317,303.155,346.372,295.547,362.177,282.852z
	 M150.716,496.825h32.141l-29.107-18.822L150.716,496.825z M215.885,378.904c-8.617,0-15.603,6.985-15.603,15.603
	c0,2.137,0.432,4.173,1.209,6.027c1.055,2.517,2.758,4.686,4.89,6.328c1.037,0.799,2.167,1.48,3.387,2.001
	c1.878,0.802,3.945,1.247,6.116,1.247c0.668,0,1.323-0.056,1.969-0.138c7.686-0.97,13.634-7.518,13.634-15.466
	C231.488,385.889,224.502,378.904,215.885,378.904z M228.421,441.132c-1.665-2.25-3.908-4.044-6.525-5.138
	c-0.787-0.329-1.611-0.584-2.457-0.781c-1.144-0.267-2.329-0.422-3.554-0.422c-1.546,0-3.037,0.233-4.448,0.652
	c-6.449,1.916-11.155,7.88-11.155,14.95c0,3.757,1.329,7.202,3.541,9.895c2.862,3.485,7.202,5.709,12.063,5.709
	c8.618,0,15.604-6.986,15.604-15.604c0-0.08-0.011-0.157-0.012-0.236C231.426,446.776,230.295,443.664,228.421,441.132z
	 M335.936,366.196c0-8.617-6.985-15.603-15.604-15.603c-8.617,0-15.603,6.985-15.603,15.603c0,2.787,0.739,5.398,2.021,7.663
	c1.349,2.386,3.309,4.373,5.666,5.767c2.323,1.372,5.022,2.174,7.916,2.174c0.598,0,1.185-0.041,1.766-0.106
	c2.786-0.314,5.343-1.369,7.486-2.953C333.431,375.898,335.936,371.345,335.936,366.196z M347.408,398.812
	c-1.504-0.482-3.104-0.748-4.769-0.748c-0.934,0-1.844,0.097-2.732,0.254c-2.732,0.483-5.222,1.667-7.265,3.375
	c-3.425,2.862-5.605,7.162-5.605,11.974c0,8.617,6.985,15.604,15.603,15.604c8.618,0,15.604-6.986,15.604-15.604
	c0-3.809-1.368-7.296-3.636-10.005C352.736,401.426,350.25,399.724,347.408,398.812z M389.875,381.235
	c0-8.617-6.985-15.603-15.604-15.603c-8.617,0-15.603,6.985-15.603,15.603c0,3.154,0.943,6.085,2.553,8.539
	c1.538,2.348,3.695,4.243,6.235,5.481c2.062,1.004,4.367,1.583,6.814,1.583c0.423,0,0.838-0.03,1.252-0.063
	c2.895-0.23,5.563-1.248,7.796-2.844C387.283,391.102,389.875,386.475,389.875,381.235z M411.47,415.211
	c-2.777-2.548-6.468-4.115-10.533-4.115c-1.689,0-3.313,0.276-4.837,0.773c-2.61,0.852-4.909,2.376-6.712,4.364
	c-2.511,2.77-4.054,6.433-4.054,10.465c0,8.617,6.985,15.604,15.603,15.604c8.618,0,15.604-6.986,15.604-15.604
	c0-1.654-0.262-3.246-0.739-4.742C414.967,419.335,413.45,417.026,411.47,415.211z M528.232,314.193c-3.22,0-6.21,0.977-8.695,2.647
	c-1.162,0.782-2.206,1.724-3.118,2.781c-2.355,2.733-3.789,6.283-3.789,10.174c0,3.313,1.04,6.379,2.8,8.905
	c1.59,2.281,3.773,4.109,6.326,5.277c1.975,0.904,4.163,1.421,6.477,1.421c8.618,0,15.604-6.986,15.604-15.604
	S536.85,314.193,528.232,314.193z M106.301,461.984c-0.209-0.264-0.419-0.526-0.645-0.775c-0.34-0.377-0.699-0.736-1.074-1.078
	c-2.527-2.305-5.82-3.805-9.499-4.041c-3.236-0.208-6.305,0.588-8.903,2.117c-0.58,0.342-1.126,0.731-1.656,1.143
	c-3.404,2.646-5.713,6.669-6.011,11.31c-0.553,8.6,5.97,16.02,14.57,16.572c8.6,0.553,16.02-5.972,16.572-14.57
	c0.074-1.154,0.012-2.284-0.157-3.383C109.079,466.56,107.949,464.064,106.301,461.984z M349.504,180.597h-17.703h-71.845
	c-1.933,0-3.5,1.567-3.5,3.5s1.567,3.5,3.5,3.5h69.815h19.732c1.933,0,3.5-1.567,3.5-3.5S351.436,180.597,349.504,180.597z
	 M349.504,206.547h-22.395h-67.153c-1.933,0-3.5,1.567-3.5,3.5s1.567,3.5,3.5,3.5h67.153h22.395c1.933,0,3.5-1.567,3.5-3.5
	S351.436,206.547,349.504,206.547z M349.504,232.496h-19.732h-69.815c-1.933,0-3.5,1.567-3.5,3.5s1.567,3.5,3.5,3.5h71.845h17.703
	c1.933,0,3.5-1.567,3.5-3.5S351.436,232.496,349.504,232.496z"></path>
</svg>