<?xml version="1.0" standalone="no"?>
<svg version="1.1" id="Layer_1" xmlns="http://www.w3.org/2000/svg" xmlns:xlink="http://www.w3.org/1999/xlink" x="0px" y="0px" width="595.279px" height="595.279px" viewBox="0 0.001 595.279 595.279" enable-background="new 0 0.001 595.279 595.279" xml:space="preserve">
<path id="color_x5F_5" fill="#FFD2BB" d="M248.952,227.157c0,1.748-0.413,3.396-1.136,4.864c-0.722,1.467-1.758,2.748-3.023,3.76
	c-1.28,1.024-2.788,1.776-4.441,2.153c-0.793,0.181-1.614,0.285-2.462,0.285c-2.244,0-4.328-0.672-6.071-1.82
	c-3.004-1.978-4.99-5.376-4.99-9.242c0-3.792,1.91-7.137,4.819-9.129c1.318-0.903,2.844-1.518,4.489-1.781
	c0.572-0.091,1.155-0.152,1.753-0.152C243.999,216.095,248.952,221.048,248.952,227.157z M320.856,206.002
	c0.713,2.057-1.957,6.182-3.201,6.615l-4.949,1.723l-0.102,1.201c-0.426,5.023-3.014,9.797-6.838,13.211
	c-0.563,0.498-1.15,0.97-1.757,1.385c-0.48,0.357-0.967,0.678-1.477,0.979l0.404,6.99c0,0.001-0.002,0.002-0.004,0.004l0.318,5.478
	l0.264,4.531l0.219,3.765c-2.313,2.861-5.584,4.973-9.459,5.795c-3.707,0.783-7.385,0.256-10.561-1.261
	c-3.012-1.438-5.571-3.765-7.262-6.729l0.199-0.882l0.218-0.969l0.957-4.249l1.616-7.169l0.729-3.244
	c0.001,0.002,0.001,0.002,0.001,0.002l0.806-3.582c0-0.001-0.001-0.002-0.002-0.003c-0.418-0.352-0.817-0.72-1.197-1.104
	c-0.656-0.653-1.245-1.351-1.783-2.074c-1.582-2.127-2.666-4.499-3.344-6.82c-0.509-0.442-0.788-1.184-0.601-2.579
	c-0.137-0.797-0.219-1.568-0.263-2.31c-0.053-0.868-0.048-1.692,0.015-2.442l0.111-1.314l-4.346-2.395
	c-2.512-1.386-3.427-4.544-2.041-7.058c0.978-1.774,2.841-2.747,4.737-2.681l3.776,10.379l1.248-14.754
	c0.893,0.148,1.797,0.273,2.726,0.352c9.019,0.763,17.226-2.044,22.218-6.895l1.5,0.481l0.008-0.011
	c2.308,2.174,5.192,4.006,8.503,5.339l-1.592,18.411l5.465-9.598C318.204,202.59,320.128,203.914,320.856,206.002z M288.635,206.733
	c-0.699-1.777-1.905-3.342-3.901-3.646c-1.953-0.298-3.559,0.886-4.702,2.342c-0.699,0.891,0.813,1.788,1.502,0.911
	c1.771-2.252,4.363-1.801,5.401,0.833C287.343,208.212,289.052,207.787,288.635,206.733z M308.385,207.301
	c-1.047-1.527-2.572-2.812-4.54-2.641c-2.012,0.176-3.316,1.656-4.129,3.386c-0.484,1.026,1.191,1.56,1.668,0.55
	c1.207-2.562,3.823-2.844,5.442-0.482C307.458,209.033,309.026,208.237,308.385,207.301z M284.275,320.146
	c-2.928,0-5.592,1.103-7.624,2.903v17.151h15.321c1.367-1.232,2.434-2.785,3.086-4.543c0-0.002,0.001-0.004,0.002-0.006
	c0.462-1.246,0.727-2.588,0.727-3.994c0-2.31-0.687-4.456-1.858-6.259C291.876,322.24,288.323,320.146,284.275,320.146z
	 M343.635,141.954c-6.303-1.339-12.496,2.686-13.836,8.988c-0.756,3.563,0.203,7.089,2.316,9.726
	c1.625,2.027,3.933,3.528,6.673,4.11c0.115,0.024,0.23,0.034,0.346,0.055c1.503-4.756,3.197-7.787,5.016-7.413
	c1.374,0.282,2.734,2.26,4.03,5.288c2.193-1.634,3.831-4.033,4.443-6.919c0.643-3.025,0.04-6.019-1.447-8.469
	C349.565,144.666,346.914,142.651,343.635,141.954z M413.366,219.791c-1.145-4.027-4.419-7.305-8.799-8.235
	c-6.303-1.339-12.497,2.686-13.836,8.988c-0.075,0.352-0.127,0.703-0.169,1.053c-0.434,3.629,0.869,7.129,3.311,9.591
	c3.83-2.209,6.729-3.114,7.771-1.737c0.707,0.934,0.613,2.764-0.027,5.16c5.604,0.26,10.734-3.552,11.938-9.219
	C413.964,223.469,413.868,221.558,413.366,219.791z"></path>
<path id="color_x5F_4" fill="#000000" d="M366.078,421.001c0.009,0.21,0.032,0.417,0.032,0.629c0,8.928-7.237,16.166-16.166,16.166
	h-4.555c0.936-6.972,0.988-12.47,0.345-16.795H366.078z M249.565,421.001h-15.013c-0.008,0.21-0.032,0.417-0.032,0.629
	c0,8.702,6.882,15.78,15.499,16.133C249.023,430.799,248.937,425.313,249.565,421.001z M287.846,434.868
	c0.166,0.945,0.325,1.925,0.479,2.928h18.823c0.136-0.944,0.276-1.867,0.422-2.76c0.92-5.625,2.061-10.245,3.381-14.035h-26.598
	C285.698,424.753,286.875,429.317,287.846,434.868z M332.116,160.668c-2.113-2.636-3.072-6.163-2.316-9.726
	c1.34-6.303,7.533-10.327,13.836-8.988c3.278,0.696,5.93,2.712,7.541,5.367l10.934-7.656l-24.263-34.652l-43.485,30.449
	l24.264,34.652L332.116,160.668z M386.857,287.541v43.697c0,4.367-3.044,8.017-7.125,8.963h-78.678
	c-0.018-0.004-0.034-0.009-0.052-0.014c-0.97-0.23-1.877-0.613-2.701-1.124c-0.039-0.023-0.078-0.046-0.116-0.07
	c-0.17-0.108-0.335-0.225-0.498-0.344c-0.057-0.042-0.114-0.084-0.17-0.127c-0.15-0.116-0.296-0.236-0.439-0.361
	c-0.063-0.054-0.123-0.11-0.183-0.166c-0.134-0.124-0.267-0.25-0.394-0.381c-0.061-0.064-0.119-0.131-0.178-0.196
	c-0.121-0.133-0.243-0.266-0.356-0.406c-0.048-0.06-0.092-0.124-0.139-0.185c-0.189-0.248-0.366-0.505-0.53-0.771
	c-0.072-0.117-0.146-0.231-0.213-0.352c-0.009-0.016-0.02-0.031-0.029-0.047c0-0.002,0.001-0.004,0.002-0.006
	c0.462-1.246,0.727-2.588,0.727-3.994c0-2.31-0.687-4.456-1.858-6.259v-37.858c0-5.087,4.124-9.211,9.211-9.211h2.009h7.44h38.733
	h24.922h1.401C382.734,278.33,386.857,282.454,386.857,287.541z M343.53,311.037l3.137-3.057l-4.336-0.63l-1.938-3.928l-1.939,3.928
	l-4.334,0.63l3.137,3.057l-0.74,4.316l3.877-2.037l3.877,2.037L343.53,311.037z"></path>
<path id="color_x5F_3" fill="#254899" d="M288.325,437.796c3.799,24.711,4.114,66.018-3.251,74.823l-0.52,22.592h-29.733
	l22.318-23.66c-10.033-10.396-22.637-47.813-26.548-70.161c-0.22-1.257-0.405-2.456-0.572-3.627
	c-0.996-6.964-1.082-12.449-0.454-16.762h34.789c1.344,3.752,2.521,8.316,3.493,13.867
	C288.012,435.813,288.171,436.793,288.325,437.796z M310.951,421.001c-1.32,3.79-2.461,8.41-3.381,14.035
	c-0.146,0.893-0.286,1.815-0.422,2.76c-2.773,19.35-3.295,48.95,0.191,65.107l0.743,32.308h29.733l-20.639-21.88
	c10.204-7.13,23.814-48.299,27.719-72.193c0.188-1.154,0.348-2.26,0.493-3.342c0.936-6.972,0.988-12.47,0.345-16.795H310.951z
	 M312.245,193.706l-1.592,18.411l5.465-9.598l0.008-0.012c0,0,7.881-7.965,0.965-14.672c-0.152-0.678-3.203-2.266-3.432-2.916
	c0,0,3.949-6.683-4.115-13.644c-17.508-15.11-45.279,6.917-38.99,15.511c1.608,2.198,1.766,2.605,2.467,3.564l-0.76,8.448
	l0.005,0.015l3.776,10.379l1.248-14.754c0.893,0.148,1.797,0.273,2.726,0.352c9.019,0.763,17.226-2.044,22.218-6.895l1.5,0.481
	l0.008-0.011v-0.004c2.306,2.174,5.194,4,8.505,5.333L312.245,193.706z M250.42,235.537l-2.604-3.516
	c-0.722,1.467-1.758,2.748-3.023,3.76l1.876,2.533c0.767,1.036,2.229,1.253,3.265,0.486
	C250.969,238.035,251.187,236.573,250.42,235.537z M225.848,206.272c-1.036,0.767-1.254,2.229-0.487,3.265l6.287,8.491
	c1.318-0.903,2.844-1.518,4.489-1.781l-7.025-9.487C228.345,205.724,226.883,205.506,225.848,206.272z M412.755,174.471
	c-0.02-0.277-0.286-0.489-0.534-0.463l-27.25,1.917c-0.275,0.019-0.483,0.258-0.464,0.534c0.019,0.264,0.238,0.465,0.498,0.465
	c0.013,0,0.024,0,0.036-0.001l27.25-1.917C412.566,174.986,412.774,174.747,412.755,174.471z M413.755,182.52
	c-0.02-0.277-0.28-0.49-0.534-0.463l-27.25,1.917c-0.275,0.019-0.483,0.258-0.464,0.534c0.019,0.264,0.238,0.465,0.498,0.465
	c0.013,0,0.024,0,0.036-0.001l27.25-1.917C413.566,183.035,413.774,182.796,413.755,182.52z M414.311,190.611
	c-0.02-0.277-0.281-0.49-0.534-0.463l-27.25,1.917c-0.275,0.019-0.483,0.258-0.464,0.534c0.019,0.264,0.238,0.465,0.498,0.465
	c0.013,0,0.024,0,0.036-0.001l27.25-1.917C414.123,191.125,414.331,190.886,414.311,190.611z M415.267,198.618
	c-0.02-0.277-0.284-0.481-0.534-0.463l-27.25,1.917c-0.275,0.019-0.483,0.258-0.464,0.534c0.019,0.264,0.238,0.465,0.498,0.465
	c0.013,0,0.024,0,0.036-0.001l27.25-1.917C415.079,199.133,415.287,198.893,415.267,198.618z M415.733,205.245l-27.25,1.917
	c-0.275,0.019-0.483,0.258-0.464,0.534c0.019,0.264,0.238,0.465,0.498,0.465c0.013,0,0.024,0,0.036-0.001l27.25-1.917
	c0.275-0.019,0.483-0.258,0.464-0.534C416.248,205.432,415.979,205.221,415.733,205.245z M301.385,208.596
	c1.207-2.562,3.823-2.844,5.442-0.482c0.631,0.92,2.199,0.123,1.559-0.813c-1.047-1.527-2.572-2.812-4.54-2.641
	c-2.012,0.176-3.316,1.656-4.129,3.386C299.232,209.073,300.908,209.606,301.385,208.596z M286.935,207.173
	c0.408,1.039,2.117,0.614,1.7-0.44c-0.699-1.777-1.905-3.342-3.901-3.646c-1.953-0.298-3.559,0.886-4.702,2.342
	c-0.699,0.891,0.813,1.788,1.502,0.911C283.304,204.088,285.897,204.539,286.935,207.173z"></path>
<path id="color_x5F_2" fill="#2d7efb" d="M390.562,221.597c0.042-0.35,0.094-0.701,0.169-1.053
	c1.339-6.303,7.533-10.327,13.836-8.988c4.38,0.931,7.654,4.208,8.799,8.235l10.295-0.815l-4.268-53.872l-42.928,3.401l4.268,53.871
	L390.562,221.597z M416.267,205.708c0.02,0.275-0.188,0.515-0.464,0.534l-27.25,1.917c-0.012,0.001-0.023,0.001-0.036,0.001
	c-0.26,0-0.479-0.201-0.498-0.465c-0.02-0.275,0.188-0.515,0.464-0.534l27.25-1.917
	C415.979,205.221,416.248,205.432,416.267,205.708z M415.267,198.618c0.02,0.275-0.188,0.515-0.464,0.534l-27.25,1.917
	c-0.012,0.001-0.023,0.001-0.036,0.001c-0.26,0-0.479-0.201-0.498-0.465c-0.02-0.275,0.188-0.515,0.464-0.534l27.25-1.917
	C414.983,198.137,415.248,198.341,415.267,198.618z M414.311,190.611c0.02,0.275-0.188,0.515-0.464,0.534l-27.25,1.917
	c-0.012,0.001-0.023,0.001-0.036,0.001c-0.26,0-0.479-0.201-0.498-0.465c-0.02-0.275,0.188-0.515,0.464-0.534l27.25-1.917
	C414.03,190.12,414.292,190.334,414.311,190.611z M413.755,182.52c0.02,0.275-0.188,0.515-0.464,0.534l-27.25,1.917
	c-0.012,0.001-0.023,0.001-0.036,0.001c-0.26,0-0.479-0.201-0.498-0.465c-0.02-0.275,0.188-0.515,0.464-0.534l27.25-1.917
	C413.474,182.031,413.735,182.243,413.755,182.52z M384.97,175.925l27.25-1.917c0.248-0.026,0.515,0.187,0.534,0.463
	c0.02,0.275-0.188,0.515-0.464,0.534l-27.25,1.917c-0.012,0.001-0.023,0.001-0.036,0.001c-0.26,0-0.479-0.201-0.498-0.465
	C384.487,176.183,384.695,175.944,384.97,175.925z M237.305,150.869c-0.781-0.781-0.781-2.047,0-2.828
	c0.78-0.781,2.048-0.781,2.828,0l9.061,9.061c0.781,0.781,0.781,2.047,0,2.828c-0.39,0.391-0.902,0.586-1.414,0.586
	s-1.024-0.195-1.414-0.586L237.305,150.869z M501.58,188.646h12.813c1.104,0,2,0.895,2,2c0,1.104-0.896,2-2,2H501.58
	c-1.104,0-2-0.896-2-2C499.58,189.54,500.475,188.646,501.58,188.646z M243.645,135.564h12.813c1.104,0,2,0.896,2,2s-0.896,2-2,2
	h-12.813c-1.104,0-2-0.896-2-2S242.54,135.564,243.645,135.564z M237.305,127.088c-0.781-0.781-0.781-2.047,0-2.828l9.061-9.061
	c0.78-0.781,2.048-0.781,2.828,0c0.781,0.781,0.781,2.047,0,2.828l-9.061,9.061c-0.39,0.391-0.902,0.586-1.414,0.586
	S237.695,127.478,237.305,127.088z M298.302,339.063c0.824,0.511,1.731,0.894,2.701,1.124c0.017,0.004,0.031,0.01,0.048,0.014
	h-9.078c1.367-1.232,2.434-2.785,3.086-4.543c0.009,0.016,0.02,0.031,0.029,0.047c0.067,0.12,0.142,0.234,0.213,0.352
	c0.164,0.266,0.34,0.522,0.53,0.771c0.047,0.061,0.09,0.125,0.139,0.185c0.113,0.141,0.235,0.273,0.356,0.406
	c0.059,0.065,0.117,0.133,0.178,0.196c0.126,0.131,0.259,0.257,0.394,0.381c0.061,0.056,0.121,0.112,0.183,0.166
	c0.143,0.125,0.289,0.245,0.439,0.361c0.056,0.043,0.113,0.085,0.17,0.127c0.163,0.119,0.327,0.235,0.498,0.344
	C298.224,339.017,298.263,339.04,298.302,339.063z M495.24,180.169c-0.781-0.781-0.781-2.047,0-2.828l9.061-9.061
	c0.781-0.781,2.047-0.781,2.828,0s0.781,2.047,0,2.828l-9.061,9.061c-0.391,0.391-0.902,0.586-1.414,0.586
	S495.631,180.56,495.24,180.169z M276.651,250.01c-0.065-0.108-0.136-0.212-0.199-0.322c1.69,2.965,4.25,5.291,7.262,6.729
	c3.176,1.517,6.854,2.044,10.561,1.261c3.875-0.822,7.147-2.934,9.459-5.795l-0.219-3.765l-0.264-4.531h1.897v34.742h-2.009
	c-5.087,0-9.211,4.124-9.211,9.211v37.858c-2.053-3.159-5.606-5.253-9.654-5.253c-2.928,0-5.592,1.103-7.624,2.903V250.01z
	 M276.869,247.836l-0.218,0.969v-5.218h1.175L276.869,247.836z M462.398,171.109c-0.781-0.781-0.781-2.047,0-2.828
	s2.047-0.781,2.828,0l9.061,9.061c0.781,0.781,0.781,2.047,0,2.828c-0.391,0.391-0.902,0.586-1.414,0.586s-1.023-0.195-1.414-0.586
	L462.398,171.109z M474.287,201.122c0.781,0.781,0.781,2.047,0,2.828l-9.061,9.061c-0.391,0.391-0.902,0.586-1.414,0.586
	s-1.023-0.195-1.414-0.586c-0.781-0.781-0.781-2.047,0-2.828l9.061-9.061C472.24,200.341,473.506,200.341,474.287,201.122z
	 M482.763,220.275V207.46c0-1.105,0.896-2,2-2s2,0.895,2,2v12.814c0,1.104-0.896,2-2,2S482.763,221.378,482.763,220.275z
	 M482.763,173.829v-12.813c0-1.105,0.896-2,2-2s2,0.895,2,2v12.813c0,1.104-0.896,2-2,2S482.763,174.933,482.763,173.829z
	 M423.661,269.672c0-1.104,0.896-2,2-2h5.387v-5.386c0-1.104,0.896-2,2-2s2,0.896,2,2v5.386h5.387c1.104,0,2,0.896,2,2
	c0,1.105-0.896,2-2,2h-5.387v5.387c0,1.105-0.896,2-2,2s-2-0.895-2-2v-5.387h-5.387
	C424.556,271.672,423.661,270.778,423.661,269.672z M495.24,203.95c-0.781-0.781-0.781-2.047,0-2.828s2.047-0.781,2.828,0
	l9.061,9.061c0.781,0.781,0.781,2.047,0,2.828c-0.391,0.391-0.902,0.586-1.414,0.586s-1.023-0.195-1.414-0.586L495.24,203.95z
	 M507.738,175.116c3.225,0,3.225,5,0,5S504.513,175.116,507.738,175.116z M453.135,190.646c0-1.105,0.896-2,2-2h12.813
	c1.104,0,2,0.895,2,2c0,1.104-0.896,2-2,2h-12.813C454.03,192.646,453.135,191.749,453.135,190.646z M497.311,316.686
	c2.152,0,4.056-0.834,5.36-2.352c1.138-1.322,1.765-3.08,1.765-4.945c0-3.627-2.447-7.299-7.125-7.299
	c-2.152,0-4.056,0.836-5.36,2.352c-1.138,1.324-1.765,3.08-1.765,4.947C490.186,313.016,492.634,316.686,497.311,316.686z
	 M494.984,307.052c0.548-0.637,1.33-0.961,2.327-0.961c3.037,0,3.125,2.961,3.125,3.299c0,0.896-0.291,1.748-0.798,2.338
	c-0.548,0.637-1.33,0.959-2.327,0.959c-3.037,0-3.125-2.959-3.125-3.297C494.186,308.493,494.477,307.639,494.984,307.052z
	 M125.244,291.034c0.781,0.781,0.781,2.047,0,2.828l-9.061,9.06c-0.39,0.391-0.902,0.586-1.414,0.586s-1.024-0.195-1.414-0.586
	c-0.781-0.781-0.781-2.047,0-2.828l9.061-9.06C123.196,290.253,124.464,290.253,125.244,291.034z M92.716,482.285
	c-1.451,3.832-2.422,7.799-3.129,11.828c-0.627,4.264-1.12,8.545-1.487,12.842c-0.092,1.273-0.174,2.547-0.248,3.814
	c-0.487,8.164-0.72,16.359,0.417,24.441h-3.23c-1.101-8.08-0.95-16.311-0.377-24.441c0.694-9.885,1.443-19.988,4.978-29.332
	C90.356,479.533,93.443,480.357,92.716,482.285z M514.716,482.285c-1.451,3.832-2.422,7.799-3.13,11.828
	c-0.627,4.264-1.119,8.545-1.486,12.842c-0.093,1.273-0.174,2.547-0.248,3.814c-0.487,8.164-0.721,16.359,0.416,24.441h-3.23
	c-1.101-8.08-0.95-16.311-0.377-24.441c0.693-9.885,1.443-19.988,4.977-29.332C512.355,479.533,515.443,480.357,514.716,482.285z
	 M78.682,534.232l5.374,0.979H77.14v-10.874C77.932,530.23,78.682,534.232,78.682,534.232z M104.092,280.558c0-1.105,0.896-2,2-2
	h12.813c1.104,0,2,0.895,2,2c0,1.104-0.896,2-2,2h-12.813C104.987,282.558,104.092,281.661,104.092,280.558z M180.618,433.001
	h-78.354v31h78.354V433.001z M141.441,454.221c-3.16,0-5.721-2.562-5.721-5.721s2.561-5.721,5.721-5.721s5.721,2.562,5.721,5.721
	S144.601,454.221,141.441,454.221z M492.311,372.403h-78.354v31h78.354V372.403z M453.135,394.442c-3.16,0-5.721-2.562-5.721-5.721
	s2.561-5.721,5.721-5.721s5.721,2.562,5.721,5.721S456.295,394.442,453.135,394.442z M77.14,357.001v127.291
	c0.425-1.369,0.935-2.599,1.542-3.651c7.583-13.123,24.196-13.67,24.557,0c0.361,13.674-3.25,22.967-5.056,36.639
	c-1.194,9.037-1.439,14.947-1.471,17.932h6.547c4.177-4.74,8.933-8.934,13.646-13.164c1.819-1.633,3.606-3.318,5.396-5.008
	c4.468-4.219,8.947-8.463,13.963-11.965c1.676-1.168,0.082-3.936-1.609-2.758c-4.468,3.121-8.416,6.809-12.354,10.523
	c-2.016,1.902-4.03,3.811-6.109,5.652c-5.633,4.986-11.276,9.896-16.146,15.596c1.47-6.215,1.802-12.496,2.448-18.883
	c5.906-7.088,13.559-14.08,19.808-17.32c1.2-0.623,2.354-1.121,3.428-1.439c4.823-1.43,9.408-1.16,13.056,0.197
	c7.344,2.734,10.87,9.908,4.762,16.701c-1.587,1.766-3.172,3.352-4.762,4.814c-5.311,4.893-10.69,8.412-16.484,12.549
	c-1.967,1.404-3.98,2.877-6.057,4.504h90.715v-114.21h27.592h15.013h34.789h26.598h34.783h20.344h22.231v114.21h92.858
	c-10.325-8.203-19.098-12.516-27.987-22.4c-9.144-10.168,3.286-21.205,17.819-16.898c6.664,1.973,14.964,10.311,22.006,18.76
	c0.518,5.137,1.48,10.207,2.696,15.227c-3.226-3.275-7.067-5.971-10.732-8.816c-7.394-5.746-14.585-12.104-21.104-18.82
	c-1.435-1.479-3.69,0.779-2.255,2.256c6.176,6.365,13.031,11.941,19.744,17.719c1.789,1.541,3.688,2.957,5.563,4.389
	c2.861,2.836,5.704,5.697,8.518,8.586h10.621l-5.374-0.979c0,0-7.585-40.465,0-53.592c4.421-7.65,11.907-11.019,17.457-9.795
	V357.001H77.14z M184.618,468.001H98.264v-39h86.354V468.001z M184.618,407.403H98.264v-39h86.354V407.403z M387.144,407.403
	h-29.519h-20.521h-16.834h-45.398h-16.524h-15.345h-37.121v-39h181.261V407.403z M496.311,468.001h-86.354v-39h86.354V468.001z
	 M496.311,407.403h-86.354v-39h86.354V407.403z M492.311,433.001h-78.354v31h78.354V433.001z M453.135,454.221
	c-3.16,0-5.721-2.562-5.721-5.721s2.561-5.721,5.721-5.721s5.721,2.562,5.721,5.721S456.295,454.221,453.135,454.221z
	 M383.144,403.403H209.883v-31h173.261V403.403z M180.618,372.403h-78.354v31h78.354V372.403z M141.441,394.442
	c-3.16,0-5.721-2.562-5.721-5.721s2.561-5.721,5.721-5.721s5.721,2.562,5.721,5.721S144.601,394.442,141.441,394.442z
	 M113.355,261.021c-0.781-0.781-0.781-2.047,0-2.828c0.78-0.781,2.048-0.781,2.828,0l9.061,9.061c0.781,0.781,0.781,2.047,0,2.828
	c-0.39,0.391-0.902,0.586-1.414,0.586s-1.024-0.195-1.414-0.586L113.355,261.021z M216.352,148.041c0.781,0.781,0.781,2.047,0,2.828
	l-9.061,9.061c-0.39,0.391-0.902,0.586-1.414,0.586s-1.024-0.195-1.414-0.586c-0.781-0.781-0.781-2.047,0-2.828l9.061-9.061
	C214.304,147.26,215.572,147.26,216.352,148.041z M195.199,137.564c0-1.104,0.896-2,2-2h12.813c1.104,0,2,0.896,2,2s-0.896,2-2,2
	h-12.813C196.095,139.564,195.199,138.669,195.199,137.564z M224.828,167.193v-12.814c0-1.104,0.896-2,2-2s2,0.896,2,2v12.814
	c0,1.104-0.896,2-2,2S224.828,168.298,224.828,167.193z M204.463,118.027c-0.781-0.781-0.781-2.047,0-2.828
	c0.78-0.781,2.048-0.781,2.828,0l9.061,9.061c0.781,0.781,0.781,2.047,0,2.828c-0.39,0.391-0.902,0.586-1.414,0.586
	s-1.024-0.195-1.414-0.586L204.463,118.027z M152.537,278.558h12.813c1.104,0,2,0.895,2,2c0,1.104-0.896,2-2,2h-12.813
	c-1.104,0-2-0.896-2-2C150.537,279.452,151.432,278.558,152.537,278.558z M146.197,293.863c-0.781-0.781-0.781-2.047,0-2.828
	c0.78-0.781,2.048-0.781,2.828,0l9.061,9.06c0.781,0.781,0.781,2.047,0,2.828c-0.39,0.391-0.902,0.586-1.414,0.586
	s-1.024-0.195-1.414-0.586L146.197,293.863z M133.72,310.186v-12.814c0-1.105,0.896-2,2-2s2,0.895,2,2v12.814c0,1.104-0.896,2-2,2
	S133.72,311.29,133.72,310.186z M133.72,263.741v-12.813c0-1.105,0.896-2,2-2s2,0.896,2,2v12.813c0,1.104-0.896,2-2,2
	S133.72,264.845,133.72,263.741z M224.828,120.748v-12.813c0-1.104,0.896-2,2-2s2,0.896,2,2v12.813c0,1.104-0.896,2-2,2
	S224.828,121.852,224.828,120.748z M146.197,270.081c-0.781-0.781-0.781-2.047,0-2.828l9.061-9.061c0.78-0.781,2.048-0.781,2.828,0
	c0.781,0.781,0.781,2.047,0,2.828l-9.061,9.061c-0.39,0.391-0.902,0.586-1.414,0.586S146.587,270.472,146.197,270.081z
	 M154.287,201.038c2.152,0,4.056-0.834,5.36-2.352c1.138-1.323,1.765-3.08,1.765-4.945c0-3.627-2.448-7.299-7.125-7.299
	c-2.152,0-4.056,0.836-5.36,2.352c-1.138,1.324-1.765,3.08-1.765,4.947C147.162,197.367,149.61,201.038,154.287,201.038z
	 M151.96,191.402c0.547-0.637,1.331-0.96,2.327-0.96c3.037,0,3.125,2.961,3.125,3.299c0,0.896-0.291,1.748-0.798,2.338
	c-0.547,0.637-1.331,0.959-2.327,0.959c-3.037,0-3.125-2.96-3.125-3.297C151.162,192.844,151.453,191.992,151.96,191.402z"></path>
<path id="color_x5F_1" fill="#b92671" d="M98.184,517.279c-1.194,9.037-1.439,14.947-1.471,17.932h-8.446
	c-1.137-8.082-0.903-16.277-0.417-24.441c0.074-1.268,0.156-2.541,0.248-3.814c0.367-4.297,0.86-8.578,1.487-12.842
	c0.708-4.029,1.678-7.996,3.129-11.828c0.727-1.928-2.36-2.752-3.079-0.848c-3.534,9.344-4.283,19.447-4.978,29.332
	c-0.573,8.131-0.723,16.361,0.377,24.441h-0.981l-5.374-0.979c0,0-0.75-4.002-1.542-9.896c-1.526-11.348-3.208-29.708,0-40.045
	c0.425-1.369,0.935-2.599,1.542-3.651c7.583-13.123,24.196-13.67,24.557,0C103.6,494.314,99.989,503.607,98.184,517.279z
	 M41.866,502.261c6.519,6.717,13.71,13.074,21.104,18.82c3.666,2.846,7.507,5.541,10.732,8.816
	c-1.216-5.02-2.179-10.09-2.697-15.227c-7.042-8.449-15.342-16.787-22.005-18.76c-14.533-4.307-26.962,6.73-17.819,16.898
	c8.889,9.885,17.662,14.197,27.987,22.4h14.268c-2.814-2.889-5.656-5.75-8.518-8.586c-1.875-1.432-3.773-2.848-5.563-4.389
	c-6.712-5.777-13.567-11.354-19.743-17.719C38.176,503.041,40.432,500.783,41.866,502.261z M138.786,496.642
	c-3.648-1.357-8.233-1.627-13.056-0.197c-1.074,0.318-2.228,0.816-3.428,1.439c-6.249,3.24-13.902,10.232-19.808,17.32
	c-0.646,6.387-0.979,12.668-2.448,18.883c4.87-5.699,10.514-10.609,16.146-15.596c2.08-1.842,4.093-3.75,6.109-5.652
	c3.938-3.715,7.886-7.402,12.354-10.523c1.691-1.178,3.285,1.59,1.609,2.758c-5.016,3.502-9.495,7.746-13.963,11.965
	c-1.789,1.689-3.576,3.375-5.396,5.008c-4.714,4.23-9.47,8.424-13.646,13.164h12.985c2.077-1.627,4.09-3.1,6.057-4.504
	c5.794-4.137,11.174-7.656,16.484-12.549c1.59-1.463,3.174-3.049,4.762-4.814C149.656,506.551,146.13,499.377,138.786,496.642z
	 M525.24,480.64c-0.15-5.7-3.131-8.92-7.101-9.795c-5.55-1.224-13.036,2.145-17.457,9.795c-7.585,13.127,0,53.592,0,53.592
	l5.374,0.979h0.98c-1.101-8.08-0.95-16.311-0.377-24.441c0.693-9.885,1.443-19.988,4.977-29.332c0.719-1.904,3.807-1.08,3.079,0.848
	c-1.451,3.832-2.422,7.799-3.13,11.828c-0.627,4.264-1.119,8.545-1.486,12.842c-0.093,1.273-0.174,2.547-0.248,3.814
	c-0.487,8.164-0.721,16.359,0.416,24.441h7.872h0.573c0.031-2.984,0.277-8.895,1.471-17.932
	C521.989,503.607,525.6,494.314,525.24,480.64z M463.866,502.261c6.519,6.717,13.71,13.074,21.104,18.82
	c3.665,2.846,7.507,5.541,10.732,8.816c-1.216-5.02-2.179-10.09-2.696-15.227c-7.042-8.449-15.342-16.787-22.006-18.76
	c-14.533-4.307-26.963,6.73-17.819,16.898c8.89,9.885,17.662,14.197,27.987,22.4h14.268c-2.813-2.889-5.656-5.75-8.518-8.586
	c-1.875-1.432-3.773-2.848-5.563-4.389c-6.713-5.777-13.568-11.354-19.744-17.719C460.176,503.041,462.431,500.783,463.866,502.261z
	 M560.787,496.642c-3.648-1.357-8.234-1.627-13.057-0.197c-1.074,0.318-2.229,0.816-3.428,1.439
	c-6.25,3.24-13.902,10.232-19.809,17.32c-0.646,6.387-0.979,12.668-2.447,18.883c4.869-5.699,10.514-10.609,16.146-15.596
	c2.079-1.842,4.093-3.75,6.109-5.652c3.938-3.715,7.885-7.402,12.354-10.523c1.691-1.178,3.285,1.59,1.609,2.758
	c-5.016,3.502-9.495,7.746-13.963,11.965c-1.789,1.689-3.576,3.375-5.396,5.008c-4.713,4.23-9.469,8.424-13.646,13.164h12.985
	c2.077-1.627,4.09-3.1,6.058-4.504c5.794-4.137,11.174-7.656,16.484-12.549c1.59-1.463,3.174-3.049,4.762-4.814
	C571.656,506.551,568.131,499.377,560.787,496.642z M351.323,278.33h24.922c0.044-0.104,0.079-0.209,0.103-0.315
	c0-0.002,0.001-0.005,0.001-0.007c0.701-0.534,1.358-1.145,1.952-1.843c3.702-4.355,20.188-29.862,23.316-41.555
	c0.641-2.396,0.734-4.226,0.027-5.16c-1.042-1.376-3.941-0.472-7.771,1.737c-11.453,6.607-31.231,24.892-34.573,28.824
	c-0.35,0.412-0.657,0.844-0.945,1.285c-5.415-0.416-12.563-0.215-18.922,0.119c-0.014-0.019-0.026-0.035-0.04-0.054
	c-0.482-0.656-0.957-1.297-1.422-1.922c-0.046-0.062-0.093-0.125-0.139-0.188c-0.467-0.627-0.924-1.237-1.368-1.829
	c-0.032-0.042-0.064-0.085-0.096-0.126c-0.454-0.603-0.895-1.185-1.321-1.745c-0.02-0.026-0.04-0.053-0.061-0.08
	c-0.439-0.577-0.864-1.131-1.271-1.657c-0.001-0.001-0.001-0.001-0.002-0.002c4.786-6.73,20.923-31.545,23.132-41.985
	c0.383-1.23,0.587-2.538,0.565-3.896c-0.085-5.484-4.165-33.383-9.23-45.222c-1.296-3.028-2.656-5.006-4.03-5.288
	c-1.818-0.375-3.513,2.656-5.016,7.413c-4.072,12.885-6.739,38.458-6.661,43.486c0.018,1.12,0.195,2.196,0.488,3.224
	c-7.692,8.532-18.298,26.137-19.945,28.332c-0.865,1.154-1.487,2.411-1.899,3.712h-5.968v34.742h7.44H351.323z M518.139,357.001H541
	v-16.8H379.732h-78.678h-0.004h-9.078h-15.321V323.05v-73.04c-0.065-0.108-0.136-0.212-0.199-0.322l0.199-0.882v-5.218h-16.93
	c-3.743,0-7.038,1.696-8.968,4.267c-0.032,0.035-0.068,0.064-0.101,0.099c-2.01,2.187-8.959,11.168-16.247,21.501
	c3.035-11.785,5.705-24.188,5.946-31.521c-0.793,0.181-1.614,0.285-2.462,0.285c-2.244,0-4.328-0.672-6.071-1.82
	c-10.961,12.967-28.962,46.991-31.187,52.411c-2.83,6.896,0.465,14.783,7.362,17.615c2.554,1.048,5.242,1.251,7.761,0.748
	c5.066,0.962,23.12-13.05,37.229-25.065l2.05,14.73c-9.621,6.518-39.021,29.181-32.846,41.836c0.048,0.498,0.137,1.008,0.268,1.527
	H56.879v16.8H77.14H518.139z M98.264,368.403h86.354v39H98.264V368.403z M102.264,403.403h78.354v-31h-78.354V403.403z
	 M409.958,368.403h86.354v39h-86.354V368.403z M413.958,403.403h78.354v-31h-78.354V403.403z M98.264,429.001h86.354v39H98.264
	V429.001z M102.264,464.001h78.354v-31h-78.354V464.001z M409.958,429.001h86.354v39h-86.354V429.001z M413.958,464.001h78.354v-31
	h-78.354V464.001z M205.883,368.403h181.261v39h-29.519h-20.521h-16.834h-45.398h-16.524h-15.345h-37.121V368.403z M209.883,403.403
	h173.261v-31H209.883V403.403z M141.441,383.001c-3.16,0-5.721,2.562-5.721,5.721s2.561,5.721,5.721,5.721s5.721-2.562,5.721-5.721
	S144.601,383.001,141.441,383.001z M141.441,442.78c-3.16,0-5.721,2.562-5.721,5.721s2.561,5.721,5.721,5.721
	s5.721-2.562,5.721-5.721S144.601,442.78,141.441,442.78z M453.135,383.001c-3.16,0-5.721,2.562-5.721,5.721
	s2.561,5.721,5.721,5.721s5.721-2.562,5.721-5.721S456.295,383.001,453.135,383.001z M453.135,442.78
	c-3.16,0-5.721,2.562-5.721,5.721s2.561,5.721,5.721,5.721s5.721-2.562,5.721-5.721S456.295,442.78,453.135,442.78z"></path>
</svg>