<?xml version="1.0" standalone="no"?>
<svg version="1.1" id="Layer_1" xmlns="http://www.w3.org/2000/svg" xmlns:xlink="http://www.w3.org/1999/xlink" x="0px" y="0px" width="595.279px" height="595.279px" viewBox="0 0.001 595.279 595.279" enable-background="new 0 0.001 595.279 595.279" xml:space="preserve">
<path id="color_x5F_5" fill="#FFD2BB" d="M301.818,216.259c0.021-0.213,0.041-0.425,0.062-0.638c0.32-2.648,0.132-5.212-0.466-7.584
	c-0.941-0.138-1.994-0.471-3.161-1.026c-0.083-0.007-0.162-0.014-0.246-0.021c0.084,0.007,0.164,0.014,0.246,0.021
	c-1.029-0.49-2.136-1.135-3.344-1.997c0.045,3.848-7.761,7.63-10.776,4.889c1.696,1.569,2.116,5.508,1.049,8.159
	c-0.411-2.169-2.011-3.792-3.933-3.792c-0.611,0-1.184,0.176-1.703,0.469c-1.378,0.777-2.339,2.454-2.339,4.414
	c0,2.696,1.81,4.882,4.042,4.882c0.795,0,1.53-0.287,2.155-0.765c0.068,0.007,0.146,0.014,0.21,0.022
	c-2.263,3.762-7.047,4.957-14.234,2.374l-4.874,11.756l0.012,0.007l20.413,12.332l0.034-0.189l0.024-0.132
	c0.072-0.397,0.206-1.133,0.359-1.978l2.079-11.445l0.677-3.739c0.283,0.141,0.556,0.272,0.829,0.394
	c2.273,1.082,4.437,1.79,6.236,2.001c3.359,0.408,4.907-0.959,5.641-3.371c0.665-2.188,0.662-5.232,0.705-8.625
	c0.688-0.04,1.304-0.162,1.749-0.343c2.011-0.849,0.081-2.729-0.92-5.114C302.193,216.875,302.01,216.552,301.818,216.259z
	 M296.487,215.781c0.087-0.892,0.599-1.568,1.149-1.508c0.547,0.058,0.926,0.831,0.837,1.724c-0.089,0.892-0.598,1.57-1.149,1.51
	C296.779,217.448,296.402,216.676,296.487,215.781z M379.957,274.219c0,5.113-4.145,9.258-9.258,9.258
	c-1.524,0-2.959-0.375-4.227-1.028c-0.377-0.194-0.738-0.411-1.083-0.653c-0.596-0.418-1.138-0.907-1.619-1.452
	c-1.444-1.633-2.329-3.773-2.329-6.125c0-0.66,0.071-1.303,0.203-1.924c0.886-4.189,4.603-7.334,9.055-7.334
	C375.812,264.962,379.957,269.106,379.957,274.219z"></path>
<path id="color_x5F_4" fill="#0c00ce" d="M226.81,174.232l-23.475,30.46l-10.37-7.991c-8.411-6.482-9.975-18.556-3.493-26.967
	c6.483-8.412,18.557-9.975,26.968-3.493L226.81,174.232z M282.764,414.971c9.98,14.888,32.534,49.515,32.534,49.515
	s-23.073-112.835-26.045-125.211c-0.104,1.141-0.163,1.771-0.163,1.771h-37.065c-0.186,1.351-0.244,2.729-0.128,4.123
	c-0.153,2.153,0.039,4.364,0.667,6.558c1.706,5.964,10.121,24.548,18.792,38.116c0.12,1.057,0.307,2.15,0.551,3.26
	c-5.893,3.539-12.008,10.442-14.396,14.745c-3.59,6.465-25.895,39.203-28.083,42.411l0.033,0.152
	C232.613,448.644,269.25,427.977,282.764,414.971z"></path>
<path id="color_x5F_3" fill="#E84393" d="M258.536,247.906l-34.227-26.836l0.104-0.134l23.475-30.46l0.192-0.249l9.023,7.029
	c-0.092,0.216-0.168,0.434-0.251,0.652c-2.748,7.162-0.97,14.832,2.897,20.352c2.168,3.095,4.984,5.518,8.026,6.785
	c0.549,0.229,1.083,0.433,1.606,0.621l-4.874,11.756l0.012,0.007l-0.016-0.004c0,3.132-0.857,4.659-1.773,5.881
	C261.145,244.322,259.757,245.896,258.536,247.906z M319.605,282.681c1.416-1.31,3.167-2.392,5.182-3.103
	c3.741-1.321,17.783-4.7,29.73-6.441l-53.707-41.835c-0.733,2.411-2.281,3.778-5.641,3.371c-1.799-0.212-3.963-0.919-6.236-2.001
	c-0.272-0.122-0.545-0.252-0.829-0.394l-0.677,3.739l-2.079,11.445c-0.153,0.845-0.287,1.581-0.359,1.978l-0.024,0.132l-0.034,0.189
	c1.373,1.537,5.35,6.38,7.063,9.279C296.555,261.997,310.035,272.851,319.605,282.681z M331.812,299.48
	c4.571-1.614,23.043-10.491,33.577-17.684c0.345,0.242,0.706,0.459,1.083,0.653l58.726,45.745c-0.042-0.914-0.046-1.836-0.01-2.768
	c-13.254-16.506-22.697-34.994-28.655-56.095c-1.318-4.67-2.431-9.412-3.395-14.177c-4.846-23.954-5.57-48.55-5.57-68.214h2.607
	c0,25.56,1.489,48.996,6.226,70.605c5.131,23.403,14.073,44.662,29.122,64.119c1.378-10.171,6.491-20.97,11.214-30.38
	c0.47-0.936,0.937-1.86,1.395-2.767c1.345-2.663,2.616-5.178,3.719-7.513c7.046-14.912,24.28-38.156,40.535-43.146l0.766,2.494
	c-15.496,4.757-32.101,27.287-38.941,41.767c-1.04,2.201-2.224,4.551-3.473,7.024c-0.093,0.185-0.184,0.365-0.277,0.551
	c-5.371,10.63-11.846,23.479-12.598,34.893c3.514,4.322,10.316,13.884,10.316,13.884l-0.671,0.674
	c-0.171-0.171-0.333-0.346-0.503-0.517c-0.046-0.046-0.09-0.093-0.136-0.139l-23.124,29.998l0.199,0.064l-0.198,0.258
	l-87.922-68.488c0.018-0.001,0.04,0,0.058-0.001C327.793,300.442,329.815,300.186,331.812,299.48z M427.985,330.23l-0.149,0.019
	l4.558,3.551c-1.554-1.688-3.068-3.396-4.534-5.127C427.894,329.194,427.92,329.718,427.985,330.23z M297.323,217.507
	c0.551,0.06,1.06-0.619,1.149-1.51c0.089-0.893-0.29-1.666-0.837-1.724c-0.551-0.06-1.062,0.616-1.149,1.508
	C296.402,216.676,296.779,217.448,297.323,217.507z M315.299,484.435h30.967l-30.967-19.949V484.435z M493.153,480.163
	c-17.406,20.636-75.032,24.366-120.824,24.366c-16.342,0.001-31.167-0.474-42.133-0.825c-6.488-0.207-11.627-0.359-14.841-0.366
	c-5.25,0.006-15.88-0.102-29.344-0.242c-30.979-0.323-77.793-0.811-113.606-0.429c-35.699,0.383-62.728-3.048-65.741-8.339
	c-0.496-0.868-0.481-1.817,0.037-2.672c4.325-7.118,54.938-9.874,129.094-7.061l-20.542-20.542l14.107-14.105l0.067,0.312
	l0.033,0.152l7.405,34.224c0.112,0.004,0.223,0.009,0.335,0.013l-0.102,2.606c-101.935-3.951-127.332,3.039-128.192,5.799
	c0.205,0.659,3.683,2.927,17.153,4.764c12.002,1.637,28.45,2.431,46.315,2.241c35.838-0.384,82.671,0.105,113.661,0.429
	c13.453,0.141,24.068,0.235,29.313,0.242c0.054,0,0.108,0,0.162,0c3.277,0,8.36,0.162,14.766,0.367
	c41.319,1.322,138.076,4.418,160.88-22.615c4.2-4.979,5.587-10.605,4.241-17.2c-1.702-8.339-7.628-14.251-15.04-18.44
	c-8.493,6.78-22.086,9.411-31.889,11.309l-0.488,0.094c-0.322,0.062-32.785,5.629-40.553-4.443
	c-2.165-2.807-2.209-6.423-0.129-10.75c5.153-10.721,35.167-9,42.926-7.952c8.435,1.14,20.055,3.547,29.784,8.608
	c1.834-1.695,3.31-3.641,4.286-5.88c3.589-8.234,3.497-23.721-1.996-32.126c-4.311-6.597-18.691-16.316-20.551-17.557l-4.84-1.579
	c-1.841,0.677-13.247,4.689-24.999,4.689c-0.743,0-1.488-0.018-2.231-0.051c-6.567-0.3-12.935-0.846-19.266-1.651
	c-12.676-1.613-25.2-4.288-38.862-8.259l0.729-2.506c14.257,4.145,27.26,6.865,40.502,8.429c5.592,0.66,11.225,1.118,17.015,1.383
	c8.835,0.402,18.054-1.921,22.924-3.401l-6.77-2.209c1.638-5.165,4.922-9.591,9.237-12.664l10.649,17.454
	c4.963,3.468,14.955,10.849,18.646,16.495c6.109,9.349,6.064,25.735,2.204,34.595c-1.019,2.335-2.488,4.372-4.289,6.159
	c7.637,4.491,13.736,10.818,15.556,19.732C499.451,468.084,497.835,474.612,493.153,480.163z M477.823,441.5
	c-9.176-4.537-20.025-6.748-27.946-7.817c-3.048-0.412-7.977-0.773-13.37-0.773c-11.067,0-24.092,1.523-26.854,7.27
	c-1.64,3.413-1.691,6.039-0.158,8.028c5.55,7.191,29.79,5.065,37.993,3.475l0.488-0.094
	C457.147,449.812,469.777,447.369,477.823,441.5z"></path>
<path id="color_x5F_2" fill="#9224e4" d="M365.389,281.796c-10.534,7.193-29.006,16.07-33.577,17.684
	c-1.997,0.706-4.02,0.962-5.931,0.84c-0.018,0.001-0.04,0-0.058,0.001c-6.727,0.378-20.717-4.347-32.248-9.019
	c-1.72,19.54-3.743,41.66-4.322,47.973c-0.104,1.141-0.163,1.771-0.163,1.771h-37.065h-0.212c0.038-1.423-6.135-71.984,6.722-93.141
	c1.221-2.009,2.609-3.583,4.194-4.6c0.916-1.223,1.773-2.75,1.773-5.881l0.016,0.004l20.413,12.332
	c1.373,1.537,5.35,6.38,7.063,9.279c4.561,2.957,18.041,13.811,27.611,23.641c1.416-1.31,3.167-2.392,5.182-3.103
	c3.741-1.321,17.783-4.7,29.73-6.441c2.509-0.366,4.918-0.655,7.127-0.841c-0.132,0.621-0.203,1.264-0.203,1.924
	c0,2.352,0.885,4.492,2.329,6.125C364.252,280.889,364.794,281.378,365.389,281.796z M267.775,225.044
	c0.549,0.229,1.083,0.433,1.606,0.621c7.187,2.583,11.971,1.388,14.234-2.374c-0.063-0.008-0.142-0.015-0.21-0.022
	c-0.625,0.478-1.36,0.765-2.155,0.765c-2.232,0-4.042-2.186-4.042-4.882c0-1.959,0.961-3.636,2.339-4.414
	c0.519-0.293,1.092-0.469,1.703-0.469c1.922,0,3.522,1.622,3.933,3.792c1.066-2.65,0.646-6.59-1.049-8.159
	c3.015,2.742,10.821-1.041,10.776-4.889c1.208,0.862,2.315,1.507,3.344,1.997c0,0,0,0,0,0c1.167,0.555,2.219,0.889,3.161,1.026
	c8.703,1.272,7.883-13.924-0.889-20.222c-2.488-1.786-10.854-7.828-23.405-5.832c-0.148-1.188-0.046-2.468-0.133-3.688
	c-2.071,0.383-1.719,2.431-1.7,4.141c-1.561-1.22-4.293-1.252-6.151-0.673c1.454,0.271,3.406,0.436,4.092,1.968
	c-0.397-0.005-1.255-0.062-1.623,0.104c-7.805,3.512-12.335,8.313-14.503,13.42c-0.092,0.216-0.168,0.434-0.251,0.652
	c-2.748,7.162-0.97,14.832,2.897,20.352C261.917,221.354,264.733,223.777,267.775,225.044z"></path>
<path id="color_x5F_1" fill="#0984E3" d="M438.178,338.47l17.012,27.854c-4.315,3.073-7.6,7.499-9.237,12.664l-32.009-10.437
	l-0.199-0.064l23.124-29.998c0.046,0.046,0.09,0.093,0.136,0.139c0.17,0.171,0.332,0.346,0.503,0.517L438.178,338.47z
	 M226.81,174.232l-23.475,30.46l-0.103,0.134l21.077,16.244l0.104-0.134l23.475-30.46l0.192-0.249l0.083-0.108l-21.077-16.244
	L226.81,174.232z M209.294,141.705c3.348,0,6.062-2.714,6.062-6.061V96.812c0-3.347-2.714-6.061-6.062-6.061
	c-3.348,0-6.062,2.714-6.062,6.061v38.832C203.233,138.991,205.947,141.705,209.294,141.705z M209.294,231.511
	c-3.348,0-6.062,2.713-6.062,6.062v38.833c0,3.349,2.714,6.062,6.062,6.062c3.348,0,6.062-2.713,6.062-6.062v-38.833
	C215.356,234.225,212.642,231.511,209.294,231.511z M164.39,186.609c0-3.347-2.714-6.061-6.062-6.061h-38.831
	c-3.348,0-6.061,2.714-6.061,6.061s2.713,6.062,6.061,6.062h38.831C161.676,192.671,164.39,189.956,164.39,186.609z
	 M150.083,118.827c-2.368-2.368-6.204-2.368-8.571,0c-2.367,2.368-2.367,6.203,0,8.571l27.461,27.459
	c1.183,1.185,2.733,1.777,4.285,1.777c1.551,0,3.102-0.592,4.285-1.777c2.369-2.367,2.369-6.203,0-8.571L150.083,118.827z
	 M168.972,218.361l-27.461,27.459c-2.367,2.368-2.367,6.204,0,8.572c1.184,1.185,2.734,1.776,4.286,1.776
	c1.551,0,3.102-0.592,4.286-1.776l27.459-27.46c2.369-2.368,2.369-6.203,0-8.571C175.175,215.994,171.34,215.994,168.972,218.361z
	 M268.506,118.827l-27.459,27.459c-2.368,2.368-2.368,6.204,0,8.571c1.184,1.185,2.735,1.777,4.285,1.777
	c1.552,0,3.103-0.592,4.286-1.777l27.46-27.459c2.368-2.368,2.368-6.203,0-8.571C274.71,116.459,270.874,116.459,268.506,118.827z
	 M393.138,255.155c-4.846-23.954-5.57-48.55-5.57-68.214h2.607c0,25.56,1.489,48.996,6.226,70.605
	c3.476,2.181,29.198-38.665,32.151-59.456c3.887-27.381-0.467-66.409-32.917-72.682c-37.317-7.213-36.882,42.117-31.652,67.942
	C366.969,208.094,377.359,241.861,393.138,255.155z M526.119,189.54c-14.11-23.864-48.353,11.646-63.714,32.744
	c-10.906,14.977-36.48,56.732-25.668,69c0.47-0.936,0.937-1.86,1.395-2.767c1.345-2.663,2.616-5.178,3.719-7.513
	c7.046-14.912,24.28-38.156,40.535-43.146l0.766,2.494c-15.496,4.757-32.101,27.287-38.941,41.767
	c-1.04,2.201-2.224,4.551-3.473,7.024c14.241-13.384,36.551-18.634,51.491-31.109C513.354,240.393,538.389,210.29,526.119,189.54z
	 M334.884,356.034c-11.589,15.425,16.323,26.578,31.942,30.127c9.811,2.229,34.397,5.644,43.589-0.609
	c-12.676-1.613-25.2-4.288-38.862-8.259l0.729-2.506c14.257,4.145,27.26,6.865,40.502,8.429c0.31-0.468-19.144-19.388-30.276-25.524
	C367.846,349.611,344.957,342.622,334.884,356.034z"></path>
</svg>